<?xml version="1.0" encoding="utf-8"?>
<!-- Generator: Adobe Illustrator 18.0.0, SVG Export Plug-In . SVG Version: 6.00 Build 0)  -->
<!DOCTYPE svg PUBLIC "-//W3C//DTD SVG 1.1//EN" "http://www.w3.org/Graphics/SVG/1.1/DTD/svg11.dtd">
<svg version="1.1" id="Layer_1" xmlns="http://www.w3.org/2000/svg" xmlns:xlink="http://www.w3.org/1999/xlink" x="0px" y="0px"
	 viewBox="0 0 2272 1872" enable-background="new 0 0 2272 1872" xml:space="preserve">
<rect fill="#81D1DD" width="2272" height="1872"/>
<g>
	<g>
		<g>
			<path fill="#F3BF97" d="M511.3,1359.7c2.5-0.5,5.1-1.2,6.9-2.7c2.1-1.8,2.8-4.5,3.4-7.2c2.4-11.3,3-23.9-3.9-34.4
				c-7.2-10.8-20.8-16.9-33.7-21.8c-29.7-11.3-35.9-12.6-61.2-16.8c-9.9-1.6-17.3,6.7-13.3,15c1.2,2.5,3,4.8,5.4,6.6
				c-16.1-5.3-64.2-19.2-80.7-22.5c-6-1.2-12.2-2.2-17.9-1c-8.3,1.8-14.3,8.5-15.4,16.1c-1.1,7.6,2.5,15.7,8.6,21.7
				c7.1,7,17.1,10.9,26.8,14.7C392.5,1349.2,454.1,1371.7,511.3,1359.7z"/>
			<g>
				<path fill="#FFFFFF" d="M528.3,1339.3c31.8,72,93.4,131.7,166.7,159.8c78.9,30.2,172.1,24.2,246.9-15.2c0,0.4,0.1,0.7,0.2,1.1
					c1.2,3.5,2.9,6.9,4.3,10.3c0.1,0.3,0.2,0.5,0.4,0.7l-19.7,124.4c-28.7,8.9-58.6,14.7-88.9,17.4c-34.9,3-69.9,1.8-104.1-3.6
					c-28.4-4.5-56.1-11.8-82.5-22c-58.2-22.3-107.7-58.2-151.5-105c-35.9-38.4-58.8-99.2-78.7-153.2
					C417.2,1342.4,528.3,1339.3,528.3,1339.3z"/>
			</g>
			<g>
				<path fill="#E8E8E8" d="M901.1,1502.1c13.7-4.8,27-10.5,39.8-17.2c0,0.4,0.1,0.7,0.2,1.1c1.2,3.5,2.9,6.9,4.3,10.3
					c0.1,0.3,0.2,0.5,0.4,0.7l-19.7,124.4c-5.1,1.6-10.2,3-15.4,4.4C906.2,1584.7,901.9,1543.5,901.1,1502.1z"/>
			</g>
		</g>
		<g>
			<path fill="#F3BF97" d="M1757.1,1359.7c-2.5-0.5-5.1-1.2-6.9-2.7c-2.1-1.8-2.8-4.5-3.4-7.2c-2.4-11.3-3-23.9,3.9-34.4
				c7.2-10.8,20.8-16.9,33.7-21.8c29.7-11.3,35.9-12.6,61.2-16.8c9.9-1.6,17.3,6.7,13.3,15c-1.2,2.5-3,4.8-5.4,6.6
				c16.1-5.3,64.2-19.2,80.7-22.5c6-1.2,12.2-2.2,17.9-1c8.3,1.8,14.3,8.5,15.4,16.1c1.1,7.6-2.5,15.7-8.6,21.7
				c-7.1,7-17.1,10.9-26.8,14.7C1875.9,1349.2,1814.3,1371.7,1757.1,1359.7z"/>
			<g>
				<path fill="#FFFFFF" d="M1740.1,1339.3c-31.8,72-93.4,131.7-166.7,159.8c-78.9,30.2-172.1,24.2-246.9-15.2
					c0,0.4-0.1,0.7-0.2,1.1c-1.2,3.5-2.9,6.9-4.3,10.3c-0.1,0.3-0.2,0.5-0.4,0.7l19.7,124.4c28.7,8.9,58.6,14.7,88.9,17.4
					c34.9,3,69.9,1.8,104.1-3.6c28.4-4.5,56.1-11.8,82.5-22c58.2-22.3,107.7-58.2,151.5-105c35.9-38.4,58.8-99.2,78.7-153.2
					C1851.3,1342.4,1740.1,1339.3,1740.1,1339.3z"/>
			</g>
			<g>
				<path fill="#E8E8E8" d="M1366.3,1501.1c-13.7-4.8-27-10.5-39.8-17.2c0,0.4-0.1,0.7-0.2,1.1c-1.2,3.5-2.9,6.9-4.3,10.3
					c-0.1,0.3-0.2,0.5-0.4,0.7l19.7,124.4c5.1,1.6,10.2,3,15.4,4.4C1361.1,1584.8,1365.5,1543.5,1366.3,1501.1z"/>
			</g>
		</g>
		<path fill="#424342" d="M928.7,1872h410.1c1-31.7,1.9-66.5,2.4-101.8c2-133.8-0.3-274.3-0.3-274.3c0-6.1-4.3-11.3-10.3-12.5
			c-28.5-5.6-112.3-20.5-196.1-20.5c-84.4,0-169,14.9-197.7,20.5c-6,1.2-10.3,6.4-10.3,12.5c0,0-2.3,142.1-0.2,276.6
			C926.8,1806.9,927.7,1841,928.7,1872z"/>
		<g>
			<g>
				<g>
					<path fill="#EFB38B" d="M903.2,1084.1c-0.3-0.9-10-5.4-10.3-6.3c-1.4,0.6-1.7,1.9-3,2.7c-9.7,5.9-22.1,25.6-20.5,43.3
						c1,11.3,5.5,21.9,11.2,31.8c5.7,9.8,12.2,19.2,16.5,29.7c3.9,9.5,6.2,20.2,13.7,27.2c8.9,8.4,25.1,9,37.2,6.2
						c-4.7-18.1-15.5-73.9-18.4-86C911.4,1098.6,913.3,1116.2,903.2,1084.1z"/>
				</g>
			</g>
		</g>
		<g opacity="0.17">
			<g>
				<path fill="#027040" d="M1339,726.6c0.1-0.1,0.2-0.2,0.2-0.3h0C1339.1,726.5,1339,726.6,1339,726.6z"/>
			</g>
		</g>
		<g>
			<g>
				<path fill="#BCBBBB" d="M1135.3,1574.3c12.8-13.9,27.5-26,39.1-40.9c9.6-12.3,17.1-26.1,26.1-38.8c-12.8-23.2-38-39.1-67-39.1
					c-30.1,0-56.1,17-68.4,41.6C1087.1,1524.1,1110.8,1549.6,1135.3,1574.3z"/>
				<g>
					<path fill="#8E1B24" d="M1131.6,1569.8c0,0,0.1,0.1,0.1,0.1c11.3-5,23.6-13.9,31.8-24.9l-7.3-12.4c-1.8-4.6-4.9-7.5-8.2-7.5
						h-26.7c-3.1,0-6,2.4-7.8,6.4l-7.2,14.1c3.5,2.6,6.5,6.6,9.8,9.7C1121.2,1560.1,1126.5,1564.8,1131.6,1569.8z"/>
					<path fill="#AD2329" d="M1089,1500.6l25.5,30.6c1.7,2.3,4.4,3.7,7.2,3.7h24.7c3.1,0,6-1.6,7.6-4.3l21.4-30l-43.2-42.4
						L1089,1500.6z"/>
				</g>
				<path fill="#E5E5E5" d="M1038.8,1407.7c0,0,74-8,93.1-8c53.9,0,96.1,8,96.1,8l-95.5,66.1L1038.8,1407.7z"/>
				<polygon fill="#EAAC81" points="1071.1,1361.3 1072.7,1464.6 1136.2,1477.6 1201.9,1464.6 1201.9,1361.3 				"/>
				<path fill="#282828" d="M1133,1566.8c-16-12.3-44.3-47.5-60.1-69.1l-15.6,11.4c4.9,6.7,48.6,66.1,71.6,78l5,2.6l-0.9-23
					C1133.1,1566.8,1133,1566.8,1133,1566.8z"/>
				<path fill="#282828" d="M1204.3,1507.8l-17.2-8.8c-18.9,37-43.6,59.3-54.1,67.7l0.9,23l4.7-3.1
					C1140.3,1585.6,1177.4,1560.6,1204.3,1507.8z"/>
				<g>
					<path fill="#DAEEFB" d="M1283.5,1824.8c0.6-0.2,1.1-0.3,1.7-0.5C1285.2,1824.3,1284.4,1824.5,1283.5,1824.8z"/>
				</g>
				<path fill="#FFFFFF" d="M1081.1,1534.5c0,0,9.2-15.6,21.4-29.5c14.2-16.3,30-31.2,30-31.2l-93.7-66.1c0,0-25.3,39.6,26.4,125
					C1068.6,1538.3,1075.2,1543.2,1081.1,1534.5z"/>
				<path fill="#FFFFFF" d="M1184.1,1536.3c0,0-10.3-16.3-21.7-30c-14.1-17.1-30-32.4-30-32.4l95.5-66.1c0,0,23,46.3-31.2,127.5
					C1193.8,1539.6,1190.1,1544.4,1184.1,1536.3z"/>
			</g>
		</g>
		<g>
			<g>
				<g>
					<path fill="#EFB38B" d="M1370.4,1084.1c0.3-0.9,10-5.4,10.3-6.3c1.4,0.6,1.7,1.9,3,2.7c9.7,5.9,22.1,25.6,20.5,43.3
						c-1,11.3-5.5,21.9-11.2,31.8c-5.7,9.8-12.2,19.2-16.5,29.7c-3.9,9.5-6.2,20.2-13.7,27.2c-8.9,8.4-25.1,9-37.2,6.2
						c4.7-18.1,15.5-73.9,18.4-86C1362.1,1098.6,1360.2,1116.2,1370.4,1084.1z"/>
				</g>
			</g>
		</g>
		<path fill="#F3BF97" d="M1349.7,1058.3c-8.9-57.8,13.6-126.7-53.8-167.9c-40.5,17.8-107.8,26.4-152.3,30.7
			c-39.6,3.9-80.2,5-118.6-5c-13.5-3.5-56-8.5-68.4-15c-52.2,51.8-28.8,102.6-37.4,158.3c-2.6,17.2,1.9,33.4,2.9,49.4
			c1.2,18,4.5,35.9,9.1,54.8c-0.3-0.5-0.6-1.1-0.9-1.6c2.8,11.6,6.9,27.7,11.6,45.3c11,40.8,25.6,89,36.8,105.3
			c20.7,30,56.3,42.9,65.1,45.8c0,0,47.5,40.6,92.2,40.6c48.8,0,93.9-40.6,93.9-40.6c8.9-2.9,44.4-15.7,65.1-45.8
			c11.3-16.4,24.4-64.1,34-104.2c4.3-18,7.9-34.4,10.3-45.7c-0.2,0.3-0.3,0.6-0.5,0.9c3.9-22.4,7.9-43.6,8.9-65.5
			C1348.4,1085.7,1351.8,1071.6,1349.7,1058.3z"/>
		<g>
			<path fill="none" d="M1086.3,1290.9c-2.7-0.3-5.4-0.5-8.2-0.8h0C1080.8,1290.4,1083.5,1290.6,1086.3,1290.9z"/>
			<linearGradient id="SVGID_1_" gradientUnits="userSpaceOnUse" x1="1138.651" y1="1369.8267" x2="1154.801" y2="1369.8267">
				<stop  offset="0" style="stop-color:#B26638"/>
				<stop  offset="0.508" style="stop-color:#F0AE88"/>
				<stop  offset="1" style="stop-color:#B26638"/>
			</linearGradient>
			<path fill="url(#SVGID_1_)" d="M1138.7,1369.7c5.4,0.2,10.8,0.4,16.2,0.1C1149.4,1370.1,1144,1369.9,1138.7,1369.7z"/>
			<linearGradient id="SVGID_2_" gradientUnits="userSpaceOnUse" x1="1154.801" y1="1369.7814" x2="1154.8025" y2="1369.7814">
				<stop  offset="0" style="stop-color:#B26638"/>
				<stop  offset="0.508" style="stop-color:#F0AE88"/>
				<stop  offset="1" style="stop-color:#B26638"/>
			</linearGradient>
			<polygon fill="url(#SVGID_2_)" points="1154.8,1369.8 1154.8,1369.8 1154.8,1369.8 			"/>
			<linearGradient id="SVGID_3_" gradientUnits="userSpaceOnUse" x1="1133.8845" y1="1369.6595" x2="1138.651" y2="1369.6595">
				<stop  offset="0" style="stop-color:#B26638"/>
				<stop  offset="0.508" style="stop-color:#F0AE88"/>
				<stop  offset="1" style="stop-color:#B26638"/>
			</linearGradient>
			<path fill="url(#SVGID_3_)" d="M1138.7,1369.7c-1.6,0-3.2-0.1-4.8-0.1C1135.5,1369.6,1137.1,1369.7,1138.7,1369.7z"/>
			<linearGradient id="SVGID_4_" gradientUnits="userSpaceOnUse" x1="1063.5051" y1="1289.3914" x2="1078.1047" y2="1289.3914">
				<stop  offset="0" style="stop-color:#B26638"/>
				<stop  offset="0.508" style="stop-color:#F0AE88"/>
				<stop  offset="1" style="stop-color:#B26638"/>
			</linearGradient>
			<path fill="url(#SVGID_4_)" d="M1078.1,1290.1c-4.9-0.5-9.7-0.9-14.6-1.4C1068.4,1289.2,1073.2,1289.6,1078.1,1290.1
				L1078.1,1290.1z"/>
			<path fill="none" d="M1098.8,1292c-6.9-0.9-13.9-1.7-20.7-1.9c2.7,0.3,5.4,0.5,8.2,0.8C1090.4,1291.3,1094.6,1291.7,1098.8,1292z
				"/>
		</g>
		<g>
			<path fill="#541E1E" d="M1058.9,1268.5c23.2,5.9,94.8,20.6,160.6-3.2c3.2-1.2,5.9,2.9,3.7,5.6c-10.8,13.5-30.4,37.2-45.4,51.7
				c-8.6,8.2-52.3,20.5-77.5,0c-21.2-17.2-37.2-38.5-44.6-49.3C1054.1,1271,1056.2,1267.8,1058.9,1268.5z"/>
			<path fill="#F7F7F7" d="M1204.8,1283.7l10-16.7c-55,15.2-121.5,8.1-152.2,2.2l9.5,14.9c1.4,3,4.2,5,7.3,5.5
				c15.7,2.5,67.4,8.4,118.4-0.5C1200.8,1288.6,1203.4,1286.5,1204.8,1283.7z"/>
			<g>
				<path fill="#BD5B5B" d="M1132.1,1306.9c-12,0.2-28.1,1.7-37.3,11.2c1.8,1.8,3.5,3.5,5.7,5.1c24.8,18.8,68.1,11.3,78.3-1.5
					C1165.2,1310.8,1149.3,1306.6,1132.1,1306.9z"/>
			</g>
		</g>
		<linearGradient id="SVGID_5_" gradientUnits="userSpaceOnUse" x1="1198.7783" y1="1261.0902" x2="1418.9037" y2="1261.0902">
			<stop  offset="0" style="stop-color:#D58C68"/>
			<stop  offset="0.5027" style="stop-color:#FBB992"/>
			<stop  offset="1" style="stop-color:#D58C68"/>
		</linearGradient>
		<path fill="url(#SVGID_5_)" d="M1230.8,1254.9c0,0,14.5-1.1,12.1,13C1242.9,1267.9,1250.3,1250.8,1230.8,1254.9z"/>
		<path fill="#5D5E5E" d="M1363.3,1207.3c0,0.1,0,0.3,0,0.4"/>
		<linearGradient id="SVGID_6_" gradientUnits="userSpaceOnUse" x1="1402.0037" y1="868.1166" x2="1403.7429" y2="1186.9911">
			<stop  offset="0.3743" style="stop-color:#BF9C5F"/>
			<stop  offset="0.7273" style="stop-color:#976943"/>
			<stop  offset="0.9893" style="stop-color:#624226"/>
		</linearGradient>
		<path fill="url(#SVGID_6_)" d="M1403.2,1051.2c-0.1,0.5-0.2,1.1-0.3,1.6C1403,1052.3,1403.1,1051.8,1403.2,1051.2z"/>
		<linearGradient id="SVGID_7_" gradientUnits="userSpaceOnUse" x1="1403.0349" y1="868.1036" x2="1404.7742" y2="1186.9912">
			<stop  offset="0.3743" style="stop-color:#BF9C5F"/>
			<stop  offset="0.7273" style="stop-color:#976943"/>
			<stop  offset="0.9893" style="stop-color:#624226"/>
		</linearGradient>
		<path fill="url(#SVGID_7_)" d="M1404.1,1046.4c-0.1,0.4-0.2,0.9-0.3,1.3C1404,1047.2,1404.1,1046.8,1404.1,1046.4z"/>
		<linearGradient id="SVGID_8_" gradientUnits="userSpaceOnUse" x1="1393.4924" y1="868.1108" x2="1395.2318" y2="1187.016">
			<stop  offset="0.3743" style="stop-color:#BF9C5F"/>
			<stop  offset="0.7273" style="stop-color:#976943"/>
			<stop  offset="0.9893" style="stop-color:#624226"/>
		</linearGradient>
		<path fill="url(#SVGID_8_)" d="M1394.8,1061.2c-0.2,0.7-0.3,1.3-0.5,2C1394.5,1062.5,1394.6,1061.8,1394.8,1061.2z"/>
		<linearGradient id="SVGID_9_" gradientUnits="userSpaceOnUse" x1="1407.8555" y1="868.0837" x2="1409.5947" y2="1186.9576">
			<stop  offset="0.3743" style="stop-color:#BF9C5F"/>
			<stop  offset="0.7273" style="stop-color:#976943"/>
			<stop  offset="0.9893" style="stop-color:#624226"/>
		</linearGradient>
		<path fill="url(#SVGID_9_)" d="M1408.7,1018c0,0.3-0.1,0.7-0.1,1C1408.7,1018.7,1408.7,1018.4,1408.7,1018z"/>
		<linearGradient id="SVGID_10_" gradientUnits="userSpaceOnUse" x1="1394.6488" y1="868.1199" x2="1396.3881" y2="1186.9994">
			<stop  offset="0.3743" style="stop-color:#BF9C5F"/>
			<stop  offset="0.7273" style="stop-color:#976943"/>
			<stop  offset="0.9893" style="stop-color:#624226"/>
		</linearGradient>
		<path fill="url(#SVGID_10_)" d="M1395.9,1056.2c-0.1,0.6-0.3,1.2-0.4,1.9C1395.6,1057.4,1395.7,1056.8,1395.9,1056.2z"/>
		<linearGradient id="SVGID_11_" gradientUnits="userSpaceOnUse" x1="1405.7957" y1="868.0444" x2="1407.5354" y2="1187.0176">
			<stop  offset="0.3743" style="stop-color:#BF9C5F"/>
			<stop  offset="0.7273" style="stop-color:#976943"/>
			<stop  offset="0.9893" style="stop-color:#624226"/>
		</linearGradient>
		<path fill="url(#SVGID_11_)" d="M1406.7,1031.7c0,0.1,0,0.2-0.1,0.4C1406.7,1032,1406.7,1031.9,1406.7,1031.7z"/>
		<linearGradient id="SVGID_12_" gradientUnits="userSpaceOnUse" x1="1406.5632" y1="868.1155" x2="1408.3022" y2="1186.9404">
			<stop  offset="0.3743" style="stop-color:#BF9C5F"/>
			<stop  offset="0.7273" style="stop-color:#976943"/>
			<stop  offset="0.9893" style="stop-color:#624226"/>
		</linearGradient>
		<path fill="url(#SVGID_12_)" d="M1407.5,1026.8c0,0.3-0.1,0.6-0.1,0.9C1407.4,1027.3,1407.5,1027.1,1407.5,1026.8z"/>
		<linearGradient id="SVGID_13_" gradientUnits="userSpaceOnUse" x1="1407.2418" y1="868.0682" x2="1408.9812" y2="1186.9813">
			<stop  offset="0.3743" style="stop-color:#BF9C5F"/>
			<stop  offset="0.7273" style="stop-color:#976943"/>
			<stop  offset="0.9893" style="stop-color:#624226"/>
		</linearGradient>
		<path fill="url(#SVGID_13_)" d="M1408.2,1022.3c0,0.3-0.1,0.7-0.1,1C1408.1,1023,1408.1,1022.6,1408.2,1022.3z"/>
		<linearGradient id="SVGID_14_" gradientUnits="userSpaceOnUse" x1="1404.0422" y1="868.1021" x2="1405.7815" y2="1186.9821">
			<stop  offset="0.3743" style="stop-color:#BF9C5F"/>
			<stop  offset="0.7273" style="stop-color:#976943"/>
			<stop  offset="0.9893" style="stop-color:#624226"/>
		</linearGradient>
		<path fill="url(#SVGID_14_)" d="M1405,1041.6c0,0.1,0,0.3-0.1,0.4C1405,1041.9,1405,1041.7,1405,1041.6z"/>
		<linearGradient id="SVGID_15_" gradientUnits="userSpaceOnUse" x1="1388.0747" y1="868.1318" x2="1389.8142" y2="1187.0477">
			<stop  offset="0.3743" style="stop-color:#BF9C5F"/>
			<stop  offset="0.7273" style="stop-color:#976943"/>
			<stop  offset="0.9893" style="stop-color:#624226"/>
		</linearGradient>
		<path fill="url(#SVGID_15_)" d="M1389.5,1082.1c-0.2,0.7-0.4,1.4-0.6,2C1389.2,1083.4,1389.3,1082.8,1389.5,1082.1z"/>
		<linearGradient id="SVGID_16_" gradientUnits="userSpaceOnUse" x1="1386.4761" y1="868.1581" x2="1388.2153" y2="1187.0477">
			<stop  offset="0.3743" style="stop-color:#BF9C5F"/>
			<stop  offset="0.7273" style="stop-color:#976943"/>
			<stop  offset="0.9893" style="stop-color:#624226"/>
		</linearGradient>
		<path fill="url(#SVGID_16_)" d="M1387.4,1089.4c0.2-0.6,0.3-1.2,0.5-1.8C1387.8,1088.2,1387.6,1088.8,1387.4,1089.4z"/>
		<linearGradient id="SVGID_17_" gradientUnits="userSpaceOnUse" x1="1408.4111" y1="868.0834" x2="1410.1503" y2="1186.951">
			<stop  offset="0.3743" style="stop-color:#BF9C5F"/>
			<stop  offset="0.7273" style="stop-color:#976943"/>
			<stop  offset="0.9893" style="stop-color:#624226"/>
		</linearGradient>
		<path fill="url(#SVGID_17_)" d="M1409.3,1014c0,0.3-0.1,0.7-0.1,1C1409.2,1014.7,1409.2,1014.3,1409.3,1014z"/>
		<linearGradient id="SVGID_18_" gradientUnits="userSpaceOnUse" x1="1390.9521" y1="868.144" x2="1392.6914" y2="1187.0179">
			<stop  offset="0.3743" style="stop-color:#BF9C5F"/>
			<stop  offset="0.7273" style="stop-color:#976943"/>
			<stop  offset="0.9893" style="stop-color:#624226"/>
		</linearGradient>
		<path fill="url(#SVGID_18_)" d="M1392.3,1071.5c-0.2,0.7-0.4,1.4-0.5,2.1C1392,1072.9,1392.2,1072.2,1392.3,1071.5z"/>
		<linearGradient id="SVGID_19_" gradientUnits="userSpaceOnUse" x1="1392.2612" y1="868.1169" x2="1394.0006" y2="1187.0225">
			<stop  offset="0.3743" style="stop-color:#BF9C5F"/>
			<stop  offset="0.7273" style="stop-color:#976943"/>
			<stop  offset="0.9893" style="stop-color:#624226"/>
		</linearGradient>
		<path fill="url(#SVGID_19_)" d="M1393.6,1066.3c-0.2,0.7-0.3,1.4-0.5,2.1C1393.3,1067.7,1393.4,1067,1393.6,1066.3z"/>
		<linearGradient id="SVGID_20_" gradientUnits="userSpaceOnUse" x1="1389.5603" y1="868.1436" x2="1391.2996" y2="1187.0297">
			<stop  offset="0.3743" style="stop-color:#BF9C5F"/>
			<stop  offset="0.7273" style="stop-color:#976943"/>
			<stop  offset="0.9893" style="stop-color:#624226"/>
		</linearGradient>
		<path fill="url(#SVGID_20_)" d="M1391,1076.7c-0.2,0.7-0.4,1.4-0.6,2.1C1390.6,1078.1,1390.8,1077.4,1391,1076.7z"/>
		<linearGradient id="SVGID_21_" gradientUnits="userSpaceOnUse" x1="1385.3855" y1="868.1687" x2="1387.1248" y2="1187.0516">
			<stop  offset="0" style="stop-color:#BF9C5F"/>
			<stop  offset="0.7273" style="stop-color:#976943"/>
			<stop  offset="0.9893" style="stop-color:#624226"/>
		</linearGradient>
		<path opacity="0.11" fill="url(#SVGID_21_)" d="M1387.4,1089.4c-0.5,1.8-1.1,3.5-1.6,5.3
			C1386.4,1092.9,1386.9,1091.2,1387.4,1089.4z"/>
		<linearGradient id="SVGID_22_" gradientUnits="userSpaceOnUse" x1="1392.8871" y1="868.134" x2="1394.6262" y2="1187.0065">
			<stop  offset="0" style="stop-color:#BF9C5F"/>
			<stop  offset="0.7273" style="stop-color:#976943"/>
			<stop  offset="0.9893" style="stop-color:#624226"/>
		</linearGradient>
		<path opacity="0.11" fill="url(#SVGID_22_)" d="M1394.3,1063.2c-0.2,1-0.5,2.1-0.7,3.1C1393.8,1065.2,1394.1,1064.2,1394.3,1063.2
			z"/>
		<linearGradient id="SVGID_23_" gradientUnits="userSpaceOnUse" x1="1391.6169" y1="868.1328" x2="1393.3563" y2="1187.0184">
			<stop  offset="0" style="stop-color:#BF9C5F"/>
			<stop  offset="0.7273" style="stop-color:#976943"/>
			<stop  offset="0.9893" style="stop-color:#624226"/>
		</linearGradient>
		<path opacity="0.11" fill="url(#SVGID_23_)" d="M1393.1,1068.4c-0.2,1-0.5,2.1-0.8,3.1C1392.6,1070.4,1392.8,1069.4,1393.1,1068.4
			z"/>
		<linearGradient id="SVGID_24_" gradientUnits="userSpaceOnUse" x1="1394.0837" y1="868.1203" x2="1395.823" y2="1187.0044">
			<stop  offset="0" style="stop-color:#BF9C5F"/>
			<stop  offset="0.7273" style="stop-color:#976943"/>
			<stop  offset="0.9893" style="stop-color:#624226"/>
		</linearGradient>
		<path opacity="0.11" fill="url(#SVGID_24_)" d="M1395.5,1058c-0.2,1-0.5,2.1-0.7,3.1C1395,1060.1,1395.2,1059.1,1395.5,1058z"/>
		<linearGradient id="SVGID_25_" gradientUnits="userSpaceOnUse" x1="1398.3538" y1="870.0399" x2="1400.0751" y2="1185.629">
			<stop  offset="0" style="stop-color:#BF9C5F"/>
			<stop  offset="0.7273" style="stop-color:#976943"/>
			<stop  offset="0.9893" style="stop-color:#624226"/>
		</linearGradient>
		<path opacity="0.11" fill="url(#SVGID_25_)" d="M1402.8,1052.9c-0.2,1.1-6.7,2.2-7,3.3C1396.1,1055,1402.6,1054,1402.8,1052.9z"/>
		<linearGradient id="SVGID_26_" gradientUnits="userSpaceOnUse" x1="1387.2618" y1="868.1588" x2="1389.0011" y2="1187.0414">
			<stop  offset="0" style="stop-color:#BF9C5F"/>
			<stop  offset="0.7273" style="stop-color:#976943"/>
			<stop  offset="0.9893" style="stop-color:#624226"/>
		</linearGradient>
		<path opacity="0.11" fill="url(#SVGID_26_)" d="M1389,1084.1c-0.3,1.2-0.7,2.4-1,3.5C1388.3,1086.5,1388.6,1085.3,1389,1084.1z"/>
		<linearGradient id="SVGID_27_" gradientUnits="userSpaceOnUse" x1="1388.8185" y1="868.1459" x2="1390.5577" y2="1187.0348">
			<stop  offset="0" style="stop-color:#BF9C5F"/>
			<stop  offset="0.7273" style="stop-color:#976943"/>
			<stop  offset="0.9893" style="stop-color:#624226"/>
		</linearGradient>
		<path opacity="0.11" fill="url(#SVGID_27_)" d="M1390.4,1078.8c-0.3,1.1-0.6,2.2-0.9,3.2C1389.8,1081,1390.1,1079.9,1390.4,1078.8
			z"/>
		<linearGradient id="SVGID_28_" gradientUnits="userSpaceOnUse" x1="1390.2625" y1="868.1458" x2="1392.0017" y2="1187.0227">
			<stop  offset="0" style="stop-color:#BF9C5F"/>
			<stop  offset="0.7273" style="stop-color:#976943"/>
			<stop  offset="0.9893" style="stop-color:#624226"/>
		</linearGradient>
		<path opacity="0.11" fill="url(#SVGID_28_)" d="M1391.8,1073.6c-0.3,1-0.5,2.1-0.8,3.1C1391.3,1075.7,1391.5,1074.6,1391.8,1073.6
			z"/>
		<linearGradient id="SVGID_29_" gradientUnits="userSpaceOnUse" x1="1407.5505" y1="868.0816" x2="1409.2898" y2="1186.9635">
			<stop  offset="0" style="stop-color:#BF9C5F"/>
			<stop  offset="0.7273" style="stop-color:#976943"/>
			<stop  offset="0.9893" style="stop-color:#624226"/>
		</linearGradient>
		<path opacity="0.11" fill="url(#SVGID_29_)" d="M1408.6,1019.1c-0.1,1-0.3,2.1-0.4,3.2C1408.3,1021.2,1408.5,1020.1,1408.6,1019.1
			z"/>
		<linearGradient id="SVGID_30_" gradientUnits="userSpaceOnUse" x1="1408.1353" y1="868.0724" x2="1409.8746" y2="1186.9669">
			<stop  offset="0" style="stop-color:#BF9C5F"/>
			<stop  offset="0.7273" style="stop-color:#976943"/>
			<stop  offset="0.9893" style="stop-color:#624226"/>
		</linearGradient>
		<path opacity="0.11" fill="url(#SVGID_30_)" d="M1409.1,1015c-0.1,1-0.3,2-0.4,3C1408.9,1017,1409,1016,1409.1,1015z"/>
		<linearGradient id="SVGID_31_" gradientUnits="userSpaceOnUse" x1="1406.8979" y1="868.0801" x2="1408.6372" y2="1186.9728">
			<stop  offset="0" style="stop-color:#BF9C5F"/>
			<stop  offset="0.7273" style="stop-color:#976943"/>
			<stop  offset="0.9893" style="stop-color:#624226"/>
		</linearGradient>
		<path opacity="0.11" fill="url(#SVGID_31_)" d="M1408,1023.3c-0.2,1.1-0.3,2.3-0.5,3.5C1407.7,1025.6,1407.8,1024.4,1408,1023.3z"
			/>
		<linearGradient id="SVGID_32_" gradientUnits="userSpaceOnUse" x1="1403.5842" y1="868.0973" x2="1405.3235" y2="1186.9907">
			<stop  offset="0" style="stop-color:#BF9C5F"/>
			<stop  offset="0.7273" style="stop-color:#976943"/>
			<stop  offset="0.9893" style="stop-color:#624226"/>
		</linearGradient>
		<path opacity="0.11" fill="url(#SVGID_32_)" d="M1405,1042c-0.3,1.4-0.5,2.9-0.8,4.4C1404.4,1044.9,1404.7,1043.4,1405,1042z"/>
		<linearGradient id="SVGID_33_" gradientUnits="userSpaceOnUse" x1="1406.1602" y1="868.0874" x2="1407.8994" y2="1186.9735">
			<stop  offset="0" style="stop-color:#BF9C5F"/>
			<stop  offset="0.7273" style="stop-color:#976943"/>
			<stop  offset="0.9893" style="stop-color:#624226"/>
		</linearGradient>
		<path opacity="0.11" fill="url(#SVGID_33_)" d="M1407.4,1027.6c-0.2,1.4-0.4,2.7-0.6,4.1C1406.9,1030.4,1407.2,1029,1407.4,1027.6
			z"/>
		<linearGradient id="SVGID_34_" gradientUnits="userSpaceOnUse" x1="1402.5417" y1="868.1084" x2="1404.281" y2="1186.9921">
			<stop  offset="0" style="stop-color:#BF9C5F"/>
			<stop  offset="0.7273" style="stop-color:#976943"/>
			<stop  offset="0.9893" style="stop-color:#624226"/>
		</linearGradient>
		<path opacity="0.11" fill="url(#SVGID_34_)" d="M1403.9,1047.6c-0.2,1.2-0.5,2.4-0.7,3.6C1403.4,1050,1403.7,1048.8,1403.9,1047.6
			z"/>
		<linearGradient id="SVGID_35_" gradientUnits="userSpaceOnUse" x1="1404.9237" y1="868.094" x2="1406.663" y2="1186.9799">
			<stop  offset="0" style="stop-color:#BF9C5F"/>
			<stop  offset="0.7273" style="stop-color:#976943"/>
			<stop  offset="0.9893" style="stop-color:#624226"/>
		</linearGradient>
		<path opacity="0.11" fill="url(#SVGID_35_)" d="M1406.7,1032.1c-0.5,3.1-1,6.3-1.6,9.5C1405.6,1038.4,1406.2,1035.2,1406.7,1032.1
			z"/>
		<g>
			<path fill="#1A110B" d="M1343.7,1096.1c-3.1,1.1-6.2,2.3-9.4,3.4c0-1.4,0.1-2.7,0.1-4.1c0.1-10.5-8.6-19.1-19.8-19.8
				c-17.8-1-44.5-2.2-71.3-2.2c-8.2,0-16.9,0.2-26,0.4c-18.4,0.5-35.1,1.4-45.8,2c-11,0.7-19.8,9.2-20,19.4c0,0.1,0,0.1,0,0.2
				c-12.9-2.4-25.5-1.1-33.7,0.3c0-0.2,0-0.3,0-0.5c-0.1-10.3-8.9-18.8-19.9-19.5c-10.7-0.6-27.4-1.5-45.8-2.1
				c-9.1-0.3-17.9-0.4-26-0.5c-26.8-0.1-53.6,1.1-71.3,2.1c-11.2,0.6-20,9.2-19.9,19.7c0,0.8,0,1.6,0,2.4c-4.7-0.5-9.4-1.1-14.1-1.6
				v24.8c5.1,0.6,10.2,1.2,15.3,1.8c1.5,20.5,4,38.8,5.8,49.7c1.4,8.6,9,15.5,18.6,16.8c4.6,0.6,10.4,1.1,17.3,1.5
				c35.1,2.1,92-0.6,114.8-2.2c9.7-0.6,17.8-7.1,19.7-15.6c3.8-17,5.1-38.7,5.5-56.6c6.3-1.4,20.7-3.7,33.8-0.2
				c0.4,17.9,1.7,39.7,5.4,56.8c1.9,8.5,10,15,19.7,15.7c22.7,1.7,79.6,4.4,114.8,2.4c0,0,0,0,0,0c6.9-0.4,12.7-0.9,17.3-1.5
				c9.6-1.3,17.3-8.2,18.7-16.8c1.7-10.4,4.2-27.6,5.7-47.1c0.1,0.3,0.2,0.5,0.3,0.8c4.6-1.6,9.3-3.3,13.9-4.9
				C1345.4,1112.8,1344.9,1104.4,1343.7,1096.1z M1099.7,1169.8c-0.7,3.2-4.1,5.7-8.2,6c-22.5,1.6-78.7,4.3-113.2,2.2
				c-6.5-0.4-12-0.8-16.2-1.4c-4-0.5-7.2-3.2-7.7-6.5c-2.5-15.2-6.7-45.3-7.1-75.3c-0.1-3.8,3.5-7,8.1-7.3
				c17.6-0.9,44.1-2.1,70.6-2.1c8.1,0,16.7,0.2,25.7,0.5c18.3,0.5,34.8,1.4,45.4,2.1c4.6,0.3,8.2,3.5,8.3,7.3
				C1105.5,1113.1,1105,1146.5,1099.7,1169.8z M1314.7,1170.5c-0.5,3.3-3.7,5.9-7.7,6.4c-4.2,0.6-9.7,1-16.2,1.4c0,0,0,0,0,0
				c-34.5,2-90.7-0.7-113.2-2.4c-4.1-0.3-7.4-2.7-8.1-6c-5.3-23.4-5.7-56.7-5.5-74.5c0-3.8,3.7-7,8.3-7.3c10.6-0.6,27.2-1.5,45.4-2
				c9-0.3,17.7-0.4,25.7-0.4c26.5,0,53,1.2,70.6,2.2c4.6,0.3,8.1,3.5,8.1,7.3C1321.5,1125.1,1317.2,1155.2,1314.7,1170.5z"/>
		</g>
		<path fill="#3F2816" d="M1328.1,830.3c-17.4,13.9-42.3,32.3-39.8,48.9c4.7,32,32.2,148.5,58.2,248.8c13-12.6,16.6-18.7,25.3-32.9
			c22.6-36.6,21.4-88.1,18.8-130.2c-2.7-42.2-18.7-122.5-44-157.4C1332.3,787.9,1334.2,825.5,1328.1,830.3z"/>
		<path fill="#3F2816" d="M941.7,830.3c17.4,13.9,42.3,32.3,39.8,48.9c-4.7,32-32.2,148.5-58.2,248.8c-13-12.6-16.6-18.7-25.3-32.9
			c-22.6-36.6-21.4-88.1-18.8-130.2c2.7-42.2,18.7-122.5,44-157.4C937.5,787.9,935.6,825.5,941.7,830.3z"/>
		<path fill="#51321B" d="M1346.1,766c-2.7-13.1-8.9-24.9-20.8-29.2c-3.2-1.2-6.7-1.6-10.1-1.4c-14.7,0.7-25.1,14.2-38.5,19.1
			c6.9-16,14.3-34.8,15.7-52.3c0.6-7.6-1-15.2-8.5-18.1c-7.6-3-16-0.9-23,2.9c-12.2,6.6-23.6,14.6-36,21
			c-12.9,6.6-26.4,9.9-40.7,11.6c-33.4,4-66.9-2.8-99.8-7.9c-0.7-0.1-1.3-0.2-2-0.3c-46.7-7.1-94.8,6.4-131,36.8
			c-32.1,26.9-73,84.8-51.4,127.7c0.6,1.1,1.1,2.2,1.7,3.3c3.6,6.5,7.8,12.6,12.5,18.3c11.6,14,26.2,25.5,42.4,34.3
			c12.4,6.7,25.6,11.9,39.2,15.5c38.4,10.3,79,9.1,118.6,5.1c44.5-4.5,89.5-13.4,130-31.8c24-10.9,45.8-26.6,63.5-46.1
			c18.2-20,33.9-44.4,38.6-71.7C1348.2,792.8,1348.8,778.8,1346.1,766z"/>
		<path fill="#2D1B0F" d="M1275.4,1032.2c-7.9-5.3-18.2-8.6-27.2-9.6c-20.4-2.2-38.8-0.6-61.5,1.4c-12.2,1.1-12.1,20.6,0,21.4
			c18.4,1.3,36.7-3.2,55.1-2.5c7.6,0.3,15.3,1.3,22.8,2.9c4.1,0.9,8.2,1.7,12.2,3c3.7,1.3,7.4,4.2,10.4,1.5
			c3.7-3.3-5.2-12.8-7.4-14.8C1278.4,1034.4,1277,1033.3,1275.4,1032.2z"/>
		<path fill="#2D1B0F" d="M991.4,1032.2c7.9-5.3,18.2-8.6,27.2-9.6c20.4-2.2,38.8-0.6,61.5,1.4c12.2,1.1,12.1,20.6,0,21.4
			c-18.4,1.3-36.7-3.2-55.1-2.5c-7.6,0.3-15.3,1.3-22.8,2.9c-4.1,0.9-8.2,1.7-12.2,3c-3.7,1.3-7.4,4.2-10.4,1.5
			c-3.7-3.3,5.2-12.8,7.4-14.8C988.3,1034.4,989.8,1033.3,991.4,1032.2z"/>
		<ellipse fill="#3F2816" cx="1232.9" cy="1130.7" rx="22.5" ry="30"/>
		<ellipse fill="#3F2816" cx="1033.9" cy="1130.7" rx="22.5" ry="30"/>
		<ellipse fill="#EFD9CB" cx="1222.3" cy="1121.2" rx="4.4" ry="4.9"/>
		<ellipse fill="#EFD9CB" cx="1045.1" cy="1122.6" rx="4.4" ry="4.9"/>
		<path fill="#EAAC81" d="M1160.2,1196.6c-7.6-10.9-19.1-18.3-22.4-31.4c-0.6-2.6-4.5-1.6-4.8,0.6c-2.6,16.9,16.7,27,22.6,41.4
			c3.9,9.6-2.1,17.3-11.7,20.9c-9.1,3.4-21,2.9-26.3-5.9c-3.4-5.8-10.1-3.3-7,2.6c10.8,20.5,42.2,17.8,52.9,1.7
			C1170,1216.3,1165.7,1204.6,1160.2,1196.6z"/>
		
			<linearGradient id="SVGID_36_" gradientUnits="userSpaceOnUse" x1="1254.4343" y1="1262.3431" x2="1474.5597" y2="1262.3431" gradientTransform="matrix(-1 0 0 1 2338.9495 0)">
			<stop  offset="0" style="stop-color:#D58C68"/>
			<stop  offset="0.5027" style="stop-color:#FBB992"/>
			<stop  offset="1" style="stop-color:#D58C68"/>
		</linearGradient>
		<path fill="url(#SVGID_36_)" d="M1052.5,1256.1c0,0-14.5-1.1-12.1,13C1040.4,1269.2,1033,1252.1,1052.5,1256.1z"/>
	</g>
	<circle fill="#009DB8" cx="1131.5" cy="340.9" r="111.3"/>
	<circle fill="#009DB8" cx="515.3" cy="712.4" r="111.3"/>
	<circle fill="#009DB8" cx="777.5" cy="456.4" r="111.3"/>
	<circle fill="#009DB8" cx="376" cy="1064.2" r="111.3"/>
	<circle fill="#009DB8" cx="1751.6" cy="712.4" r="111.3"/>
	<circle fill="#009DB8" cx="1489.4" cy="456.4" r="111.3"/>
	<circle fill="#009DB8" cx="1890.9" cy="1064.2" r="111.3"/>
	<g>
		<g>
			<path fill="#FFFFFF" d="M578.1,734.5c-6.2-2-7.8-3.2-7.8-5.6c0-2,1.5-4.1,5.9-4.1c4.3,0,7.4,1.5,8.6,2.1l2.4,1.3l3.5-8.6
				l-1.3-0.6c-2.7-1.4-6.2-2.3-9.9-2.7l-1.8-0.2v-7.1h-7.1v7.7l-1.5,0.4c-0.3,0.1-0.7,0.2-1,0.3l-0.5,0.2c-4.8,1.7-8.1,4.7-9.4,8.6
				c-0.4,1.2-0.6,2.4-0.6,3.6c0,2.3,0.8,4.4,2.3,6.3c0.8,1,2,2,3.4,3c2.3,1.5,5,2.8,8.3,3.8c5.8,1.8,7.6,3.3,7.6,6.2
				c0,1.7-0.9,4.6-7.2,4.6c-3.8,0-7.9-1.3-10.2-2.7l-2.5-1.4l-3.4,9l1.3,0.6c3,1.5,7.1,2.6,11.5,2.9l1.8,0.1v6h7.1v-6.5l1.5-0.4
				c8-1.8,12.8-6.7,12.8-13C592,741.9,587.7,737.7,578.1,734.5z"/>
			<path fill="#FFFFFF" d="M579.2,761.4l-1.5,0.4v6.5h-7.1v-6l-1.8-0.1c-4.4-0.4-8.5-1.4-11.5-2.9l-1.3-0.6l3.4-9l2.5,1.4
				c2.4,1.3,6.4,2.7,10.2,2.7c6.3,0,7.2-2.9,7.2-4.6c0-2.8-1.9-4.3-7.6-6.2c-3.3-1-6-2.2-8.3-3.8c-1.5-1-2.6-2-3.4-3
				c-1.5-1.9-2.3-4-2.3-6.3c0-1.2,0.2-2.3,0.6-3.6c1.3-3.8,4.6-6.9,9.4-8.6l0.5-0.2c0.3-0.1,0.6-0.2,1-0.3l1.5-0.4v-7.7h7.1v7.1
				l1.8,0.2c3.7,0.4,7.2,1.3,9.9,2.7l1.3,0.6l-3.5,8.6l-2.4-1.3c-1.2-0.6-4.3-2.1-8.6-2.1c-4.3,0-5.9,2.1-5.9,4.1
				c0,2.4,1.6,3.5,7.8,5.6c9.6,3.1,13.9,7.4,13.9,13.8C592,754.7,587.2,759.6,579.2,761.4z"/>
		</g>
		<path fill="#FFFFFF" d="M573.7,810.7c-29.2,0-55.3-17.5-66.6-44.6c-0.6-1.4-1.2-3-1.8-4.9c-1.8-5.5-2.9-11.2-3.4-17.1
			c-0.1-1.7-0.3-3.5-0.3-5.3c0-1.9,0.1-3.7,0.3-5.4c0.1-1.9,0.3-3.6,0.7-5.6c1-6.4,2.8-12.6,5.3-18.3c0.9-2.1,1.9-4,2.9-5.8
			c1.4-2.5,3-4.9,5-7.6c1.9-2.5,3.8-4.9,5.8-7c10.3-10.8,23.4-18.1,37.8-21c2.1-0.4,4.4-0.8,6.6-1c2.6-0.3,5.2-0.4,7.7-0.4
			c39.7,0,72,32.3,72,72S613.5,810.7,573.7,810.7z M573.7,671.7c-2.3,0-4.6,0.1-6.8,0.3c-1.9,0.2-3.7,0.5-5.4,0.8l-0.4,0.1
			c-0.2,0-0.4,0.1-0.6,0.1c-13.1,2.6-25,9.1-34.4,18.8c-2.9,3-5.5,6.1-7.7,9.4c-1.3,1.9-2.5,4-3.8,6.3c-3.1,5.9-5.3,12.2-6.5,18.7
			c-0.3,1.6-0.6,3.6-0.9,5.6c-0.2,1.8-0.3,3.8-0.3,6.1c0,0,0,0.6,0,0.7c0,1.4,0.1,2.7,0.2,4.1l0,0.6c0.4,5.8,1.6,11.5,3.4,16.9
			c0.5,1.4,1.1,3.2,1.9,5c10.7,24.5,34.8,40.3,61.4,40.3c36.9,0,67-30,67-67C640.7,701.7,610.7,671.7,573.7,671.7z"/>
		<path fill="#FFFFFF" d="M573.7,681.2c-2.3,0-4.5,0.2-6.7,0.4c-3.5,0.4-6.9,1.1-10.2,2.1c-8.6,2.7-16.3,7.3-22.7,13.4
			c-2.5,2.4-4.8,5-6.9,7.9c-4.1,5.6-7.2,12.1-9,19c-0.5,1.9-0.9,3.8-1.2,5.7c-0.3,2.2-0.6,4.3-0.6,6.6c0,0.8-0.1,1.5-0.1,2.3
			c0,1.1,0.1,2.1,0.2,3.2c0.3,5.6,1.4,11,3.2,16.1c0.6,1.6,1.2,3.3,2,4.8c9.1,19.7,29,33.4,52.1,33.4c31.7,0,57.5-25.8,57.5-57.5
			C631.2,707,605.4,681.2,573.7,681.2z M573.7,794.6c-22.4,0-41.7-13.3-50.6-32.3c-0.7-1.6-1.4-3.2-2-4.8c-1.8-5-2.9-10.3-3.2-15.9
			c0-1-0.1-1.9-0.1-2.9c0-0.9,0.1-1.8,0.1-2.6c0.1-2.3,0.3-4.5,0.7-6.7c0.3-2,0.8-3.9,1.3-5.8c2-7.1,5.3-13.6,9.7-19.2
			c2.5-3.2,5.3-6.1,8.4-8.7c4.8-4,10.2-7.1,16.1-9.3c4.1-1.5,8.4-2.6,12.9-3.2c2.2-0.3,4.4-0.4,6.7-0.4c30.8,0,55.9,25.1,55.9,55.9
			C629.7,769.5,604.6,794.6,573.7,794.6z"/>
		<g>
			<path fill="#FFFFFF" d="M475.8,624.4c-5.7,1.4-9.9,5-10.5,9.5c-0.4,3.1,1.3,7.2,12,9.7c5.4,1.3,5.4,2,5.5,2.8
				c0,1.4-2.5,1.7-4.6,1.7c-3.1,0-6.4-0.8-8.2-1.6l-3.8-1.6l-5.5,8.3l2.6,0.9c3,1.1,7.1,1.8,11.5,2l-0.1,4h11l-0.2-4.5
				c8.2-1.3,12.9-4.9,12.1-9.8c-1-6.3-8.5-8.8-13.9-10.2c-5.2-1.4-5.2-1.9-5.2-2.4c0-1.2,2.3-1.3,3-1.3c2.9,0,5.2,0.8,6,1.2l3.6,1.6
				l2.7-8.1l-2.2-1c-2.3-1-5-1.6-7.8-1.9l-0.2-4.7h-7.5L475.8,624.4z"/>
			<path fill="#FFFFFF" d="M480.9,612.8c-42.7,0-76.2,12.4-76.2,28.1c0,15.8,33.5,28.1,76.2,28.1c42.7,0,76.2-12.4,76.2-28.1
				C557.1,625.2,523.6,612.8,480.9,612.8z M555.4,641c0,14.6-33.4,26.5-74.5,26.5c-41.1,0-74.5-11.9-74.5-26.5
				c0-14.6,33.4-26.5,74.5-26.5C522,614.4,555.4,626.3,555.4,641z"/>
			<path fill="#FFFFFF" d="M477,771.4c-49,0-83.1-19.8-83.1-37.5v-24c0-0.7,0.1-1.4,0.1-2.1c0.1-1.1,0.5-2.2,0.7-3l0.1-0.2l-0.1-0.2
				c-0.6-1.8-0.9-3.3-0.9-4.6v-25.8l0.1-0.4c0.1-1,0.4-2,0.8-3.2l0.1-0.2l-0.1-0.2c-0.6-1.8-0.9-3.4-0.9-4.8v-25.8l0.1-0.4
				c2.5-20.2,40-35.4,87.3-35.4c47.3,0,84.8,15.2,87.3,35.4c0.1,0.7,0.1,1.4,0.1,2.1v24c0,0.9-0.2,1.9-0.8,3.2
				c-1.5,0.2-3,0.4-4.5,0.6c0.3-0.5,0.6-1,0.8-1.5l0,0l0.1-0.2c0.3-0.7,0.5-1.5,0.5-2.1v-12.7l-1.3,1.5
				c-12.5,14.9-44.8,24.6-82.3,24.6c-37.5,0-69.8-9.7-82.3-24.6l-1.3-1.5V665c0,0.8,0.1,1.7,0.4,2.6c0.2,0.9,0.6,1.8,1,2.7
				c0.4,0.8,0.9,1.7,1.6,2.6c0.8,1.1,1.5,2,2.3,2.9c1.8,1.9,4,3.8,6.5,5.5l0.4,0.3c0.2,0.2,0.4,0.3,0.6,0.5l0.3,0.2
				c1.5,1,3.3,2.1,5.4,3.2c0.3,0.2,0.6,0.3,1,0.5l0.6,0.3c1.5,0.7,3,1.5,4.6,2.2c0.7,0.3,1.4,0.6,2.1,0.9c1.6,0.7,3.3,1.3,5,1.9
				l0.7,0.3c0.5,0.2,0.9,0.3,1.4,0.5c2.7,0.9,5.2,1.6,7.6,2.2c2.7,0.7,5.5,1.3,8.7,1.9c0.6,0.1,1.2,0.2,1.8,0.3l0.9,0.1
				c2.1,0.4,4.3,0.7,6.6,0.9c1.1,0.1,2.2,0.3,3.3,0.4c2.3,0.2,4.6,0.4,6.9,0.5l1,0.1c0.7,0,1.4,0.1,2.1,0.1c2.3,0.1,4.6,0.1,7,0.1
				c1.2,0,2.4,0,3.6,0c3.2-0.1,6.5-0.3,10.1-0.6c0.7-0.1,1.4-0.1,2-0.2l1.1-0.1c2.2-0.2,4.4-0.5,6.6-0.8c1.1-0.2,2.1-0.3,3.2-0.5
				c2.2-0.4,4.2-0.7,6.1-1.1c1-0.2,1.9-0.4,2.9-0.6c2.1-0.5,4.2-1,6.2-1.6c0,0,1.4-0.4,1.7-0.5c-1.4,1.5-2.7,3.2-4,4.9l-0.5,0.1
				c-1,0.3-2,0.5-3.1,0.8c-1,0.2-2.1,0.5-3.2,0.7c-2,0.4-4,0.8-6.1,1.1c-1.2,0.2-2.3,0.4-3.4,0.5c-2.2,0.3-4.4,0.6-6.6,0.8l-1.1,0.1
				c-0.7,0.1-1.4,0.2-2,0.2c-3.6,0.3-6.9,0.5-10,0.6c-1.5,0-3,0.1-4.4,0.1c-3.1,0-6.5-0.1-10.1-0.3c-0.7,0-1.3-0.1-2-0.2l-1-0.1
				c-2.3-0.2-4.6-0.4-6.8-0.6c-1.1-0.1-2.1-0.3-3.1-0.4c-2.2-0.3-4.3-0.6-6.4-1l-0.8-0.1c-0.6-0.1-1.2-0.2-1.8-0.3
				c-2.6-0.5-5.1-1.1-7.5-1.7l-0.8-0.2c-5.5-1.5-10.7-3.3-15.5-5.3l-0.7-0.3c-2.1-0.9-4.1-1.9-6-2.9l-0.6-0.3
				c-4.4-2.4-8.1-5-11.1-7.6c-1.3-1.2-2.4-2.3-3.4-3.5l-1.8-2.1l0.5,2.7c0.7,3.6,2.9,7.1,6.6,10.5l0.4,0.4c0.3,0.3,0.7,0.6,1,0.9
				c14.1,11.7,43.6,19.2,75.2,19.2c10.2,0,20.3-0.8,30-2.3c-0.7,1.3-1.4,2.8-2.1,4.3c-9.2,1.3-18.6,2-27.9,2
				c-29.4,0-56.6-6.2-72.7-16.5c-1-0.6-1.8-1.2-2.7-1.9c-2.8-2.1-5.1-4.2-6.9-6.2l-1.3-1.5v12.7c0,7.2,8.3,15.7,21.7,22.2
				c15.4,7.4,35.9,11.5,57.5,11.5c1.4,0,2.8,0,4.2,0c7.4-0.2,14.7-0.9,22.2-2.1c-0.2,1.4-0.3,2.7-0.5,4c-7.3,1.2-14.6,1.8-21.7,2
				c-1.5,0-3,0.1-4.4,0.1c-41.2,0-67.5-13.4-77.4-24.8l-1.3,0.6c0.8,3.4,3,6.7,6.4,9.9l0.4,0.4c0.3,0.3,0.7,0.6,1,0.9
				c14.1,11.7,43.6,19.2,75.2,19.2c7.2,0,14.4-0.4,21.4-1.2c0,1.3,0.1,2.6,0.2,3.9c-7.1,0.8-14.4,1.1-21.6,1.1
				c-29.4,0-56.6-6.2-72.7-16.5c-1-0.6-1.8-1.2-2.7-1.9c-2.8-2.1-5.1-4.2-6.9-6.2l-1.3-1.5v12.7c0,7.2,8.3,15.7,21.7,22.2
				c15.4,7.4,35.9,11.5,57.5,11.5c1.4,0,2.8,0,4.2-0.1c8.6-0.2,17.1-1.1,25.4-2.6c0.5,1.3,0.9,2.5,1.3,3.6
				c-8.9,1.7-17.8,2.6-26.6,2.9C480,771.3,478.5,771.4,477,771.4z M481.4,607.4c-42,0-78.5,13.2-83.1,30c-0.3,1.2-0.5,2.4-0.5,3.6
				c0,0.7,0.1,1.4,0.2,2.3c2.9,17.3,40.3,31.3,83.3,31.3c43,0,80.4-14.1,83.3-31.3c0.1-0.9,0.2-1.6,0.2-2.2c0-1.2-0.2-2.4-0.5-3.6
				C559.9,620.6,523.4,607.4,481.4,607.4z"/>
		</g>
	</g>
	<g>
		<path fill="#FFFFFF" d="M1490,584.7h-3.2c-70.3,0-127.5-57.2-127.5-127.5c0-70.3,57.2-127.5,127.5-127.5
			c23.7,0,46.8,6.6,66.9,18.9l2.7,1.7L1490,458.1V584.7z M1486.8,336.1c-66.8,0-121.1,54.3-121.1,121.1c0,65.7,52.6,119.3,117.8,121
			v-122l64-103.8C1529.1,341.7,1508.2,336.1,1486.8,336.1z"/>
		<path fill="#FFFFFF" d="M1592,365.2c-5.7-5.2-11.8-9.8-18.4-13.8l-65.2,105.8l118-39.2C1619.5,397.5,1607.6,379.4,1592,365.2z"/>
		<g>
			<polygon fill="#FFFFFF" points="1505.2,477.6 1505.2,477.6 1505.2,477.6 			"/>
			<polygon fill="#FFFFFF" points="1505.2,477.6 1505.2,477.6 1505.2,484.7 1512.5,475.2 1507.1,477 			"/>
			<polygon fill="#FFFFFF" points="1505.2,499.1 1527.2,470.3 1519.9,472.7 1505.2,492 			"/>
			<polygon fill="#FFFFFF" points="1505.2,513.4 1541.9,465.4 1534.6,467.8 1505.2,506.3 			"/>
			<polygon fill="#FFFFFF" points="1505.2,527.8 1556.6,460.5 1549.3,462.9 1505.2,520.7 			"/>
			<polygon fill="#FFFFFF" points="1505.3,542.1 1571.3,455.6 1564,458 1505.3,535 			"/>
			<polygon fill="#FFFFFF" points="1505.3,556.5 1585.9,450.7 1578.7,453.1 1505.3,549.4 			"/>
			<polygon fill="#FFFFFF" points="1505.3,570.8 1600.6,445.8 1593.4,448.2 1505.3,563.8 			"/>
			<polygon fill="#FFFFFF" points="1505.3,585.2 1615.3,440.9 1608.1,443.3 1505.3,578.1 			"/>
			<path fill="#FFFFFF" d="M1505.3,599.6l119.2-156.4c-0.5-1.6-0.9-3.3-1.4-4.9l-0.4,0.1l-117.4,154.1L1505.3,599.6z"/>
			<path fill="#FFFFFF" d="M1514.8,601.5L1627.2,454c-0.4-1.9-0.8-3.7-1.2-5.5l-116.8,153.3C1511.1,601.7,1512.9,601.6,1514.8,601.5
				z"/>
			<path fill="#FFFFFF" d="M1526.9,600l101.9-133.7c-0.2-2.1-0.4-4.1-0.7-6.2l-107.3,140.8C1522.9,600.6,1524.9,600.3,1526.9,600z"
				/>
			<path fill="#FFFFFF" d="M1540.3,596.8l89.2-117c0-0.8,0.1-1.6,0.1-2.4c0-1.4-0.1-2.7-0.2-4.1c0-0.1,0-0.3,0-0.4l-95.8,125.7
				C1535.8,598.1,1538,597.5,1540.3,596.8z"/>
			<path fill="#FFFFFF" d="M1555.5,591.3l72.7-95.4c0.4-2.7,0.7-5.5,0.9-8.3l-81.4,106.9C1550.3,593.5,1552.9,592.4,1555.5,591.3z"
				/>
			<path fill="#FFFFFF" d="M1574.3,580.9l48.8-64c1.2-3.7,2.3-7.4,3.2-11.3l-62,81.4C1567.7,585.1,1571.1,583.1,1574.3,580.9z"/>
			<path fill="#FFFFFF" d="M1616.6,532.6l-28.7,37.7C1599.7,559.8,1609.5,547,1616.6,532.6z"/>
		</g>
		<g>
			<path fill="#FFFFFF" d="M1424.7,445.3c0,9.8-6.2,14.7-13.5,14.7c-7,0-13-4.7-13.1-14.1c0-9.3,6.1-14.6,13.6-14.6
				C1419.5,431.4,1424.7,436.4,1424.7,445.3z M1404.1,445.7c-0.2,6,2.5,10.5,7.3,10.5c5,0,7.3-4.5,7.3-10.6c0-5.7-2-10.4-7.3-10.4
				C1406.6,435.2,1404.1,439.8,1404.1,445.7z M1410.7,479.7l33-48.3h4.8l-33,48.3H1410.7z M1461.2,464.7c0,9.8-6.2,14.7-13.4,14.7
				c-7,0-13-4.7-13.1-14c0-9.4,6.1-14.7,13.6-14.7C1456.1,450.7,1461.2,455.7,1461.2,464.7z M1440.6,465.1c-0.1,6,2.7,10.5,7.3,10.5
				c5,0,7.3-4.5,7.3-10.6c0-5.7-2-10.4-7.3-10.4C1443.2,454.5,1440.6,459.2,1440.6,465.1z"/>
		</g>
	</g>
	<g>
		<g>
			<path fill="#FFFFFF" d="M1798.3,671.1c-1.2-7.2-6.4-13.1-13.4-15.2l-17-5c9.3-9,11.6-22.9,12.2-27.7c3.3-0.6,5.9-2.4,7.3-5.3
				c1.5-3.2,1.1-7.3-1-10.1c-0.8-1.1-1.8-1.9-3-2.4c0.2-5.4,0.1-10.6-1.2-15.5c-0.6-4.3-2.5-8.2-5.2-11.6c-1.5-1.9-3.3-3.6-5.3-5
				c-3-2.3-6.5-4-10.1-5.1c-5.9-1.8-13.2-2.2-19.8-0.7c-0.7,0-1.4,0.1-2.2,0.2c-1.5,0.1-3,0.4-4.5,0.7c-4.4,1-8.3,3.1-10,7
				c-1.8,0.5-3.8,0.4-5.4,1.6c-2,1.6-3.1,3.8-3.7,6.2c-0.4,1.5-0.7,3-1,4.5c0,0.1,0,0.2,0,0.2c-1.1,6-1.8,12.4-1.3,18.4
				c-0.5,0.4-0.9,0.8-1.3,1.4c-0.3,0.4-0.6,0.8-0.8,1.3c-0.7,1.4-1.1,2.9-1.2,4.5c-0.1,1.5,0.2,3.1,0.9,4.5c1.3,2.7,3.8,4.6,7.1,5.1
				c0.3,2.6,1.1,7.8,3.2,13.4c0.6,1.6,1.3,3.3,2.2,4.9c1.9,3.7,4.4,7.3,7.7,10.3c-0.1,0-0.1,0.1-0.2,0.1l-13.8,4.1
				c-1.7,0.5-3.2,1.2-4.7,2.1c-2.3,1.4-4.2,3.3-5.7,5.5c-1.5,2.3-2.6,4.8-3.1,7.6l-3.7,22.5c-0.2,1.1,0.6,2.1,1.6,2.3
				c0.1,0,0.2,0,0.3,0c1,0,1.8-0.7,2-1.7l3.7-22.5c0.6-3.6,2.5-6.9,5.3-9.2c1.5-1.3,3.3-2.3,5.3-2.9l16.9-5c0,0,0.1,0,0.1,0.1
				c2.2,1.3,4.8,2.4,7.6,3.1c0.1,0.5,0.3,1,0.7,1.5l2.5,4l-6.2,27.1c-0.1,0.8,0.1,1.6,0.7,2.2l6.6,6.8c0.6,0.6,1.4,1,2.3,1h0
				c0.9,0,1.7-0.4,2.2-1l6.6-6.8c0.5-0.6,0.8-1.4,0.7-2.3l-6.2-27.1l2.5-3.9c0.5-0.5,0.8-1.1,0.7-1.7c3.2-1,5.5-2,7.9-3.8
				c1.1,0.4,2.3,0.8,2.8,1l16.6,4.9c5.5,1.6,9.7,6.4,10.6,12l3.7,22.5c0.2,1,1,1.7,2,1.7c0.1,0,0.2,0,0.3,0c1.1-0.2,1.8-1.2,1.6-2.3
				L1798.3,671.1z M1757,691l-6.6,6.8c-0.2,0.2-0.4,0.3-0.6,0.3s-0.4-0.1-0.6-0.3l-6.6-6.8c-0.1-0.1-0.1-0.2-0.1-0.2l5.8-25.2
				c0.5,0.3,1,0.4,1.5,0.4c0.6,0,1.1-0.2,1.6-0.5l5.7,25.2C1757.1,690.9,1757.1,691,1757,691z M1750.2,663.7c-0.2,0.1-0.6,0.1-0.8,0
				l-3.3-5.2c1,0.1,2,0.3,3,0.4c0,0,0.1,0,0.1,0h0h0h0h0c0,0,0.1,0,0.1,0c1.5-0.1,3-0.3,4.4-0.6L1750.2,663.7z M1749.2,654.9
				c-3.6-0.2-6.8-1.1-9.5-2.4c-1-0.5-2-1-2.9-1.6c0,0-0.1,0-0.1-0.1c-0.5-0.3-0.9-0.7-1.4-1c-4.3-3.2-7.2-7.6-9.1-12
				c-0.8-1.9-1.5-3.7-2-5.5c-1.7-5.7-2-10.5-2-11l-0.1-1.8l-1.8-0.1c-2.6-0.1-4.5-1.2-5.4-3c-0.3-0.7-0.5-1.5-0.5-2.3
				c0-1.4,0.3-2.7,1.1-3.8c0.1-0.2,0.3-0.4,0.5-0.6c0.9-0.8,2.2-1.5,4.2-1.2c0.1,0,0.1,0,0.2,0c0,0.6,0.1,1.3,0.1,1.9
				c0.1,0.7,0.1,1.5,0.1,2c0,0.6,0.7,0.3,1.1,0c0.4-0.5,0.8-1,1.2-1.5c3.4-4.9,4.6-11.3,4.7-17.4c1.9,2.5,4.5,4.2,7.4,5.4
				c1.4,0.5,2.9,1,4.4,1.2c1.7,0.3,3.4,0.5,5.1,0.6c6.1,0.3,12.1-0.4,18.2,1c2.1,0.5,5,1.3,7.6,2.6c1.5,0.8,2.9,1.7,3.9,2.8
				c1.2,1.2,1.9,2.7,1.9,4.4c0,1.5,2.3,1.5,2.3,0c0-1,0-2,0.1-3h0c2.4-0.4,3.8,0.6,4.6,1.6c1.2,1.6,1.5,4.1,0.6,6
				c-0.6,1.4-2.1,3-5.6,3.2l-1.8,0.1l-0.1,1.8C1776.2,622.6,1774.4,653.2,1749.2,654.9z"/>
			<path fill="#FFFFFF" d="M1749.8,701c-1,0-2-0.4-2.7-1.2l-6.6-6.8c-0.7-0.7-1-1.8-0.9-2.8l6.1-26.9l-2.4-3.7
				c-0.3-0.3-0.6-0.8-0.7-1.3c-2.7-0.7-5.1-1.7-7.2-3l-16.6,4.9c-1.8,0.5-3.6,1.5-5.1,2.7c-2.7,2.2-4.5,5.4-5.1,8.8l-3.7,22.5
				c-0.2,1.4-1.6,2.4-3,2.2c-1.4-0.2-2.4-1.6-2.2-3l3.7-22.5c0.5-2.8,1.5-5.5,3.2-7.9c1.6-2.3,3.5-4.2,5.9-5.6
				c1.5-1,3.2-1.7,4.8-2.2l12.9-3.8c-2.7-2.6-5.1-5.9-7.1-9.7c-0.8-1.6-1.6-3.3-2.2-5c-2-5.4-2.9-10.4-3.2-13.1
				c-3.3-0.7-5.8-2.6-7.1-5.4c-0.7-1.4-1-3.1-0.9-4.8c0.1-1.7,0.5-3.3,1.2-4.7c0.3-0.5,0.6-1,0.9-1.4c0.3-0.4,0.7-0.8,1.1-1.2
				c-0.4-5.2,0-11,1.3-18.3l0.7-0.1l-0.6-0.1c0.2-1.4,0.6-3,1-4.6c0.9-3,2.1-5.1,3.9-6.6c1.2-0.9,2.5-1.2,3.8-1.4
				c0.5-0.1,1-0.2,1.5-0.3c1.7-3.5,5.1-5.8,10.4-7.1c1.5-0.4,3-0.6,4.6-0.8c0.7-0.1,1.5-0.1,2.2-0.2c6.1-1.5,13.8-1.2,20,0.7
				c3.7,1.1,7.2,3,10.3,5.2c2,1.5,3.9,3.3,5.4,5.1c2.9,3.6,4.7,7.6,5.3,11.9c1.3,5,1.4,10.5,1.2,15.2c1.1,0.6,2.1,1.4,2.8,2.4
				c2.3,3,2.7,7.3,1.1,10.7c-1.3,2.9-3.9,4.8-7.3,5.5c-0.7,5.6-3.1,18.1-11.5,26.8l16,4.7c7.2,2.1,12.6,8.3,13.9,15.7l3.7,22.5
				c0.2,1.4-0.7,2.8-2.2,3c-1.6,0.3-2.8-0.7-3-2.2l-3.7-22.5c-0.9-5.4-4.9-10-10.2-11.5l-16.6-4.9c-0.3-0.1-0.7-0.2-1.2-0.4
				c-0.4-0.2-0.9-0.3-1.3-0.5c-2.2,1.6-4.4,2.6-7.4,3.6c-0.1,0.6-0.4,1.2-0.9,1.7l-2.3,3.5l6.1,26.9c0.2,1.1-0.1,2.1-0.8,2.8
				l-6.6,6.8C1751.8,700.6,1750.8,701,1749.8,701z M1735.5,654.1l0.2,0.1c2.3,1.4,4.8,2.4,7.6,3.1l0.4,0.1l0.1,0.4
				c0,0.4,0.2,0.8,0.5,1.1l2.8,4.3l-0.1,0.3l-6.2,27.1c-0.1,0.6,0.1,1.2,0.5,1.6l6.6,6.8c0.9,1,2.7,1,3.6,0l6.6-6.8
				c0.4-0.4,0.6-1.1,0.5-1.7l-6.2-27.4l2.7-4.1c0.5-0.5,0.7-0.9,0.6-1.4l0-0.5l0.5-0.1c3.2-1,5.4-2,7.7-3.7l0.3-0.2l0.3,0.1
				c0.6,0.2,1.2,0.4,1.7,0.6c0.5,0.2,0.9,0.3,1.1,0.4l16.6,4.9c5.8,1.7,10.1,6.6,11.1,12.5l3.7,22.5c0.1,0.7,0.8,1.2,1.5,1.1
				c0.7-0.1,1.2-0.8,1.1-1.5l-3.7-22.5c-1.1-6.9-6.2-12.7-13-14.7l-18.1-5.4l0.8-0.8c9.2-8.9,11.5-23.1,12-27.3l0.1-0.5l0.5-0.1
				c3.2-0.6,5.6-2.3,6.8-4.9c1.4-3,1-6.8-1-9.4c-0.7-1-1.7-1.7-2.8-2.2l-0.4-0.2l0-0.4c0.2-4.7,0.2-10.3-1.2-15.3
				c-0.6-4.1-2.3-7.9-5-11.3c-1.5-1.8-3.2-3.5-5.2-4.9c-3-2.2-6.4-3.9-9.9-5c-6-1.9-13.2-2.1-19.4-0.7c-0.8,0.1-1.5,0.1-2.3,0.2
				c-1.5,0.2-3,0.4-4.4,0.7c-5,1.2-8.2,3.4-9.6,6.6l-0.1,0.3l-0.3,0.1c-0.6,0.2-1.3,0.3-1.9,0.4c-1.2,0.2-2.3,0.4-3.2,1.1
				c-1.6,1.3-2.7,3.2-3.5,5.9c-0.4,1.5-0.7,3.1-1,4.5l0,0.2c-1.3,7.3-1.8,13.1-1.3,18.3l0,0.3l-0.3,0.2c-0.5,0.4-0.9,0.8-1.2,1.2
				c-0.3,0.3-0.5,0.7-0.8,1.2c-0.7,1.3-1,2.7-1.1,4.2c0,1.5,0.2,2.9,0.8,4.2c1.2,2.5,3.5,4.2,6.6,4.8l0.5,0.1l0.1,0.5
				c0.2,2,1,7.4,3.2,13.2c0.6,1.7,1.3,3.3,2.1,4.8c2.1,4.1,4.6,7.5,7.6,10.1l0.7,0.6l-0.9,0.4c-0.1,0.1-0.2,0.1-0.2,0.1l-13.8,4.1
				c-1.6,0.5-3.1,1.1-4.5,2.1c-2.2,1.4-4,3.1-5.5,5.3c-1.5,2.3-2.5,4.7-3,7.4l-3.7,22.5c-0.1,0.7,0.4,1.4,1.1,1.5
				c0.8,0.1,1.4-0.4,1.5-1.1l3.7-22.5c0.6-3.7,2.6-7.1,5.5-9.6c1.7-1.4,3.5-2.4,5.6-3L1735.5,654.1z M1749.8,698.7
				c-0.4,0-0.8-0.2-1.1-0.5l-6.6-6.8c-0.2-0.2-0.3-0.4-0.3-0.6l6-26.2l0.8,0.4c0.9,0.5,1.6,0.5,2.5,0l0.8-0.5l5.9,26
				c0,0.3,0,0.6-0.2,0.8l-6.6,6.8C1750.6,698.5,1750.2,698.7,1749.8,698.7z M1743.2,690.7l6.5,6.6c0.1,0.1,0.1,0.1,0.2,0.1l6.6-6.7
				l-5.5-24.2c-0.7,0.3-1.5,0.3-2.2,0L1743.2,690.7z M1749.8,664.4c-0.2,0-0.4,0-0.7-0.1l-0.2-0.1l-4.2-6.6l1.4,0.2
				c1,0.1,1.9,0.3,2.9,0.3h0.2c1.4-0.1,2.9-0.3,4.3-0.5l1.5-0.3l-4.5,6.8l-0.2,0.1C1750.2,664.4,1749.9,664.4,1749.8,664.4z
				 M1747.3,659.3l2.4,3.8l2.6-3.9c-1,0.2-2,0.3-3,0.3l-0.2,0c-0.1,0-0.1,0-0.2,0C1748.4,659.4,1747.9,659.4,1747.3,659.3z
				 M1749.2,655.5c-3.6-0.2-6.9-1.1-9.8-2.4c-1.1-0.5-2.1-1.1-3-1.6c-0.5-0.3-0.8-0.6-1.1-0.8l-0.4-0.3c-3.9-3-7-7.1-9.3-12.3
				c-0.8-1.7-1.4-3.5-2-5.6c-1.8-6.1-2-10.9-2-11.1l-0.1-1.2l-1.2,0c-2.9-0.1-5-1.3-6-3.4c-0.3-0.7-0.5-1.6-0.5-2.6
				c0-1.6,0.4-3.1,1.3-4.2c0.2-0.2,0.4-0.4,0.6-0.6c1.2-1.2,2.7-1.7,4.8-1.3l0.6,0l0.2,0.6c0,0.6,0.1,1.2,0.1,1.8l0,0.3
				c0,0.5,0.1,0.9,0.1,1.3c0.4-0.5,0.7-0.9,1.1-1.4c2.9-4.1,4.4-9.8,4.6-17l0-1.8l1.1,1.5c1.7,2.3,4.1,4,7.1,5.2
				c1.3,0.5,2.7,0.9,4.3,1.2c1.6,0.3,3.3,0.5,5,0.6c1.6,0.1,3.2,0.1,4.5,0.1l3.1,0c3.4,0,7,0.1,10.7,0.9c3,0.7,5.6,1.6,7.7,2.7
				c1.7,0.9,3.1,1.9,4.1,3c1.4,1.5,2.1,3.1,2.1,4.9c0,0.4,0.4,0.5,0.5,0.5c0.1,0,0.5,0,0.5-0.5l0.1-4l0.7,0.4c2.7-0.4,4.2,0.9,5,1.9
				c1.4,1.8,1.7,4.5,0.7,6.7c-0.7,1.5-2.4,3.4-6.1,3.5l-1.2,0.1l-0.1,1.2C1776.8,622.7,1775,653.8,1749.2,655.5z M1719.2,609.1
				c-1.1,0-2,0.4-2.7,1.1c-0.2,0.2-0.3,0.3-0.5,0.5c-0.7,0.9-1,2.1-1,3.4c0,0.8,0.2,1.5,0.4,2.1c1,2.1,3.2,2.6,4.9,2.7l2.4,0.1
				l0.1,2.4c0,0,0.2,4.9,2,10.8c0.6,2,1.2,3.7,2,5.4c2.2,5,5.2,8.9,8.9,11.8l0.4,0.3c0.3,0.2,0.6,0.5,1,0.7c0.9,0.6,1.9,1.1,2.9,1.6
				c2.8,1.3,5.9,2.1,9.3,2.3c24.6-1.6,26.3-31.6,26.4-32.9l0.1-2.4l2.4-0.1c3.1-0.1,4.5-1.6,5-2.8c0.8-1.7,0.6-3.9-0.5-5.3
				c-0.8-1.1-1.9-1.6-3.4-1.4l0,2.4c0,2.3-3.5,2.3-3.6,0c0-1.5-0.6-2.8-1.8-4c-0.9-1-2.2-1.9-3.8-2.7c-2-1-4.5-1.9-7.4-2.6
				c-3.6-0.8-7.1-0.9-10.4-0.9l-3.1,0c-1.3,0-2.9,0-4.6-0.1c-1.8-0.1-3.5-0.3-5.2-0.6c-1.6-0.3-3.2-0.8-4.5-1.3
				c-2.7-1-4.9-2.5-6.6-4.3c-0.4,6.7-2,12.1-4.8,16.1c-0.4,0.5-0.8,1.1-1.2,1.6c-0.3,0.3-0.8,0.6-1.2,0.6c-0.6,0-1-0.4-1-1
				c0-0.5,0-1.1-0.1-1.7l0-0.3c0-0.4-0.1-0.9-0.1-1.3C1719.6,609.1,1719.4,609.1,1719.2,609.1z"/>
		</g>
		<path fill="#FFFFFF" d="M1879.5,776.5h-7v-57.6h-241.1v57.6h-8.6c-7.8,0-14.1,6.3-14.1,14.1v23.5c0,7.8,6.3,14.1,14.1,14.1h23.5
			c7.8,0,14.1-6.3,14.1-14.1v-23.5c0-7.8-6.3-14.1-14.1-14.1h-8.6v-51.2H1748v51.2h-8.6c-7.8,0-14.1,6.3-14.1,14.1v23.5
			c0,7.8,6.3,14.1,14.1,14.1h23.5c7.8,0,14.1-6.3,14.1-14.1v-23.5c0-7.8-6.3-14.1-14.1-14.1h-8.6v-51.2h111.7v51.2h-10.1
			c-7.8,0-14.1,6.3-14.1,14.1v23.5c0,7.8,6.3,14.1,14.1,14.1h23.5c7.8,0,14.1-6.3,14.1-14.1v-23.5
			C1893.5,782.8,1887.2,776.5,1879.5,776.5z M1654.1,814.1c0,4.2-3.4,7.7-7.7,7.7h-23.5c-4.2,0-7.7-3.4-7.7-7.7v-23.5
			c0-4.2,3.4-7.7,7.7-7.7h23.5c4.2,0,7.7,3.4,7.7,7.7V814.1z M1770.6,814.1c0,4.2-3.4,7.7-7.7,7.7h-23.5c-4.2,0-7.7-3.4-7.7-7.7
			v-23.5c0-4.2,3.4-7.7,7.7-7.7h23.5c4.2,0,7.7,3.4,7.7,7.7V814.1z M1848.2,790.6c0-4.2,3.4-7.7,7.7-7.7h23.5c4.2,0,7.7,3.4,7.7,7.7
			v23.5c0,4.2-3.4,7.7-7.7,7.7h-23.5c-4.2,0-7.7-3.4-7.7-7.7V790.6z"/>
	</g>
	<g>
		<path fill="#FFFFFF" d="M719.6,408.1c3,0,5.4-0.5,7.8-1.8l-0.7-1.9c-1.8,1-4.1,1.5-6.7,1.5c-6.5,0-11.3-4.5-11.3-11.9
			c0-8.9,6-14.6,13.2-14.6c6.8,0,10.7,4.6,10.7,11c0,5.1-2.5,8.1-4.8,8.1c-1.5,0-2-1.6-1.3-4.9l1.5-8c-1.1-0.5-2.8-0.9-4.7-0.9
			c-6.1,0-10.4,5-10.4,10.4c0,3.5,2.2,5.5,4.8,5.5c2.6,0,4.7-1.3,6.2-3.9h0.2c-0.1,2.7,1.5,3.9,3.3,3.9c4.1,0,7.8-3.9,7.8-10.5
			c0-7.4-5.2-12.7-12.8-12.7c-9.8,0-16.1,7.8-16.1,16.9C706.3,402.8,712.4,408.1,719.6,408.1z M724.1,392.2c-0.5,2.7-2.8,6-5.4,6
			c-1.9,0-2.9-1.4-2.9-3.3c0-4.3,3.1-7.9,7-7.9c1,0,1.8,0.2,2.2,0.3L724.1,392.2z"/>
		<rect x="746" y="379.5" fill="#FFFFFF" width="55.5" height="2.9"/>
		<rect x="746" y="390.9" fill="#FFFFFF" width="63.1" height="2.9"/>
		<rect x="746" y="402.2" fill="#FFFFFF" width="76.8" height="2.9"/>
		<rect x="704.4" y="455.6" fill="#FFFFFF" width="131.8" height="2.9"/>
		<rect x="704.4" y="471.2" fill="#FFFFFF" width="131.8" height="2.9"/>
		<rect x="704.4" y="486.7" fill="#FFFFFF" width="131.8" height="2.9"/>
		<rect x="704.4" y="502.2" fill="#FFFFFF" width="131.8" height="2.9"/>
		<rect x="704.4" y="517.7" fill="#FFFFFF" width="131.8" height="2.9"/>
		<rect x="704.4" y="533.2" fill="#FFFFFF" width="80.6" height="2.9"/>
		<path fill="#FFFFFF" d="M836.4,419.6h-132v21.5h132V419.6z M719.4,431.7h-6.1v-2.8h6.1V431.7z M731.5,431.7h-6.1v-2.8h6.1V431.7z
			 M743.6,431.7h-6.1v-2.8h6.1V431.7z M755.7,431.7h-6.1v-2.8h6.1V431.7z M767.8,431.7h-6.1v-2.8h6.1V431.7z M779.9,431.7h-6.1v-2.8
			h6.1V431.7z M792,431.7H786v-2.8h6.1V431.7z M804.1,431.7h-6.1v-2.8h6.1V431.7z M816.2,431.7h-6.1v-2.8h6.1V431.7z M828.3,431.7
			h-6.1v-2.8h6.1V431.7z"/>
		<path fill="#FFFFFF" d="M688,577.4V353.6h21.4v-15.7h155.4v231.7h-41.3l-1.3-0.1l-9.6,7.9H688z M691.5,573.9h118.8v-32.6h39V357.1
			H691.5V573.9z M813.8,572l33.1-27.2h-33.1V572z M826.2,566.2h35.3V341.3H712.8v12.3h140v190.7L826.2,566.2z"/>
	</g>
	<g>
		<path fill="#FFFFFF" d="M290.7,1122.7c-8.6,0-15.6-7-15.6-15.6v-109c0-8.6,7-15.6,15.6-15.6h167.8c8.6,0,15.6,7,15.6,15.6v109
			c0,8.6-7,15.6-15.6,15.6H290.7z M290.7,986.3c-6.5,0-11.8,5.3-11.8,11.8v109c0,6.5,5.3,11.8,11.8,11.8h167.8
			c6.5,0,11.8-5.3,11.8-11.8v-109c0-6.5-5.3-11.8-11.8-11.8H290.7z"/>
		<path fill="#FFFFFF" d="M289.6,1106.8h169.9V999.7H289.6V1106.8z M291.9,1001.9h165.4v102.6H291.9V1001.9z"/>
		<path fill="#FFFFFF" d="M480,1135.3H269.2c-4.1,0-7.5-3.4-7.5-7.5l0,0c0-4.1,3.4-7.5,7.5-7.5H480c4.1,0,7.5,3.4,7.5,7.5l0,0
			C487.5,1132,484.1,1135.3,480,1135.3z"/>
		<path fill="#FFFFFF" d="M410.1,1131.6h-71c-1.2,0-2.2-1-2.2-2.2l0,0c0-1.2,1-2.2,2.2-2.2h71c1.2,0,2.2,1,2.2,2.2l0,0
			C412.3,1130.6,411.3,1131.6,410.1,1131.6z"/>
		<path fill="#FFFFFF" d="M390.6,1033.6c0,1,0.5,1.7,1.6,1.7c1.4,0,2.7-1.7,3-3l0.5-2.5c-0.2-0.1-0.7-0.2-1.2-0.2
			C392.3,1029.6,390.6,1031.5,390.6,1033.6z"/>
		<path fill="#FFFFFF" d="M409.8,1021.6h-67.3c-5,0-9.1,4.1-9.1,9.1v34.3c0,5,4.1,9.1,9.1,9.1h29.8l11.4,12.9
			c0.5,0.8,1.7,0.4,1.7-0.5v-12.4h24.4c5,0,9.1-4.1,9.1-9.1v-34.3C418.9,1025.7,414.8,1021.6,409.8,1021.6z M394.2,1027.7
			c4.3,0,7.1,2.7,7.1,6.5c0,3.4-2.1,5.3-4.4,5.3c-1,0-1.9-0.6-1.8-2h-0.1c-0.9,1.3-2,2-3.5,2c-1.4,0-2.6-1.1-2.6-2.8
			c0-2.8,2.4-5.3,5.8-5.3c1.1,0,2,0.2,2.6,0.5l-0.8,4.1c-0.4,1.7-0.1,2.5,0.7,2.5c1.2,0,2.6-1.5,2.6-4.1c0-3.2-2.1-5.6-5.9-5.6
			c-4,0-7.3,2.9-7.3,7.4c0,3.7,2.7,6,6.3,6c1.4,0,2.7-0.3,3.7-0.8l0.4,1c-1.3,0.6-2.7,0.9-4.4,0.9c-4,0-7.4-2.7-7.4-7
			C385.3,1031.7,388.8,1027.7,394.2,1027.7z M348.2,1033.9h30.9v3.2h-30.9V1033.9z M403.7,1062.4h-55.5v-3.2h55.5V1062.4z
			 M403.7,1049.8h-55.5v-3.2h55.5V1049.8z"/>
		<g>
			<circle fill="#FFFFFF" cx="378.2" cy="962.4" r="9.5"/>
			<path fill="#FFFFFF" d="M378.2,932.7c-7.8,0-13.2,2.9-16.8,6.3c-0.8,0.8-0.9,2.1-0.2,3l3,3.7c0.8,1,2.3,1.1,3.2,0.2
				c2.8-2.7,6.4-4.1,10.7-4.1c5.7,0,9.2,2.1,11.5,4.6c0.9,1,2.5,0.9,3.3-0.1l3-3.7c0.7-0.9,0.6-2.1-0.1-2.9
				C392.3,936,386.8,932.7,378.2,932.7z"/>
			<path fill="#FFFFFF" d="M349.4,927.5l2.9,3.5c0.8,1,2.2,1.1,3.2,0.3c6.2-5.2,14-7.9,23.3-7.9c10.7,0,18.2,3.3,23.4,7.7
				c1,0.8,2.4,0.7,3.2-0.3l2.9-3.6c0.8-1,0.6-2.4-0.3-3.2c-6.5-5.4-15.8-9.7-29.2-9.7c-13.1,0-22.5,4.5-29.1,10
				C348.7,925.1,348.6,926.6,349.4,927.5z"/>
			<path fill="#FFFFFF" d="M337.5,913l2.6,3.2c0.9,1.1,2.5,1.2,3.5,0.3c9.6-8.1,21.6-12.2,35.9-12.2c14.2,0,26,3.7,35.2,11
				c1.1,0.9,2.6,0.7,3.5-0.4l2.6-3.2c0.9-1.1,0.7-2.7-0.4-3.5c-9.2-7.3-22.3-13-40.8-13c-18.9,0-32.3,6.4-41.7,14.3
				C336.7,910.4,336.6,911.9,337.5,913z"/>
			<path fill="#FFFFFF" d="M429.8,900.4l2.5-3.2c0.9-1.1,0.7-2.6-0.4-3.5c-3-2.5-6.2-4.8-9.6-6.8c-12.1-7.1-26.5-10.6-42.9-10.6
				c-15.8,0-29.9,3.6-41.9,10.6c-4.1,2.4-7.9,5.2-11.5,8.4c-1,0.9-1.1,2.4-0.3,3.5l2.6,3.1c0.9,1.1,2.6,1.2,3.7,0.3
				c12.5-11.1,28.4-16.8,47.5-16.8c19.1,0,34.7,5.2,46.8,15.4C427.3,901.7,428.9,901.5,429.8,900.4z"/>
		</g>
	</g>
	<g>
		<path fill="#FFFFFF" d="M1249.7,211.2h-236.6v22h10.7v138.4h101.7l-34,53.4c-1,1.6-0.5,3.7,1,4.7c0.6,0.4,1.2,0.5,1.8,0.5
			c1.1,0,2.2-0.6,2.9-1.6l32.7-51.3v51.9c0,1.9,1.5,3.4,3.4,3.4c1.9,0,3.4-1.5,3.4-3.4v-50.7l32.2,50.6c0.6,1,1.7,1.6,2.9,1.6
			c0.6,0,1.3-0.2,1.8-0.5c1.6-1,2-3.1,1-4.7l-34.3-53.9h98.7V233.2h10.6V211.2z M1232.4,364.9h-201.7V233.2h201.7V364.9z"/>
		<path fill="#FFFFFF" d="M1104.5,280.3c-5-6.4-12.8-10.6-21.6-10.6c-15.1,0-27.4,12.3-27.4,27.4c0,15.1,12.3,27.4,27.4,27.4
			c7.8,0,14.8-3.3,19.8-8.5l-19.8-18.9L1104.5,280.3z"/>
		<path fill="#FFFFFF" d="M1109.4,280.3l-21.6,16.8l19.8,18.9c4.7-4.9,7.6-11.6,7.6-18.9C1115.2,290.8,1113,284.9,1109.4,280.3z"/>
		<path fill="#FFFFFF" d="M1212.8,271.1h-75.4c-0.8,0-1.5-0.7-1.5-1.5l0,0c0-0.8,0.7-1.5,1.5-1.5h75.4c0.8,0,1.5,0.7,1.5,1.5l0,0
			C1214.3,270.4,1213.6,271.1,1212.8,271.1z"/>
		<path fill="#FFFFFF" d="M1212.8,297h-75.4c-0.8,0-1.5-0.7-1.5-1.5l0,0c0-0.8,0.7-1.5,1.5-1.5h75.4c0.8,0,1.5,0.7,1.5,1.5l0,0
			C1214.3,296.4,1213.6,297,1212.8,297z"/>
		<path fill="#FFFFFF" d="M1212.8,323h-75.4c-0.8,0-1.5-0.7-1.5-1.5l0,0c0-0.8,0.7-1.5,1.5-1.5h75.4c0.8,0,1.5,0.7,1.5,1.5l0,0
			C1214.3,322.3,1213.6,323,1212.8,323z"/>
	</g>
	<g>
		<g>
			<path fill="#FFFFFF" d="M1819,1163.7c-0.2,1.5,0.8,2.9,2.2,3.1c0.2,0,0.3,0,0.4,0c1.3,0,2.5-0.9,2.7-2.3l5.1-30.8
				c1.3-7.8,7-14.3,14.6-16.5l22.8-6.7c0.8-0.2,2.3-0.9,3.9-1.4c3.3,2.4,6.4,3.9,10.9,5.2c0,0.9,0.3,1.7,1,2.4l3.4,5.3l-8.4,37.2
				c-0.2,1.2,0.2,2.3,0.9,3.1l9.1,9.3c0.8,0.8,1.9,1.3,3.1,1.3h0c1.2,0,2.3-0.5,3.1-1.3l9.1-9.3c0.8-0.8,1.1-1.9,0.9-3l-8.5-37.1
				l3.5-5.4c0.6-0.6,0.9-1.3,1-2c3.9-1,7.3-2.4,10.4-4.2c0.1,0,0.1-0.1,0.2-0.1l23.1,6.8c2.7,0.8,5.2,2.2,7.3,3.9
				c3.8,3.1,6.4,7.6,7.3,12.6l5.1,30.8c0.2,1.3,1.4,2.3,2.7,2.3c0.1,0,0.3,0,0.4,0c1.5-0.2,2.5-1.6,2.2-3.1l-5.1-30.8
				c-0.6-3.8-2.1-7.3-4.2-10.4c-2-3-4.7-5.5-7.8-7.5c-2-1.2-4.1-2.2-6.4-2.9l-18.9-5.6c-0.1,0-0.2-0.1-0.2-0.1
				c4.6-4.1,8-9,10.6-14.1c1.1-2.2,2.1-4.5,2.9-6.7c2.9-7.7,4-14.8,4.4-18.3c4.5-0.8,7.9-3.3,9.7-7c0.9-1.9,1.3-4,1.2-6.1
				c-0.1-2.1-0.6-4.2-1.6-6.1c-0.3-0.6-0.7-1.2-1.1-1.8c-0.5-0.7-1.1-1.3-1.8-1.9c0.7-8.3-0.3-17.1-1.8-25.3c0-0.1,0-0.2-0.1-0.3
				c-0.4-2.1-0.8-4.2-1.4-6.2c-0.9-3.3-2.4-6.3-5.1-8.5c-2.1-1.7-4.9-1.5-7.4-2.2c-2.4-5.3-7.7-8.1-13.8-9.6c-2-0.5-4.1-0.8-6.1-1
				c-1-0.1-2-0.2-3-0.2c-9-2.1-19-1.6-27.1,0.9c-5,1.5-9.7,4-13.9,7c-2.7,2-5.1,4.3-7.2,6.9c-3.7,4.5-6.2,9.9-7.1,15.8
				c-1.7,6.7-1.9,13.9-1.6,21.2c-1.6,0.8-3,1.9-4.1,3.3c-2.9,3.8-3.5,9.4-1.4,13.8c1.8,3.9,5.4,6.4,10,7.2c0.7,6.6,4,25.6,16.7,37.9
				l-23.3,6.9c-9.5,2.8-16.8,11-18.4,20.8L1819,1163.7z M1880.6,1159.7l7.8-34.5c0.6,0.4,1.4,0.6,2.2,0.6c0.8,0,1.5-0.2,2.1-0.6
				l7.9,34.6c0,0,0,0.2-0.1,0.2l-9.1,9.3c-0.2,0.2-0.5,0.4-0.8,0.4c-0.3,0-0.6-0.1-0.8-0.4l-9.1-9.3
				C1880.6,1160,1880.6,1159.9,1880.6,1159.7z M1885.3,1115.2c1.9,0.4,3.9,0.6,6,0.8c0.1,0,0.1,0,0.2,0h0h0h0h0c0.1,0,0.1,0,0.2,0
				c1.4-0.1,2.8-0.3,4.1-0.5l-4.6,7.1c-0.3,0.1-0.8,0.1-1.1,0L1885.3,1115.2z M1854.4,1064.6l-0.1-2.5l-2.5-0.1
				c-4.7-0.2-6.8-2.5-7.7-4.4c-1.2-2.6-0.9-6,0.8-8.2c1-1.3,2.9-2.8,6.3-2.2c0,0,0,0,0,0c0,1.4,0.1,2.7,0.1,4.1c0,2,3.1,2,3.2,0
				c0-2.4,1.1-4.4,2.7-6.1c1.4-1.5,3.3-2.8,5.4-3.9c3.5-1.8,7.4-2.9,10.4-3.6c8.3-2,16.5-0.9,24.9-1.4c2.3-0.1,4.7-0.4,6.9-0.9
				c2.1-0.4,4.1-1,6-1.7c4-1.6,7.5-3.9,10.1-7.4c0.2,8.3,1.8,17.1,6.5,23.8c0.5,0.7,1,1.4,1.6,2.1c0.5,0.5,1.5,0.8,1.5,0.1
				c0-0.8,0.1-1.8,0.2-2.8c0.1-0.9,0.1-1.8,0.1-2.6c0.1,0,0.2,0,0.3,0c2.8-0.5,4.6,0.5,5.8,1.6c0.3,0.3,0.5,0.5,0.7,0.8
				c1.1,1.5,1.6,3.4,1.6,5.2c0,1.1-0.2,2.2-0.6,3.2c-1.2,2.6-3.8,4-7.4,4.2l-2.5,0.1l-0.1,2.5c0,0.7-0.4,7.1-2.8,15
				c-0.7,2.4-1.6,5-2.7,7.5c-2.7,6-6.6,12-12.5,16.5c-0.6,0.5-1.2,1-1.9,1.4c-0.1,0-0.1,0.1-0.1,0.1c-1.2,0.8-2.6,1.5-4,2.2
				c-3.7,1.7-8,2.9-13,3.2C1856.9,1108.3,1854.5,1066.4,1854.4,1064.6z"/>
			<rect x="1845.9" y="1148.9" fill="#FFFFFF" width="21.9" height="3.4"/>
		</g>
		<path fill="#FFFFFF" d="M1908.8,947.6v50.1c0,10.5,8.5,18.9,18.9,18.9h29.9v19c0,3.2,4.1,4.7,6.1,2.1l17-21.2h45.1
			c10.5,0,18.9-8.5,18.9-18.9v-50.1c0-10.5-8.5-18.9-18.9-18.9h-98.2C1917.2,928.7,1908.8,937.1,1908.8,947.6z M1927.7,1011
			c-7.3,0-13.3-6-13.3-13.3v-50.1c0-7.3,6-13.3,13.3-13.3h98.2c7.3,0,13.3,6,13.3,13.3v50.1c0,7.3-6,13.3-13.3,13.3H1978l-14.7,18.4
			V1011H1927.7z"/>
		<rect x="1940.6" y="953.5" fill="#FFFFFF" width="73.4" height="2.2"/>
		<rect x="1940.6" y="970" fill="#FFFFFF" width="73.4" height="2.2"/>
		<rect x="1940.6" y="988.5" fill="#FFFFFF" width="73.4" height="2.2"/>
	</g>
</g>
</svg>
