<?xml version="1.0" encoding="utf-8"?>
<!-- Generator: Adobe Illustrator 17.0.0, SVG Export Plug-In . SVG Version: 6.00 Build 0)  -->
<!DOCTYPE svg PUBLIC "-//W3C//DTD SVG 1.1//EN" "http://www.w3.org/Graphics/SVG/1.1/DTD/svg11.dtd">
<svg version="1.1" xmlns="http://www.w3.org/2000/svg" xmlns:xlink="http://www.w3.org/1999/xlink" x="0px" y="0px" width="2272px"
	 height="1872px" viewBox="0 0 2272 1872" enable-background="new 0 0 2272 1872" xml:space="preserve">
<g id="background">
	<g>
		<g>
			<g>
				<rect x="-189" y="-102.285" fill="#9FDBBD" width="2650" height="1974.285"/>
				<linearGradient id="SVGID_1_" gradientUnits="userSpaceOnUse" x1="1136" y1="361" x2="1136" y2="1481.0286">
					<stop  offset="0" style="stop-color:#5DD4B0"/>
					<stop  offset="1" style="stop-color:#9FDBBD"/>
				</linearGradient>
				<polygon fill="url(#SVGID_1_)" points="2137,749.466 2137,251.751 2049.246,329.758 2049.246,422.768 1976.265,422.768 
					1976.265,725 1910.258,725 1910.258,542.78 1847.252,542.78 1847.252,631.62 1771.639,678.31 1771.639,522.44 1682.236,522.44 
					1682.236,770.992 1604.531,678.31 1604.531,467.772 1486.027,467.772 1486.027,557.781 1401.121,557.781 1331.657,631.62 
					1331.657,724.629 1136,724.629 1136,659.791 940.343,659.791 940.343,525.235 870.879,455.771 785.973,455.771 785.973,365.762 
					667.469,365.762 667.469,678.31 589.764,678.31 589.764,857.305 500.361,857.305 500.361,631.62 424.748,631.62 424.748,542.78 
					361.742,542.78 361.742,725 295.735,725 295.735,644.79 222.754,644.79 222.754,491.029 135,578.783 135,749.466 0,749.466 
					0,1872 1136,1872 1136,1872 2272,1872 2272,749.466 				"/>
				
					<linearGradient id="SVGID_2_" gradientUnits="userSpaceOnUse" x1="1136" y1="485.419" x2="1136" y2="1075.7813" gradientTransform="matrix(-1 0 0 1 2272 0)">
					<stop  offset="0" style="stop-color:#009F85"/>
					<stop  offset="1" style="stop-color:#5DD4B0"/>
				</linearGradient>
				<polygon fill="url(#SVGID_2_)" points="-250.068,1249.912 -250.068,560.734 -128.556,668.75 -128.556,797.539 -27.501,797.539 
					-27.501,1216.034 63.898,1216.034 63.898,963.717 151.141,963.717 151.141,1086.732 255.842,1151.383 255.842,935.553 
					379.637,935.553 379.637,1279.719 487.233,1151.383 487.233,859.856 651.324,859.856 651.324,984.489 768.891,984.489 
					865.076,1086.732 865.076,1215.521 1136,1215.521 1136,1125.741 1406.924,1125.741 1406.924,939.423 1503.109,843.238 
					1620.676,843.238 1620.676,718.604 1784.767,718.604 1784.767,1151.383 1892.363,1151.383 1892.363,1399.234 2016.158,1399.234 
					2016.158,1086.732 2120.859,1086.732 2120.859,963.717 2208.102,963.717 2208.102,1216.034 2299.501,1216.034 
					2299.501,1104.969 2400.556,1104.969 2400.556,892.059 2522.068,1013.571 2522.068,1249.912 2709,1249.912 2709,1873.398 
					1136,1873.398 1136,1873.398 -437,1873.398 -437,1249.912 				"/>
				<polyline opacity="0.2" fill="#FFFFFF" points="1128.945,-3.757 0,1872 0,-3.757 				"/>
				<polyline opacity="0.2" fill="#FFFFFF" points="2271.278,-3.757 1142.333,1872 1142.333,-3.757 				"/>
			</g>
			<rect x="-107.916" y="1749" fill="#4F1D1C" width="2650" height="124.398"/>
		</g>
		<rect x="1129.667" y="-102.285" fill="#351212" width="12.667" height="1974.285"/>
	</g>
</g>
<g id="business_man">
	<g>
		<path fill="#6F2928" d="M1591.865,1154.841c0,139.19-112.836,252.025-252.025,252.025H919.494
			c-139.19,0-252.025-112.836-252.025-252.025l0,0c0-139.19,112.836-252.025,252.025-252.025h420.345
			C1479.029,902.816,1591.865,1015.651,1591.865,1154.841L1591.865,1154.841z"/>
		<ellipse fill="#061E2A" cx="1136" cy="1309" rx="483" ry="440"/>
		<g>
			<path fill="#061E2A" d="M1774.216,1407c-52.467,0-95-42.533-95-95c0-35.949-32.21-63.803-51.41-77.206
				c-42.918-29.96-104.081-47.144-167.806-47.144c-52.467,0-95-42.533-95-95s42.533-95,95-95
				c103.197,0,201.416,28.891,276.563,81.35c39.783,27.771,71.479,60.875,94.211,98.391c25.509,42.102,38.442,87.391,38.442,134.609
				C1869.216,1364.467,1826.683,1407,1774.216,1407z"/>
		</g>
		<g>
			<path fill="#061E2A" d="M500.361,1407c-52.467,0-95-42.533-95-95c0-47.219,12.934-92.508,38.443-134.609
				c22.73-37.516,54.427-70.619,94.209-98.391c75.147-52.459,173.365-81.35,276.563-81.35c52.467,0,95,42.533,95,95
				s-42.533,95-95,95c-63.725,0-124.888,17.184-167.805,47.144c-19.201,13.403-51.411,41.257-51.411,77.206
				C595.361,1364.467,552.829,1407,500.361,1407z"/>
		</g>
		<rect x="135" y="1309" fill="#4F1D1C" width="2002" height="160"/>
		<rect x="135" y="1309" fill="#6F2928" width="2002" height="80"/>
		<rect x="321" y="1469" fill="#351212" width="1630" height="403"/>
		<rect x="199" y="1493" fill="#4F1D1C" width="122" height="379"/>
		<rect x="199" y="1493" fill="#6F2928" width="61" height="379"/>
		<rect x="135" y="1469" fill="#4F1D1C" width="250" height="111.884"/>
		<rect x="135" y="1469" fill="#6F2928" width="125" height="111.884"/>
		<rect x="1951" y="1493" fill="#4F1D1C" width="122" height="379"/>
		<rect x="2013" y="1493" fill="#6F2928" width="61" height="379"/>
		<rect x="1887" y="1469" fill="#4F1D1C" width="250" height="111.884"/>
		<polyline fill="#FFFFFF" points="859.538,982.324 823,1076 1129.667,1309 1434.641,1061 1360.328,993.271 		"/>
		<rect x="2012" y="1469" fill="#6F2928" width="125" height="111.884"/>
		<circle fill="#A01F24" cx="1129.667" cy="1170.593" r="51.983"/>
		<polyline fill="#DADADA" points="883.346,995.309 850.271,1080.321 1004.414,1222.576 1129.809,1145.662 1265.844,1222.576 
			1413.057,1078.583 1379.982,970.589 		"/>
		<path fill="#F8BC90" d="M1414.847,890.663c0,157.501-127.679,285.18-285.18,285.18l0,0c-157.501,0-285.18-127.68-285.18-285.18
			V782.956c0-157.501,127.68-285.18,285.18-285.18l0,0c157.501,0,285.18,127.68,285.18,285.18V890.663z"/>
		<path fill="#F8BC90" d="M1477.853,921.008c0,82.851-67.164,150.015-150.015,150.015H931.495
			c-82.851,0-150.015-67.164-150.015-150.015l0,0c0-82.851,67.164-150.015,150.015-150.015h396.343
			C1410.689,770.992,1477.853,838.157,1477.853,921.008L1477.853,921.008z"/>
		<path fill="#351212" d="M1015.807,827.808c0,24.855-20.149,45.005-45.005,45.005l0,0c-24.855,0-45.004-20.149-45.004-45.005
			v-42.004c0-24.855,20.149-45.005,45.004-45.005l0,0c24.855,0,45.005,20.149,45.005,45.005V827.808z"/>
		<path fill="#FFFFFF" d="M1008.474,792.971c0,12.428-10.075,22.502-22.502,22.502l0,0c-12.428,0-22.502-10.075-22.502-22.502
			v-21.002c0-12.428,10.075-22.502,22.502-22.502l0,0c12.428,0,22.502,10.075,22.502,22.502V792.971z"/>
		<path fill="#351212" d="M1328,827.808c0,24.855-20.149,45.005-45.005,45.005l0,0c-24.855,0-45.005-20.149-45.005-45.005v-42.004
			c0-24.855,20.149-45.005,45.005-45.005l0,0c24.855,0,45.005,20.149,45.005,45.005V827.808z"/>
		<path fill="#FFFFFF" d="M1129.667,1049.83c74.566,0,135.014-60.448,135.014-135.013H994.653
			C994.653,989.383,1055.101,1049.83,1129.667,1049.83z"/>
		<path fill="#FFFFFF" d="M1321.14,792.971c0,12.428-10.075,22.502-22.502,22.502l0,0c-12.428,0-22.502-10.075-22.502-22.502
			v-21.002c0-12.428,10.075-22.502,22.502-22.502l0,0c12.428,0,22.502,10.075,22.502,22.502V792.971z"/>
		<g>
			<circle fill="#575756" cx="844.487" cy="798.791" r="58.513"/>
			<circle fill="#575756" cx="828.687" cy="724.478" r="42.192"/>
			<circle fill="#575756" cx="864.299" cy="678.31" r="46.69"/>
		</g>
		<g>
			<circle fill="#575756" cx="1418.841" cy="798.791" r="58.513"/>
			<circle fill="#575756" cx="1434.641" cy="724.478" r="42.192"/>
			<circle fill="#575756" cx="1399.029" cy="678.31" r="46.69"/>
		</g>
		<circle fill="#F8BC90" cx="800.009" cy="836.809" r="72.074"/>
		<circle fill="#FF9A7F" cx="800.009" cy="836.809" r="38.018"/>
		<circle fill="#F8BC90" cx="1454.009" cy="836.809" r="72.074"/>
		<circle fill="#FF9A7F" cx="1454.009" cy="836.809" r="38.018"/>
		<polygon fill="#104559" points="799.334,993.271 799.334,1164.079 870.194,1164.079 870.194,1224.076 1129.667,1309 		"/>
		<polygon fill="#104559" points="1460,993.271 1460,1164.079 1389.139,1164.079 1389.139,1224.076 1129.667,1309 		"/>
		<polygon fill="#A01F24" points="1128.821,1192.578 1067.319,1249.409 1129.667,1309 1190.571,1250.789 		"/>
		<rect x="1785.108" y="1309" fill="#DADADA" width="165.893" height="40"/>
		<rect x="1724.108" y="1263.074" fill="#FFFFFF" width="287.892" height="45.926"/>
		<rect x="1895.959" y="1202.326" fill="#4F1D1C" width="146.667" height="60.749"/>
		<circle fill="#706F6F" cx="1903.959" cy="1232.7" r="30.374"/>
		<circle fill="#F06060" cx="1895.959" cy="1232.7" r="30.374"/>
		<circle fill="#DADADA" cx="1879" cy="1232.7" r="30.374"/>
		<circle fill="#4F1D1C" cx="2042.626" cy="1232.7" r="30.374"/>
		<g>
			<path fill="#FFFFFF" d="M1874.907,1157.902c-2.885,0-5.8-0.831-8.371-2.564c-2.132-1.437-52.228-35.73-54.773-82.649
				c-1.323-24.374,9.951-46.827,33.51-66.734c39.531-33.405,48.159-67.05,48.436-89.392c0.313-25.21-9.819-48.83-27.797-64.802
				c-6.192-5.502-6.753-14.983-1.251-21.176c5.502-6.193,14.982-6.755,21.177-1.251c24.486,21.755,38.289,53.684,37.869,87.601
				c-0.501,40.416-21.479,80.167-59.07,111.934c-16.218,13.705-23.715,27.507-22.917,42.195
				c1.718,31.667,41.189,59.131,41.587,59.399c6.869,4.631,8.684,13.953,4.053,20.822
				C1884.461,1155.583,1879.728,1157.902,1874.907,1157.902z"/>
		</g>
		<g>
			<path fill="#FFFFFF" d="M1835.62,813.791c-3.728,0-7.46-1.38-10.365-4.16l-17.065-16.321c-5.987-5.726-6.199-15.221-0.473-21.208
				c5.726-5.987,15.222-6.199,21.207-0.473l17.065,16.321c5.987,5.726,6.199,15.221,0.473,21.208
				C1843.516,812.239,1839.571,813.791,1835.62,813.791z"/>
		</g>
		<g>
			<path fill="#FFFFFF" d="M1895.963,1111.582c-4.067,0-8.12-1.644-11.08-4.885l-15.217-16.661
				c-5.586-6.116-5.156-15.604,0.961-21.191c6.115-5.585,15.604-5.158,21.191,0.961l15.217,16.661
				c5.586,6.116,5.156,15.604-0.961,21.191C1903.198,1110.285,1899.574,1111.582,1895.963,1111.582z"/>
		</g>
		<g>
			<path fill="#FFFFFF" d="M1855.125,955.004c-1.828,0-3.686-0.336-5.49-1.046c-7.686-3.025-11.476-11.692-8.49-19.384
				c0.54-1.423,11.65-31.688-11.399-47.336c-6.854-4.653-8.639-13.981-3.985-20.835c4.654-6.854,13.982-8.637,20.835-3.986
				c34.451,23.387,29.776,64.569,22.492,83.078C1866.763,951.398,1861.108,955.004,1855.125,955.004z"/>
		</g>
		<rect x="185" y="1069.771" fill="#DADADA" width="341.758" height="239.288"/>
		<rect x="185" y="1069.771" fill="#FFFFFF" width="341.758" height="48.839"/>
		<polyline fill="#FFFFFF" points="185,1175.843 288.633,1175.843 185,1192.578 		"/>
		<polyline fill="#FFFFFF" points="526.758,1232.7 321,1232.7 526.758,1250.789 		"/>
		<polyline fill="#FFFFFF" points="526.758,1145.662 455.124,1145.662 526.758,1162.579 		"/>
		<polyline fill="#FFFFFF" points="185,1263.074 216.636,1263.074 185,1286.037 		"/>
	</g>
</g>
</svg>
