<?xml version="1.0" encoding="utf-8"?>
<!-- Generator: Adobe Illustrator 22.0.1, SVG Export Plug-In . SVG Version: 6.00 Build 0)  -->
<svg version="1.1" id="Layer_2" xmlns="http://www.w3.org/2000/svg" xmlns:xlink="http://www.w3.org/1999/xlink" x="0px" y="0px"
	 viewBox="0 0 2272 1872" style="enable-background:new 0 0 2272 1872;" xml:space="preserve">
<style type="text/css">
	.st0{fill:#DCFAFF;}
	.st1{fill:#E09570;}
	.st2{fill:#B7795E;}
	.st3{fill:#EADF92;}
	.st4{fill:#BF6447;}
	.st5{fill:#D8765B;}
	.st6{fill:#C6B866;}
	.st7{fill:#919191;}
	.st8{fill:#ADADAD;}
	.st9{fill:#6D6D6D;}
	.st10{fill:#8E6454;}
	.st11{fill:#6D4D3E;}
	.st12{fill:#6D7172;}
	.st13{fill:#505354;}
	.st14{fill:#A7A8A8;}
	.st15{fill:#848484;}
	.st16{fill:#C6C6C6;}
	.st17{fill:#A09492;}
	.st18{fill:#BAAFAE;}
	.st19{fill:#897C79;}
	.st20{fill:#5B3E32;}
	.st21{fill:#E2DDAC;}
	.st22{fill:#C1BA7A;}
	.st23{fill:#424242;}
	.st24{fill:#8E7855;}
	.st25{fill:#705D40;}
	.st26{fill:#AF9672;}
	.st27{fill:#B2AFAA;}
	.st28{fill:#D8D8D8;}
	.st29{fill:#F9F5C2;}
	.st30{fill:#A39B62;}
	.st31{fill:#5B5B5B;}
	.st32{fill:#666666;}
	.st33{fill:#85FFB6;}
	.st34{fill:#CCFFE1;}
	.st35{fill:#5FCE8C;}
	.st36{fill:#627C63;}
	.st37{fill:#FFFFFF;}
</style>
<g>
	<path class="st0" d="M1136,157.3L1136,157.3c-522,0-945.1,423.2-945.1,945.1v612.3l1890.3,0v-612.3
		C2081.1,580.4,1658,157.3,1136,157.3z"/>
	<g>
		<polyline class="st1" points="2272,1872 2272,1613 0,1613 0,1872 		"/>
	</g>
	<g>
		<polyline class="st2" points="2272,1714.2 2272,1613 0,1613 0,1714.2 		"/>
	</g>
	<g>
		<g>
			<path class="st3" d="M1458.3,304.4c3.2-7.3,69-169.7,69-169.7l16.1,14.6l37.2-6V164l25.8-4.4l10.1,17.6l29.3-4.4v19l32-5.9
				l8.9,20.5l30.7-2.9l8.8,16.1h20.5l10.5,23.4l16.6-7.3l5.1,24.8l23.4,5.9l7.3,16.1l23.4-1.5l-96.5,165.6L1458.3,304.4z"/>
			<path class="st4" d="M1809.7,282.4l-7.3-16.1l-23.4-5.9l-5.1-24.8l-16.6,7.3l-10.5-23.4h-20.5l-8.8-16.1l-30.7,2.9l-8.9-20.5
				l-32,5.9v-19l-29.3,4.4l-10.1-17.6l-25.8,4.4v-20.7l-37.2,6l-16.1-14.6c0,0-5.9,14.6-14.3,35.3c3.9,1.8,9.3,1.5,13.7,0.1
				c6.4-2,13.2-5.4,19.4-3c13.1,4.9,8.5,26.8,19.4,35.5c4.5,3.6,10,3.9,15.7,2.7c7.9-1.7,15.7,2.9,18.3,10.6
				c3.6,11,9.7,20.5,20.6,22.4c14.8,2.5,30-12,43.7-6.1c12,5.2,13.1,21.4,13.8,34.5c0.7,13.1,6.9,29.7,20,29.1
				c7.7-0.3,13.4-6.7,19.5-11.4c6.1-4.7,15.8-7.5,20.7-1.7c4.7,5.6,1.1,14-1.7,20.7c-2.9,7-3.1,17.6,4.6,19.1c1.9,0.4,3.8,0,5.5-0.8
				c6.3-2.9,9.6-9.4,13.9-14.6c4-4.8,10.3-8.9,16.1-6.6c5.5,2.1,7.6,9,7.2,14.9c-0.4,5.9-2.4,11.6-2.1,17.5
				c0.3,7.6,4.6,13.9,10.7,18.4l41-70.4L1809.7,282.4z"/>
			<g>
				<path class="st5" d="M1737.9,273.7c-5-5.9-14.6-3-20.7,1.7c-6.1,4.7-11.8,11.1-19.5,11.4c-13.1,0.5-19.3-16-20-29.1
					c-0.7-13.1-1.8-29.3-13.8-34.5c-13.8-6-28.9,8.6-43.7,6.1c-10.8-1.8-17-11.4-20.6-22.4c-2.5-7.7-10.4-12.3-18.3-10.6
					c-5.7,1.2-11.2,0.9-15.7-2.7c-10.9-8.7-6.4-30.6-19.4-35.5c-6.3-2.4-13.1,0.9-19.4,3c-3.2,1-7.1,1.5-10.4,0.9
					c-1,2.5-2.1,5.2-3.2,8c3.9,1.8,9.3,1.5,13.7,0.1c6.4-2,13.2-5.4,19.4-3c13.1,4.9,8.5,26.8,19.4,35.5c4.5,3.6,10,3.9,15.7,2.7
					c7.9-1.7,15.7,2.9,18.3,10.6c3.6,11,9.7,20.5,20.6,22.4c14.8,2.5,30-12,43.7-6.1c12,5.2,13.1,21.4,13.8,34.5
					c0.7,13.1,6.9,29.7,20,29.1c7.7-0.3,13.4-6.7,19.5-11.4c6.1-4.7,15.8-7.5,20.7-1.7c0.7,0.8,1.2,1.7,1.6,2.7
					C1740.6,281.2,1740.6,277,1737.9,273.7z"/>
				<path class="st5" d="M1776.3,291.6c-5.8-2.2-12.1,1.8-16.1,6.6c-4.3,5.2-7.6,11.7-13.9,14.6c-1.7,0.8-3.7,1.1-5.5,0.8
					c-3.3-0.7-5.1-2.9-5.9-5.9c-1.4,6.4-0.3,13.6,5.9,14.9c1.9,0.4,3.8,0,5.5-0.8c6.3-2.9,9.6-9.4,13.9-14.6
					c4-4.8,10.3-8.9,16.1-6.6c3.8,1.5,6,5.2,6.8,9.4c0.2-1.2,0.3-2.3,0.4-3.5C1783.9,300.6,1781.8,293.8,1776.3,291.6z"/>
				<path class="st5" d="M1792.1,342.4c-5.2-3.8-9.1-9.1-10.3-15.3c-0.3,2-0.5,3.9-0.4,5.9c0.3,7.6,4.6,13.9,10.7,18.4l41-70.4
					l-5.4,0.3L1792.1,342.4z"/>
			</g>
			<path class="st6" d="M1754.9,387.2c5-14.9,10-29.7,15-44.6c-10.2,10.6-20.4,21.2-30.6,31.8c5.9-16.2,11.8-32.4,17.6-48.6
				c-14.5,9.3-27,21.8-36.4,36.2c4.9-13.6,9.8-27.3,14.6-40.9c-10.4,10.1-20.8,20.1-31.2,30.2c7.1-14,13-28.6,17.8-43.5
				c-13,8.4-24.4,19.4-33.4,32c6.3-12.9,11.2-26.5,14.5-40.5c-10.4,8-19.4,17.8-26.5,28.8c4.4-13.5,8.7-27.1,13.1-40.6
				c-16,8.9-29.5,22.3-38.6,38.1c4.7-14.7,9.4-29.5,14-44.2c-12,10.6-22.3,23-30.5,36.8c3.9-13.2,7.7-26.4,11.6-39.5
				c-9.7,11.4-20.4,22-31.9,31.6c4.9-14.7,9.7-29.4,14.6-44c-9.9,9.9-19.7,19.8-29.6,29.7c5.6-14.1,11.2-28.2,16.9-42.3
				c-11,12.6-21.9,25.2-32.9,37.8c4-13.6,7.9-27.3,11.9-40.9c-10.2,10.4-20.4,20.9-30.7,31.3c3-13.6,7.8-26.8,14-39.3
				c-8,10-17.4,19-27.8,26.4c3.7-15.2,9-30,15.9-44c-9.8,9.6-19.7,19.1-29.5,28.7c5.5-12.9,11.1-25.8,16.6-38.7
				c-7.6,8.6-15.3,17.2-22.9,25.9c5.4-15,10.7-30,16.1-44.9c-11,12.4-21.1,25.6-30.1,39.5c2.9-14.5,7.4-28.6,13.5-42
				c-13,17.6-25.9,35.1-38.9,52.7c9.4-27.5,21.7-54,36.6-78.9c-7.7,9-15.6,17.7-23.9,26.2c-19.2,47.3-43.4,106.9-45.3,111.3
				l278.3,142.2l57.2-98.2C1778.6,358.8,1765.3,372,1754.9,387.2z"/>
			<path class="st7" d="M1412.3,385.6l50.9-122.2c0,0,297.3,144,298.4,147.1c1,3.1-71.4,123.3-71.4,123.3L1412.3,385.6z"/>
			<polygon class="st8" points="1591.7,506.4 1651.8,391.9 1682.9,407.4 1620.7,527.6 			"/>
			<path class="st9" d="M1761.6,410.5c-1-3.1-298.4-147.1-298.4-147.1l-4.2,10l267.3,141.2c0,0-39,65.8-61.5,105.7l25.3,13.5
				C1690.2,533.8,1762.6,413.6,1761.6,410.5z"/>
			<g>
				<path class="st10" d="M1501.8,591l10.3,5.9l0,0L1501.8,591c11.5-25.4,25.6-56.6,25.6-56.6s72.8-7.2,162.8,30.1l10.8-38.1
					L1412.3,370l-30.4,70.5c47.5,37.3,68.1,81.6,76.5,107.3l-97.7,241.6c-9.2,22.7,3.2,48.3,26.7,55.2c-0.1,0-0.1,0-0.2-0.1
					L1501.8,591z"/>
				<path class="st10" d="M1427.4,835.3c-1.8,1.7-3.8,3.2-5.8,4.5C1423.6,838.5,1425.6,837,1427.4,835.3z"/>
				<path class="st10" d="M1421.6,839.8c-1,0.7-2.1,1.3-3.2,1.8C1419.5,841.1,1420.5,840.4,1421.6,839.8z"/>
				<path class="st10" d="M1514.6,594.3c8.3-8.1,18.2-14.2,29.1-18.5l-106.5,245.6c-1.8,4.2-4.2,7.9-7.2,11.2
					c2.9-3.2,5.3-7,7.2-11.2l106.5-245.6c58.4-23.5,142.9,1.8,142.9,1.8l0.8-3l-0.8,3C1686.5,577.6,1567.9,542.1,1514.6,594.3z"/>
				<path class="st11" d="M1690.2,564.5c-90-37.4-162.8-30.1-162.8-30.1s-14.1,31.2-25.6,56.6l10.3,5.9l0,0l-10.3-5.9l-114.6,253.7
					c0.1,0,0.1,0,0.2,0.1c0.1,0,0.1,0,0.2,0h0c5.6,1.6,11.4,2,16.9,1.3c0.6-0.1,1.2-0.2,1.8-0.3c1.8-0.3,3.6-0.8,5.4-1.3
					c2.3-0.7,4.6-1.7,6.8-2.8c1.1-0.6,2.1-1.2,3.2-1.8c2.1-1.3,4-2.8,5.8-4.5c0.9-0.8,1.8-1.7,2.6-2.7c2.9-3.2,5.3-7,7.2-11.2
					l106.5-245.6c-10.8,4.3-20.7,10.3-29.1,18.5c53.3-52.2,171.9-16.7,171.9-16.7l0.8-3L1690.2,564.5L1690.2,564.5z"/>
			</g>
		</g>
		<g>
			<path class="st12" d="M1124.1,1097.3L774.3,388.4c-14.6-29.6-51.4-40.5-79.8-23.6L670,379.4c-26.1,15.5-35.3,48.9-20.9,75.6
				l374.4,694.2c15.5,28.7,51.9,38.4,79.6,21.3C1127.9,1155.2,1137,1123.4,1124.1,1097.3z"/>
			<path class="st13" d="M1101.7,1171.3c0.4-0.3,0.9-0.5,1.3-0.8c24.9-15.3,34-47.1,21-73.3L774.3,388.4
				c-14.6-29.6-51.4-40.5-79.8-23.6L670,379.4c-26.1,15.5-35.3,48.9-20.9,75.6l38.1,70.7l71.8-52.5L1101.7,1171.3z"/>
			<path class="st14" d="M885.9,293.8l-53.4-111.3c-7.1-14.8-25.6-20.1-39.4-11.2l-253.3,162c-3.5,2.3-6.5,5.3-8.7,8.9l-17.3,28.6
				c-6.4,10.5-19,15.5-30.8,12.2l-19-5.3c-8.2-2.3-16.9-0.7-23.7,4.4l-39.7,29.5c-11.9,8.9-14.6,25.6-6.1,37.8l94,133.1
				c9,12.7,26.8,15.4,39.1,5.9l27.2-21c6.4-4.9,10.2-12.4,10.6-20.4l0.4-8.2c0.8-18,18.5-30.3,35.7-24.9l0,0
				c8.3,2.6,17.3,1.2,24.4-3.9l251.5-182.1C888,320,891.6,305.7,885.9,293.8z"/>
			<path class="st15" d="M857.5,234.6L583.4,429.9l51.6,73.3l242.3-175.4c10.7-7.8,14.4-22.1,8.6-34L857.5,234.6z"/>
			<path class="st16" d="M400.5,411.5c-11.9,8.9-14.6,25.6-6.1,37.8l94,133.1c9,12.7,26.8,15.4,39.1,5.9l15.2-11.7L422.8,395
				L400.5,411.5z"/>
		</g>
		<g>
			<g>
				<g>
					<rect x="449.1" y="1013.2" class="st17" width="478.9" height="623.9"/>
					<rect x="449.1" y="1013.2" class="st18" width="104.5" height="623.9"/>
					<rect x="449.1" y="1064.1" class="st19" width="359.3" height="61.1"/>
					<rect x="449.1" y="1064.1" class="st17" width="104.5" height="61.1"/>
					<g>
						<polygon class="st11" points="973,669.4 563.4,669.4 294,1036.5 294,1048.9 696.4,1048.9 						"/>
						<path class="st10" d="M577.3,709.4c4-0.1,9.5-2.6,7.8-6.2c-2-4.1,7.2-13.4,11.7-14.2c4.5-0.9,9,1.1,13.3,2.8
							c4.3,1.7,9.2,3,13.3,1c11,6.1,27.6,5.7,38-1.4c8.7,2.1,18.9-6.7,18.1-15.6c-0.2-2.1-0.9-4.3-1.1-6.4H563.4l-38.8,52.8
							c9.2-4.7,18.6-9.2,28.1-13.4C560.3,705.6,569,709.7,577.3,709.4z"/>
						<path class="st10" d="M973,669.4H791c3.5,1.9,8,2.5,12,3.8c7.2,2.3,13.5,7.5,17.1,14.1c1.9,3.5,3.1,7.4,5.7,10.4
							c2.6,3,7.2,4.9,10.6,2.8c1.7,4.9,4.7,10.4,8.5,14c3.8,3.5,7.2,8.9,5.3,13.7c-0.8,1.9-2.3,3.4-3.3,5.2
							c-6,10.9,8.8,22.5,8.8,34.9c0,6.9-4.8,13.1-10.7,16.8c-5.9,3.7-12.8,5.2-19.5,6.9c-21.7,5.5-43.1,12.6-63.8,21.2
							c-5,2.1-12.7,0.1-18.1,0.9s-11,3.4-13.2,8.4c-3.1,6.9,1.4,15,6.9,20.1c5.6,5.1,12.5,9.1,16.3,15.7c2.1,3.7,5.9,8.9,9.2,6.2
							c7.6,9.7,1.6,33-9.4,38.7c-3.5,1.8-7.7,2.9-9.7,6.3c-1.6,2.8-1.1,6.3-1.6,9.6c-1.5,10.7-13,16.5-22.4,21.8
							c-24.8,13.9-44.4,36.6-54.7,63c-1.8,4.7-3.4,9.6-7,13.1c-4,3.9-9.7,5.4-15,6.8c-24.1,6.4-47.7,14.8-70.4,25.1h123.8L973,669.4
							z"/>
						<path class="st20" d="M598.2,760.4c35.5,0,35.5,19.8,71,19.8c35.5,0,35.5-19.8,71-19.8c35.5,0,35.5,19.8,71,19.8
							c35.5,0,35.5-19.8,71-19.8c9.3,0,16.1,1.4,21.8,3.4l39.4-54.1c-4.7-1.2-10.2-1.9-17-1.9c-35.5,0-35.5,19.8-71,19.8
							c-35.5,0-35.5-19.8-71-19.8c-35.5,0-35.5,19.8-71,19.8c-35.5,0-35.5-19.8-71-19.8c-35.5,0-35.5,19.8-71,19.8
							c-21.5,0-30-7.3-41.2-13L490,769.4c9.5,5.2,18.3,10.8,37.2,10.8C562.7,780.3,562.7,760.4,598.2,760.4z"/>
						<path class="st20" d="M767,832.9c-35.5,0-35.5-19.8-71-19.8c-35.5,0-35.5,19.8-71,19.8c-35.5,0-35.5-19.8-71-19.8
							c-35.5,0-35.5,19.8-71,19.8c-16.2,0-25-4.1-33.1-8.6L409.5,879c7.1,3.6,15.5,6.4,29,6.4c35.5,0,35.5-19.8,71-19.8
							c35.5,0,35.5,19.8,71,19.8c35.5,0,35.5-19.8,71-19.8c35.5,0,35.5,19.8,71,19.8c35.5,0,35.5-19.8,71-19.8
							c14.7,0,23.3,3.4,30.8,7.4l39.9-54.8c-6.6-3-14.5-5.2-26.5-5.2C802.5,813,802.5,832.9,767,832.9z"/>
						<path class="st20" d="M678.4,938.1c-35.5,0-35.5-19.8-71-19.8c-35.5,0-35.5,19.8-71,19.8c-35.5,0-35.5-19.8-71-19.8
							c-35.5,0-35.5,19.8-71,19.8c-10.9,0-18.5-1.9-24.8-4.5l-39.8,54.2c5.4,1.7,11.8,2.9,20.3,2.9c35.5,0,35.5-19.8,71-19.8
							c35.5,0,35.5,19.8,71,19.8c35.5,0,35.5-19.8,71-19.8c35.5,0,35.5,19.8,71,19.8c35.5,0,35.5-19.8,71-19.8
							c20.3,0,29,6.5,39.4,12l40-54.9c-8.7-4.9-17.6-9.7-35.1-9.7C713.9,918.2,713.9,938.1,678.4,938.1z"/>
						<polygon class="st20" points="294,1036.5 294,1064.1 696.4,1064.1 703,1037 						"/>
					</g>
				</g>
				<g>
					<rect x="779" y="1029.1" class="st21" width="248.7" height="248.7"/>
					<polygon class="st17" points="696.4,1064.1 1154.6,410.2 1154.6,1064.1 					"/>
					<path class="st18" d="M1154.6,920.2c-2.1,1.3-4.1,2.7-6,4.2c-5.4-1-10.8-2-16.2-3c-0.1,1.7-0.3,3.3-0.4,5
						c-6.5-1.3-19.5,7.9-24.7,12c3.9,0.5,4.5,6,3,9.7s-3.9,7.5-2.6,11.1c0.9,2.5-8.6,7.1-7.9,9.8c3.1,12-9.7,34.1-22,34.9
						c-5.1,0.3-10.2,0.7-15.4,1c-1.4,0.1-3,0.3-4,1.3s-4.5,4.8-3.1,5.2c1.5,4.5,3,9,3,13.7c0,4.7-4.3,9.5-8.1,12.2
						c0,3.4-4.2,5.2-7.7,5.1c-3.4-0.1-9.4-0.7-11.3,2.1c-3.1,4.6-6.2,10.8-2.9,15.3c1,1.4,2.6,2.3,3.9,3.4c0.3,0.2,0.6,0.5,0.8,0.8
						h121.5V920.2z"/>
					<path class="st18" d="M948.9,1045c-4.9-2.8-11-1.9-16.5-2.8c-12.1-1.9-24.5-13.7-24.4-25.9c-6,0.4-10.4-5.3-13.6-10.3
						c-3.3-5.2-4.8-12.7-6.3-18.7c-1.1-4.4-5.7-7.6-10.3-7.1c4.2-9.9,4-21.2,6.8-31.6c2-7.5,2.3-15.7,8.6-20.3
						c9.5-6.8,18.9-13.5,28.4-20.3c2.3-1.7,4.8-3.4,6.3-5.8c3.9-6.3,1.9-13.3,6.9-18.8c0.7-6.8,7.1-11.5,13-15
						c25.4-15.4,51.9-29,79.2-40.6c11.9-5,21-10.6,29-20.7c-3.6-9.4,10-16.9,10.9-26.9c0.7-7.4-5.6-13.3-9.4-19.7
						c-9.3-16-2.4-36.1,4.3-53.4c33.5-86.5,57.6-176.3,81.7-265.8c0.1-0.3,1.4-8.3,3.2-19.9l-450.4,642.8h270.9
						c-4.2-4.2-8.2-8.6-12.1-13.1C953.4,1048.7,951.5,1046.4,948.9,1045z"/>
					<g>
						<polygon class="st19" points="1088.1,505.2 1066.1,536.6 1154.6,536.6 1154.6,505.2 						"/>
						<polygon class="st19" points="1049.7,559.9 1027.7,591.3 1154.6,591.3 1154.6,559.9 						"/>
						<polygon class="st19" points="1011.4,614.7 989.4,646 1154.6,646 1154.6,614.7 						"/>
						<polygon class="st19" points="973,669.4 951,700.8 1154.6,700.8 1154.6,669.4 						"/>
						<polygon class="st19" points="934.7,724.1 912.7,755.5 1154.6,755.5 1154.6,724.1 						"/>
						<polygon class="st19" points="896.3,778.8 874.3,810.2 1154.6,810.2 1154.6,778.8 						"/>
						<polygon class="st19" points="858,833.6 836,864.9 1154.6,864.9 1154.6,833.6 						"/>
						<polygon class="st19" points="819.6,888.3 797.6,919.7 1154.6,919.7 1154.6,888.3 						"/>
						<polygon class="st19" points="781.3,943 759.3,974.4 1154.6,974.4 1154.6,943 						"/>
						<polygon class="st19" points="1154.6,1029.1 1154.6,997.8 742.9,997.8 720.9,1029.1 						"/>
					</g>
					<polygon class="st22" points="1154.6,410.2 696.4,1064.1 726.1,1064.1 1154.6,439.7 					"/>
					<polygon class="st23" points="1154.6,410.2 671.2,1103.8 630.6,1103.8 1154.6,361.9 					"/>
					<g>
						<rect x="704.2" y="1258.2" class="st18" width="450.4" height="393.5"/>
						<rect x="621.6" y="1258.2" class="st24" width="41.1" height="393.5"/>
						<rect x="621.6" y="1258.2" class="st24" width="41.1" height="393.5"/>
						<rect x="621.6" y="1258.2" class="st25" width="41.1" height="58.2"/>
						<rect x="704.2" y="1258.2" class="st19" width="450.4" height="49.7"/>
						<polygon class="st11" points="1154.6,1064.1 898.5,1064.1 600.5,1257.3 599.6,1273 1154.6,1273 						"/>
						<path class="st20" d="M803.4,1156.4c19.1,0,19.1-19.8,38.3-19.8c19.1,0,19.1,19.8,38.3,19.8c19.1,0,19.1-19.8,38.3-19.8
							c19.1,0,19.1,19.8,38.3,19.8c19.1,0,19.1-19.8,38.3-19.8c19.1,0,19.1,19.8,38.3,19.8c19.1,0,19.1-19.8,38.3-19.8
							c19.1,0,19.1,19.8,38.3,19.8c19.1,0,19.1-19.8,38.3-19.8c2.7,0,4.9,0.4,7,1.1V1095c-2-0.7-4.3-1.1-7-1.1
							c-19.1,0-19.1,19.8-38.3,19.8c-19.1,0-19.1-19.8-38.3-19.8c-19.1,0-19.1,19.8-38.3,19.8c-19.1,0-19.1-19.8-38.3-19.8
							c-19.1,0-19.1,19.8-38.3,19.8c-19.1,0-19.1-19.8-38.3-19.8c-19.1,0-19.1,19.8-38.3,19.8c-15.8,0-18.6-13.6-29.9-18.3l-71,46
							C786.3,1147.4,790.5,1156.4,803.4,1156.4z"/>
						<path class="st20" d="M1109.4,1199.1c-19.1,0-19.1-19.8-38.3-19.8c-19.1,0-19.1,19.8-38.3,19.8c-19.1,0-19.1-19.8-38.3-19.8
							c-19.1,0-19.1,19.8-38.3,19.8c-19.1,0-19.1-19.8-38.3-19.8c-19.1,0-19.1,19.8-38.3,19.8c-19.1,0-19.1-19.8-38.3-19.8
							c-19.1,0-19.1,19.8-38.3,19.8c-19.1,0-19.1-19.8-38.3-19.8c-19.1,0-19.1,19.8-38.3,19.8c-10.1,0-14.9-5.5-19.9-10.8
							l-72.3,46.9c3.9,3.6,8.4,6.5,15.7,6.5c19.1,0,19.1-19.8,38.3-19.8c19.1,0,19.1,19.8,38.3,19.8c19.1,0,19.1-19.8,38.3-19.8
							c19.1,0,19.1,19.8,38.3,19.8c19.1,0,19.1-19.8,38.3-19.8c19.1,0,19.1,19.8,38.3,19.8c19.1,0,19.1-19.8,38.3-19.8
							c19.1,0,19.1,19.8,38.3,19.8c19.1,0,19.1-19.8,38.3-19.8c19.1,0,19.1,19.8,38.3,19.8c19.1,0,19.1-19.8,38.3-19.8
							c19.1,0,19.1,19.8,38.3,19.8c19.1,0,19.1-19.8,38.3-19.8c2.7,0,4.9,0.4,7,1.1v-42.6c-2-0.7-4.3-1.1-7-1.1
							C1128.6,1179.2,1128.6,1199.1,1109.4,1199.1z"/>
						<polygon class="st20" points="600.4,1258.2 599.6,1273 1154.6,1273 1154.6,1258.2 						"/>
						<rect x="649.6" y="1316.4" class="st26" width="13.1" height="335.3"/>
						<rect x="649.6" y="1273" class="st24" width="13.1" height="43.3"/>
					</g>
					<rect x="621.6" y="1576.5" class="st24" width="373.7" height="119.6"/>
					<rect x="621.6" y="1576.5" class="st25" width="373.7" height="23.2"/>
					<rect x="621.6" y="1610.1" class="st25" width="373.7" height="11.6"/>
					<rect x="621.6" y="1636.3" class="st25" width="373.7" height="11.6"/>
					<rect x="621.6" y="1656.5" class="st25" width="373.7" height="11.6"/>
					<rect x="621.6" y="1672.8" class="st25" width="373.7" height="23.2"/>
					<g>
						<rect x="995.3" y="1613" class="st27" width="159.3" height="38.7"/>
						<rect x="995.3" y="1613" class="st28" width="159.3" height="15.6"/>
					</g>
					<g>
						<rect x="995.3" y="1640.1" class="st27" width="159.3" height="38.7"/>
						<rect x="995.3" y="1640.1" class="st28" width="159.3" height="15.6"/>
					</g>
					<g>
						<rect x="995.3" y="1669.9" class="st27" width="159.3" height="38.7"/>
						<rect x="995.3" y="1669.9" class="st28" width="159.3" height="15.6"/>
					</g>
					<g>
						<rect x="995.3" y="1698.6" class="st27" width="159.3" height="38.7"/>
						<rect x="995.3" y="1698.6" class="st28" width="159.3" height="15.6"/>
					</g>
					<rect x="704.2" y="1321.8" class="st17" width="271.6" height="30.6"/>
					<rect x="704.2" y="1376.4" class="st17" width="271.6" height="30.6"/>
					<rect x="704.2" y="1430.9" class="st17" width="271.6" height="30.6"/>
					<rect x="704.2" y="1485.5" class="st17" width="271.6" height="30.6"/>
					<rect x="704.2" y="1540" class="st21" width="271.6" height="30.6"/>
					<rect x="645.8" y="1585" class="st25" width="8.1" height="104.2"/>
					<rect x="673.6" y="1585" class="st25" width="8.1" height="104.2"/>
					<rect x="701.5" y="1585" class="st25" width="8.1" height="104.2"/>
					<rect x="729.3" y="1585" class="st25" width="8.1" height="104.2"/>
					<rect x="757.1" y="1585" class="st25" width="8.1" height="104.2"/>
					<rect x="784.9" y="1585" class="st25" width="8.1" height="104.2"/>
					<rect x="812.7" y="1585" class="st25" width="8.1" height="104.2"/>
					<rect x="840.5" y="1585" class="st25" width="8.1" height="104.2"/>
					<rect x="868.3" y="1585" class="st25" width="8.1" height="104.2"/>
					<rect x="896.1" y="1585" class="st25" width="8.1" height="104.2"/>
					<rect x="924" y="1585" class="st25" width="8.1" height="104.2"/>
					<rect x="951.8" y="1585" class="st25" width="8.1" height="104.2"/>
					<rect x="979.6" y="1585" class="st25" width="8.1" height="104.2"/>
				</g>
				<g>
					<polygon class="st29" points="1154.6,1258.2 1154.6,1352.5 1241.4,1352.5 1241.4,1613 1154.6,1613 1154.6,1651.7 
						1605.1,1651.7 1605.1,1258.2 					"/>
					<g>
						
							<rect x="1370.4" y="1013.2" transform="matrix(-1 -4.489665e-11 4.489665e-11 -1 3219.6599 2650.375)" class="st22" width="478.9" height="623.9"/>
						<rect x="1744.8" y="1013.2" class="st21" width="104.5" height="623.9"/>
						
							<rect x="1490" y="1064.1" transform="matrix(-1 -4.489976e-11 4.489976e-11 -1 3339.2454 2189.2476)" class="st30" width="359.3" height="61.1"/>
						<rect x="1744.8" y="1064.1" class="st22" width="104.5" height="61.1"/>
						<g>
							<polygon class="st31" points="1325.4,669.4 1734.9,669.4 2004.3,1036.5 2004.3,1048.9 1602,1048.9 							"/>
							<path class="st23" d="M1700.2,760.4c-35.5,0-35.5,19.8-71,19.8c-35.5,0-35.5-19.8-71-19.8c-35.5,0-35.5,19.8-71,19.8
								c-35.5,0-35.5-19.8-71-19.8c-9.3,0-16.1,1.4-21.8,3.4l-39.4-54.1c4.7-1.2,10.2-1.9,17-1.9c35.5,0,35.5,19.8,71,19.8
								c35.5,0,35.5-19.8,71-19.8c35.5,0,35.5,19.8,71,19.8c35.5,0,35.5-19.8,71-19.8c35.5,0,35.5,19.8,71,19.8
								c21.5,0,30-7.3,41.2-13l40.2,54.8c-9.5,5.2-18.3,10.8-37.2,10.8C1735.7,780.3,1735.7,760.4,1700.2,760.4z"/>
							<path class="st23" d="M1531.4,832.9c35.5,0,35.5-19.8,71-19.8c35.5,0,35.5,19.8,71,19.8c35.5,0,35.5-19.8,71-19.8
								c35.5,0,35.5,19.8,71,19.8c16.2,0,25-4.1,33.1-8.6l40.2,54.8c-7.1,3.6-15.5,6.4-29,6.4c-35.5,0-35.5-19.8-71-19.8
								c-35.5,0-35.5,19.8-71,19.8c-35.5,0-35.5-19.8-71-19.8c-35.5,0-35.5,19.8-71,19.8c-35.5,0-35.5-19.8-71-19.8
								c-14.7,0-23.3,3.4-30.8,7.4l-39.9-54.8c6.6-3,14.5-5.2,26.5-5.2C1495.9,813,1495.9,832.9,1531.4,832.9z"/>
							<path class="st23" d="M1620,938.1c35.5,0,35.5-19.8,71-19.8c35.5,0,35.5,19.8,71,19.8c35.5,0,35.5-19.8,71-19.8
								c35.5,0,35.5,19.8,71,19.8c10.9,0,18.5-1.9,24.8-4.5l39.8,54.2c-5.4,1.7-11.8,2.9-20.3,2.9c-35.5,0-35.5-19.8-71-19.8
								c-35.5,0-35.5,19.8-71,19.8c-35.5,0-35.5-19.8-71-19.8c-35.5,0-35.5,19.8-71,19.8c-35.5,0-35.5-19.8-71-19.8
								c-20.3,0-29,6.5-39.4,12l-40-54.9c8.7-4.9,17.6-9.7,35.1-9.7C1584.4,918.2,1584.4,938.1,1620,938.1z"/>
							<polygon class="st23" points="2004.3,1036.5 2004.3,1064.1 1602,1064.1 1595.4,1037 							"/>
						</g>
					</g>
					<g>
						
							<rect x="1281.6" y="1029.1" transform="matrix(-1 -4.490154e-11 4.490154e-11 -1 2811.8093 2306.9312)" class="st21" width="248.7" height="248.7"/>
						<polygon class="st29" points="1612.8,1064.1 1154.6,410.2 1154.6,1064.1 						"/>
						<g>
							<polygon class="st21" points="1221.2,505.2 1243.2,536.6 1154.6,536.6 1154.6,505.2 							"/>
							<polygon class="st21" points="1259.6,559.9 1281.6,591.3 1154.6,591.3 1154.6,559.9 							"/>
							<polygon class="st21" points="1297.9,614.7 1319.9,646 1154.6,646 1154.6,614.7 							"/>
							<polygon class="st21" points="1336.3,669.4 1358.3,700.8 1154.6,700.8 1154.6,669.4 							"/>
							<polygon class="st21" points="1374.6,724.1 1396.6,755.5 1154.6,755.5 1154.6,724.1 							"/>
							<polygon class="st21" points="1413,778.8 1435,810.2 1154.6,810.2 1154.6,778.8 							"/>
							<polygon class="st21" points="1451.3,833.6 1473.3,864.9 1154.6,864.9 1154.6,833.6 							"/>
							<polygon class="st21" points="1489.7,888.3 1511.7,919.7 1154.6,919.7 1154.6,888.3 							"/>
							<polygon class="st21" points="1528,943 1550,974.4 1154.6,974.4 1154.6,943 							"/>
							<polygon class="st21" points="1154.6,1029.1 1154.6,997.8 1566.4,997.8 1588.4,1029.1 							"/>
						</g>
						<polygon class="st22" points="1154.6,410.2 1612.8,1064.1 1583.2,1064.1 1154.6,439.7 						"/>
						<polygon class="st23" points="1154.6,410.2 1638.1,1103.8 1678.7,1103.8 1154.6,361.9 						"/>
						<g>
							
								<rect x="1646.6" y="1258.2" transform="matrix(-1 -4.488555e-11 4.488555e-11 -1 3334.2893 2909.8384)" class="st24" width="41.1" height="393.5"/>
							
								<rect x="1646.6" y="1258.2" transform="matrix(-1 -4.488555e-11 4.488555e-11 -1 3334.2893 2909.8384)" class="st24" width="41.1" height="393.5"/>
							
								<rect x="1646.6" y="1258.2" transform="matrix(-1 -4.488555e-11 4.488555e-11 -1 3334.2893 2574.5422)" class="st25" width="41.1" height="58.2"/>
							
								<rect x="1154.6" y="1258.2" transform="matrix(-1 -4.489754e-11 4.489754e-11 -1 2759.7163 2566.0518)" class="st22" width="450.4" height="49.7"/>
							<polygon class="st23" points="1154.6,1064.1 1410.8,1064.1 1708.8,1257.3 1709.7,1273 1154.6,1273 							"/>
							<path class="st31" d="M1505.9,1156.4c-19.1,0-19.1-19.8-38.3-19.8c-19.1,0-19.1,19.8-38.3,19.8c-19.1,0-19.1-19.8-38.3-19.8
								c-19.1,0-19.1,19.8-38.3,19.8c-19.1,0-19.1-19.8-38.3-19.8c-19.1,0-19.1,19.8-38.3,19.8c-19.1,0-19.1-19.8-38.3-19.8
								c-19.1,0-19.1,19.8-38.3,19.8c-19.1,0-19.1-19.8-38.3-19.8c-2.7,0-4.9,0.4-7,1.1V1095c2-0.7,4.3-1.1,7-1.1
								c19.1,0,19.1,19.8,38.3,19.8c19.1,0,19.1-19.8,38.3-19.8c19.1,0,19.1,19.8,38.3,19.8c19.1,0,19.1-19.8,38.3-19.8
								c19.1,0,19.1,19.8,38.3,19.8c19.1,0,19.1-19.8,38.3-19.8c19.1,0,19.1,19.8,38.3,19.8c15.8,0,18.6-13.6,29.9-18.3l71,46
								C1523,1147.4,1518.8,1156.4,1505.9,1156.4z"/>
							<path class="st31" d="M1199.9,1199.1c19.1,0,19.1-19.8,38.3-19.8c19.1,0,19.1,19.8,38.3,19.8c19.1,0,19.1-19.8,38.3-19.8
								c19.1,0,19.1,19.8,38.3,19.8c19.1,0,19.1-19.8,38.3-19.8c19.1,0,19.1,19.8,38.3,19.8c19.1,0,19.1-19.8,38.3-19.8
								c19.1,0,19.1,19.8,38.3,19.8c19.1,0,19.1-19.8,38.3-19.8c19.1,0,19.1,19.8,38.3,19.8c10.1,0,14.9-5.5,19.9-10.8l72.3,46.9
								c-3.9,3.6-8.4,6.5-15.7,6.5c-19.1,0-19.1-19.8-38.3-19.8c-19.1,0-19.1,19.8-38.3,19.8c-19.1,0-19.1-19.8-38.3-19.8
								c-19.1,0-19.1,19.8-38.3,19.8c-19.1,0-19.1-19.8-38.3-19.8c-19.1,0-19.1,19.8-38.3,19.8c-19.1,0-19.1-19.8-38.3-19.8
								c-19.1,0-19.1,19.8-38.3,19.8c-19.1,0-19.1-19.8-38.3-19.8c-19.1,0-19.1,19.8-38.3,19.8c-19.1,0-19.1-19.8-38.3-19.8
								c-19.1,0-19.1,19.8-38.3,19.8c-19.1,0-19.1-19.8-38.3-19.8c-2.7,0-4.9,0.4-7,1.1v-42.6c2-0.7,4.3-1.1,7-1.1
								C1180.7,1179.2,1180.7,1199.1,1199.9,1199.1z"/>
							<polygon class="st32" points="1708.9,1258.2 1709.7,1273 1154.6,1273 1154.6,1258.2 							"/>
							<rect x="1646.6" y="1316.4" class="st26" width="13.1" height="335.3"/>
							<rect x="1646.6" y="1273" class="st24" width="13.1" height="43.3"/>
						</g>
						
							<rect x="1314" y="1576.5" transform="matrix(-1 -4.489798e-11 4.489798e-11 -1 3001.6831 3272.5154)" class="st24" width="373.7" height="119.6"/>
						
							<rect x="1314" y="1576.5" transform="matrix(-1 -4.489798e-11 4.489798e-11 -1 3001.6831 3176.1387)" class="st25" width="373.7" height="23.2"/>
						
							<rect x="1314" y="1610.1" transform="matrix(-1 -4.489798e-11 4.489798e-11 -1 3001.6831 3231.886)" class="st25" width="373.7" height="11.6"/>
						
							<rect x="1314" y="1636.3" transform="matrix(-1 -4.489798e-11 4.489798e-11 -1 3001.6831 3284.1165)" class="st25" width="373.7" height="11.6"/>
						
							<rect x="1314" y="1656.5" transform="matrix(-1 -4.489798e-11 4.489798e-11 -1 3001.6831 3324.5232)" class="st25" width="373.7" height="11.6"/>
						
							<rect x="1314" y="1672.8" transform="matrix(-1 -4.489798e-11 4.489798e-11 -1 3001.6831 3368.8923)" class="st25" width="373.7" height="23.2"/>
						<g>
							
								<rect x="1154.6" y="1613" transform="matrix(-1 -4.488910e-11 4.488910e-11 -1 2468.6108 3264.6438)" class="st27" width="159.3" height="38.7"/>
							
								<rect x="1154.6" y="1613" transform="matrix(-1 -4.488910e-11 4.488910e-11 -1 2468.6108 3241.5532)" class="st28" width="159.3" height="15.6"/>
						</g>
						<g>
							
								<rect x="1154.6" y="1640.1" transform="matrix(-1 -4.488910e-11 4.488910e-11 -1 2468.6108 3318.9766)" class="st27" width="159.3" height="38.7"/>
							
								<rect x="1154.6" y="1640.1" transform="matrix(-1 -4.488910e-11 4.488910e-11 -1 2468.6108 3295.886)" class="st28" width="159.3" height="15.6"/>
						</g>
						<g>
							
								<rect x="1154.6" y="1669.9" transform="matrix(-1 -4.488910e-11 4.488910e-11 -1 2468.6108 3378.4976)" class="st27" width="159.3" height="38.7"/>
							
								<rect x="1154.6" y="1669.9" transform="matrix(-1 -4.488910e-11 4.488910e-11 -1 2468.6108 3355.407)" class="st28" width="159.3" height="15.6"/>
						</g>
						<g>
							
								<rect x="1154.6" y="1698.6" transform="matrix(-1 -4.488910e-11 4.488910e-11 -1 2468.6108 3435.8799)" class="st27" width="159.3" height="38.7"/>
							
								<rect x="1154.6" y="1698.6" transform="matrix(-1 -4.488910e-11 4.488910e-11 -1 2468.6108 3412.7893)" class="st28" width="159.3" height="15.6"/>
						</g>
						
							<rect x="1333.5" y="1321.8" transform="matrix(-1 -4.490021e-11 4.490021e-11 -1 2938.603 2674.2729)" class="st21" width="271.6" height="30.6"/>
						
							<rect x="1333.5" y="1376.4" transform="matrix(-1 -4.490021e-11 4.490021e-11 -1 2938.603 2783.3667)" class="st21" width="271.6" height="30.6"/>
						
							<rect x="1333.5" y="1430.9" transform="matrix(-1 -4.490021e-11 4.490021e-11 -1 2938.603 2892.4602)" class="st21" width="271.6" height="30.6"/>
						
							<rect x="1333.5" y="1485.5" transform="matrix(-1 -4.490021e-11 4.490021e-11 -1 2938.603 3001.554)" class="st21" width="271.6" height="30.6"/>
						
							<rect x="1333.5" y="1540" transform="matrix(-1 -4.490021e-11 4.490021e-11 -1 2938.603 3110.6475)" class="st21" width="271.6" height="30.6"/>
						
							<rect x="1655.3" y="1585" transform="matrix(-1 -4.490198e-11 4.490198e-11 -1 3318.7573 3274.291)" class="st25" width="8.1" height="104.2"/>
						
							<rect x="1627.5" y="1585" transform="matrix(-1 -4.490198e-11 4.490198e-11 -1 3263.1328 3274.291)" class="st25" width="8.1" height="104.2"/>
						
							<rect x="1599.7" y="1585" transform="matrix(-1 -4.490198e-11 4.490198e-11 -1 3207.5083 3274.291)" class="st25" width="8.1" height="104.2"/>
						
							<rect x="1571.9" y="1585" transform="matrix(-1 -4.490198e-11 4.490198e-11 -1 3151.8838 3274.291)" class="st25" width="8.1" height="104.2"/>
						
							<rect x="1544.1" y="1585" transform="matrix(-1 -4.490198e-11 4.490198e-11 -1 3096.2593 3274.291)" class="st25" width="8.1" height="104.2"/>
						
							<rect x="1516.2" y="1585" transform="matrix(-1 -4.490198e-11 4.490198e-11 -1 3040.6348 3274.291)" class="st25" width="8.1" height="104.2"/>
						
							<rect x="1488.4" y="1585" transform="matrix(-1 -4.490198e-11 4.490198e-11 -1 2985.0103 3274.291)" class="st25" width="8.1" height="104.2"/>
						
							<rect x="1460.6" y="1585" transform="matrix(-1 -4.490198e-11 4.490198e-11 -1 2929.3857 3274.291)" class="st25" width="8.1" height="104.2"/>
						
							<rect x="1432.8" y="1585" transform="matrix(-1 -4.490198e-11 4.490198e-11 -1 2873.7612 3274.291)" class="st25" width="8.1" height="104.2"/>
						
							<rect x="1405" y="1585" transform="matrix(-1 -4.490198e-11 4.490198e-11 -1 2818.1367 3274.291)" class="st25" width="8.1" height="104.2"/>
						
							<rect x="1377.2" y="1585" transform="matrix(-1 -4.490198e-11 4.490198e-11 -1 2762.5122 3274.291)" class="st25" width="8.1" height="104.2"/>
						
							<rect x="1349.4" y="1585" transform="matrix(-1 -4.490198e-11 4.490198e-11 -1 2706.8877 3274.291)" class="st25" width="8.1" height="104.2"/>
						
							<rect x="1321.6" y="1585" transform="matrix(-1 -4.490198e-11 4.490198e-11 -1 2651.2632 3274.291)" class="st25" width="8.1" height="104.2"/>
					</g>
				</g>
				<g>
					<rect x="1067.9" y="1352.5" class="st20" width="86.8" height="260.5"/>
					<rect x="1154.6" y="1352.5" class="st32" width="86.8" height="260.5"/>
				</g>
				<path class="st33" d="M1700.7,1365.9l-266.8-58l23,69.8l0,0c0,0,0,0,0,0c-41.1,13.8-83.9,27.1-128.3,39.9
					c-151.8,43.7-317.7,79.5-479.7,103.5c-104.9,15.6-206.3,25.8-295.3,29.9c-37.2,1.7-72.3,2.4-104.5,2c-1.4,0-2.8,0-4.2-0.1
					c-82.2-1.4-129.2-9.5-155.3-16.9c-15.7-4.5-25.3-20.2-22.1-36.3c5.2-26,17.3-53.8,36.1-82.9c25-38.6,61.5-79,108.3-119.9
					c12.4-10.8,24.9-21.1,37.1-30.8v-143.8c-32.7,22.2-72.3,51.4-111.9,85.8c-55.3,48.1-99.2,96.8-130.3,144.6
					c-42.2,64.8-61.7,129-57.8,190.7c1.3,21.7,10.3,42.1,25.9,58.9c11.7,12.6,26.7,23,45.9,31.7c50.8,23.2,133.7,34.9,246.9,34.9
					c23.7,0,48.6-0.5,74.9-1.5c141.4-5.5,312.8-26.4,482.6-58.8c162.9-31.1,321.8-72.1,463.6-119.5l27.4,95.8L1700.7,1365.9z"/>
				<path class="st34" d="M1203.8,1544.1L1203.8,1544.1c-3.1-15-18.4-24.2-33.1-19.9c-671.6,196.7-995.7,78.3-995.7,78.3
					c11.7,12.6,26.7,23,45.9,31.7c50.8,23.2,133.7,34.9,246.9,34.9c23.7,0,48.6-0.5,74.9-1.5c141.4-5.5,312.8-26.4,482.6-58.8
					c53.5-10.2,106.6-21.5,158.8-33.8C1198,1571.7,1206.7,1558,1203.8,1544.1z"/>
				<path class="st35" d="M383.9,1555.3l38.8-3c-68.6-2.3-109.4-9.7-133-16.3c-15.7-4.5-25.3-20.2-22.1-36.3
					c5.2-26,17.3-53.8,36.1-82.9c25-38.6,61.5-79,108.3-119.9c12.4-10.8,24.9-21.1,37.1-30.8v-60.8
					C329.8,1307.2,70.8,1555.7,383.9,1555.3z"/>
				<path class="st33" d="M1848.5,824.2l66.9,91.1c210.3,24.5,35.1,252.6-66.1,365.5v31.4c82.4-48.6,225.9-152.9,268.3-309.9
					C2158.7,850.2,1972.6,824.8,1848.5,824.2z"/>
				<path class="st35" d="M2047.5,958.7c-19.8-76.7-104.9-95.6-172.1-98l40,54.5c200.8,23.4,50.2,232.3-51.9,349.5
					C1956.7,1169.8,2067.7,1036.8,2047.5,958.7z"/>
				<path class="st33" d="M1789.7,1343.6c0,0,24.1-10.6,59.6-31.4v-31.4C1815.4,1318.7,1789.7,1343.6,1789.7,1343.6z"/>
				<path class="st36" d="M890,1116c2.1-3.3,20.8-5.5,25.4-8.8c4.9-3.5,15.7-14.3,10.8-21.1C914.5,1069.7,893.8,1110,890,1116z"/>
				<path class="st36" d="M383.9,975.6c2.1-3.3,20.8-5.5,25.4-8.8c4.9-3.5,15.7-14.3,10.8-21.1C408.3,929.3,387.7,969.6,383.9,975.6
					z"/>
				<path class="st36" d="M644,920.8c2.1-3.3,20.8-5.5,25.4-8.8c4.9-3.5,15.7-14.3,10.8-21.1C668.4,874.6,647.8,914.9,644,920.8z"/>
				<path class="st36" d="M514.7,971.3c2.1-3.3,20.8-5.5,25.4-8.8c4.9-3.5,15.7-14.3,10.8-21.1C539.2,925.1,518.6,965.4,514.7,971.3
					z"/>
				<path class="st36" d="M602.8,739.1c2.1-3.3,20.8-5.5,25.4-8.8c4.9-3.5,15.7-14.3,10.8-21.1C627.3,692.9,606.7,733.2,602.8,739.1
					z"/>
				<path class="st36" d="M753.9,1177.3c3.9-0.7,18.3,11.2,23.9,12.3c5.9,1.1,21.2,1.5,22.7-6.7
					C804.2,1163.1,760.8,1176,753.9,1177.3z"/>
				<path class="st36" d="M680.8,1177.3c3.9-0.7,18.3,11.2,23.9,12.3c5.9,1.1,21.2,1.5,22.7-6.7
					C731.1,1163.1,687.7,1176,680.8,1177.3z"/>
				<path class="st36" d="M914.4,1177.3c3.9-0.7,18.3,11.2,23.9,12.3c5.9,1.1,21.2,1.5,22.7-6.7
					C964.7,1163.1,921.3,1176,914.4,1177.3z"/>
				<path class="st36" d="M579.4,861.1c3.9-0.7,18.3,11.2,23.9,12.3c5.9,1.1,21.2,1.5,22.7-6.7C629.7,846.9,586.4,859.8,579.4,861.1
					z"/>
				<path class="st36" d="M730.5,1247.1c3.9-0.7,18.3,11.2,23.9,12.3c5.9,1.1,21.2,1.5,22.7-6.7
					C780.8,1232.8,737.4,1245.7,730.5,1247.1z"/>
				<path class="st36" d="M1042.1,1069.4c3.9-0.7,18.3,11.2,23.9,12.3c5.9,1.1,21.2,1.5,22.7-6.7
					C1092.4,1055.2,1049,1068.1,1042.1,1069.4z"/>
				<path class="st36" d="M1029.4,1195.6c3.9-0.7,18.3,11.2,23.9,12.3c5.9,1.1,21.2,1.5,22.7-6.7
					C1079.7,1181.4,1036.4,1194.3,1029.4,1195.6z"/>
				<polygon class="st19" points="449.1,1312.2 533.5,1218.9 449.1,1342.4 				"/>
				<path class="st19" d="M553.6,1446.5c0-0.8-28.9-39.5-28.9-39.5l-9-44.5l-17.2-25.4l27.5,23.7l5.5,34.9c0,0,22,29,22,30.5
					C553.6,1427.8,553.6,1446.5,553.6,1446.5z"/>
			</g>
			<path class="st37" d="M1607.2,695.8c0,0,3.4,17.7-21.6,20.8c0,0,23.2,0,22.6,19.1c0,0,0.7-16.2,17.5-19.2
				C1625.8,716.5,1611.2,717,1607.2,695.8z"/>
			<path class="st37" d="M1702.2,1136.5c0,0,3.4,17.7-21.6,20.8c0,0,23.2,0,22.6,19.1c0,0,0.7-16.2,17.5-19.2
				C1720.8,1157.1,1706.2,1157.7,1702.2,1136.5z"/>
			<path class="st37" d="M1666.4,1535.4c0,0,3.4,17.7-21.6,20.8c0,0,23.2,0,22.6,19.1c0,0,0.7-16.2,17.5-19.2
				C1684.9,1556,1670.3,1556.6,1666.4,1535.4z"/>
			<path class="st37" d="M1653,911.1c0,0,4.7,24.5-29.9,28.9c0,0,32.1,0,31.4,26.5c0,0,1-22.5,24.3-26.7
				C1678.7,939.8,1658.5,940.5,1653,911.1z"/>
			<path class="st37" d="M1373.6,766.9c0,0,4.7,24.5-29.9,28.9c0,0,32.1,0,31.4,26.5c0,0,1-22.5,24.3-26.7
				C1399.3,795.5,1379.1,796.3,1373.6,766.9z"/>
			<path class="st37" d="M1437,688.1c0,0,4.7,24.5-29.9,28.9c0,0,32.1,0,31.4,26.5c0,0,1-22.5,24.3-26.7
				C1462.8,716.7,1442.6,717.5,1437,688.1z"/>
			<path class="st37" d="M1851.4,915.4c0,0,4.7,24.5-29.9,28.9c0,0,32.1,0,31.4,26.5c0,0,1-22.5,24.3-26.7
				C1877.1,944,1856.9,944.8,1851.4,915.4z"/>
			<path class="st37" d="M1385.8,1162.6c0,0,4.7,24.5-29.9,28.9c0,0,32.1,0,31.4,26.5c0,0,1-22.5,24.3-26.7
				C1411.6,1191.2,1391.3,1192,1385.8,1162.6z"/>
		</g>
	</g>
</g>
</svg>
