<?xml version="1.0" encoding="utf-8"?>
<!-- Generator: Adobe Illustrator 18.0.0, SVG Export Plug-In . SVG Version: 6.00 Build 0)  -->
<!DOCTYPE svg PUBLIC "-//W3C//DTD SVG 1.1//EN" "http://www.w3.org/Graphics/SVG/1.1/DTD/svg11.dtd">
<svg version="1.1" xmlns="http://www.w3.org/2000/svg" xmlns:xlink="http://www.w3.org/1999/xlink" x="0px" y="0px"
	 viewBox="0 0 2272 1872" enable-background="new 0 0 2272 1872" xml:space="preserve">
<g id="Background">
	<rect fill="#80B3C6" width="2272" height="1872"/>
</g>
<g id="Object">
	<ellipse fill="#6797AE" cx="471.6" cy="1665.4" rx="289.5" ry="48"/>
	<ellipse fill="#6797AE" cx="1124.1" cy="1665.4" rx="289.5" ry="48"/>
	<ellipse fill="#6797AE" cx="1847.2" cy="1665.4" rx="289.5" ry="48"/>
	<g>
		<path fill="#412314" d="M1747.9,1613.5c0,0-78.3,21.6-65.9,55.1c2.3,6.2,114.4,4.2,120.2-3.1c5.8-7.3,3.5-44.7-3.5-50.9
			C1791.8,1608.3,1747.9,1613.5,1747.9,1613.5z"/>
		<path fill="#412314" d="M1992,1613.5c0,0,78.3,21.6,65.9,55.1c-2.3,6.2-114.4,4.2-120.2-3.1c-5.8-7.3-3.5-44.7,3.5-50.9
			C1948,1608.3,1992,1613.5,1992,1613.5z"/>
		<path fill="#1E3244" d="M1707.9,1124.8c0,0,25,479.3,30.2,489.7s62.4,14.6,67.6,11.4c5.2-3.1,7.3-405.5,14.6-424.2
			c7.3-18.7,39.5-11.4,47.8-1c8.3,10.4,53,400.3,59.3,411.7s69.7,7.3,74.9-3.1s-29.1-466.9-37.4-489.7c-8.3-22.9-125.8-27-125.8-27
			L1707.9,1124.8z"/>
		<path fill="#344C61" d="M1755.4,711c0,0-50.6,11.1-56.8,15.9c-6.2,4.9-2.1,394.4,2.8,404.8c4.9,10.4,252.8,14.4,270.3-1.4
			c6.9-6.2,0-397.9-2.1-405.5c-2.1-7.6-73.5-16.6-73.5-16.6l-67.2,7.6L1755.4,711z"/>
		<path fill="#FFFFFF" d="M1831.5,723.3l-62.6,5.9l19.9,136.8l43.5,120.9l34.3-90l14-88.2c0,0,19.1-81.2,17.7-81.2
			C1896.9,727.5,1831.5,723.3,1831.5,723.3z"/>
		<ellipse fill="#FAAA6A" cx="1705.8" cy="531.1" rx="34.3" ry="38.5"/>
		<ellipse fill="#FAAA6A" cx="1976.1" cy="531.1" rx="34.3" ry="38.5"/>
		<polygon fill="#FAAA6A" points="1794.2,660.1 1792.1,712.1 1849.3,731.8 1880.5,718.3 1869,654.9 		"/>
		<path fill="#FECB8B" d="M1697.5,504.1c0,0,10.4,171.6,136.2,175.7c129.1,4.3,151.8-146.6,146.6-209s-81.1-123.7-81.1-123.7
			l-137.2,15.6l-56.1,27l-22.9,67.6L1697.5,504.1z"/>
		<path fill="#344C61" d="M1965.7,867c0,0,52,147.6,54.1,244.3l62.4-5.2c0,0,9.4-107.1-25-216.3c-34.3-109.2-53.7-157.4-87.7-165
			c-34-7.6-47.5,44.4-47.5,44.4L1965.7,867z"/>
		<path fill="#93541D" d="M2120.1,1234c0-3.1,5.2-53-15.6-57.2c-10.4-2.1-16.6,7.3-9.4,15.6c7.3,8.3,11.4,35.4,8.3,43.7
			C2100.4,1244.4,2120.1,1234,2120.1,1234z"/>
		<path fill="#344C61" d="M1706.1,826.1c0,0-47.8,83.2-49.9,91.5c-2.1,8.3,18.7,20.1,18.7,20.1l-6.2,59.6c0,0-61.7-17.3-81.1-55.5
			c-19.4-38.1,72.8-204.5,110.9-214.9l25.6,20.8l9.7,56.8L1706.1,826.1z"/>
		<polygon fill="#00A8E2" points="1825.4,745.7 1791.4,894.7 1812.9,943.9 1832.2,986.5 1880.8,886.4 1846.2,739.4 		"/>
		<path fill="#008BBA" d="M1812.2,740.1c0,0,8.3,14.6,22.9,13.9s27-17.3,27-17.3l-11.8-25l-30.5-2.8L1812.2,740.1z"/>
		<path fill="#FECB8B" d="M1695,940.5c2.1,0,18.7,0,21.5-19.4s3.5-29.8,15.2-29.8s19.4,21.5,13.9,40.2c0,0,38.8,0.7,44.4,6.9
			c5.5,6.2-0.7,20.8-0.7,26.3c0,5.5,6.2,6.9,2.8,19.4c-3.5,12.5-9.7,18-9.7,18s5.5,7.6-15.3,13.9c-20.8,6.2-65.9-6.2-78.3-16.6
			C1676.3,989,1695,940.5,1695,940.5z"/>
		<path fill="#1E3244" d="M1670.8,932.1c2.4-6.4,25,1.4,29.1,3.5s-11.1,43.7-3.5,70.7c0,0-25.6,8.3-33.3,0.7
			C1655.5,999.4,1663.9,950.9,1670.8,932.1z"/>
		<path fill="#E1EEF9" d="M1780.3,701.3c0,0,2.1-6.9,4.2-9c2.1-2.1,42.3,13.2,46.4,15.9s-13.9,31.2-18.7,36.7
			c-4.9,5.5-32.6-10.4-32.6-10.4L1780.3,701.3z"/>
		<path fill="#1E3244" d="M1780.3,701.3c0,0,34,242.6,52,285.6c0,0-61.7-66.5-74.9-125.5l14.6-27l-31.2-13.9c0,0-3.6-87.9,7.6-110.2
			C1753.3,700.6,1772.7,700.6,1780.3,701.3z"/>
		<path fill="#E1EEF9" d="M1886.5,701.3c0,0-2.1-6.9-4.2-9s-42.3,13.2-46.4,15.9s13.9,31.2,18.7,36.7c4.9,5.5,32.6-10.4,32.6-10.4
			L1886.5,701.3z"/>
		<path fill="#1E3244" d="M1886.5,701.3c0,0-36.2,242.6-54.2,285.6c0,0,63.9-66.5,77.1-125.5l-14.6-27l31.2-13.9
			c0,0,3.6-87.9-7.6-110.2C1913.6,700.6,1894.1,700.6,1886.5,701.3z"/>
		<path fill="#FECB8B" d="M2030.2,1133.2c0,0-26,32.2-25,50.9s19.8,21.8,19.8,21.8s12.5,11.4,22.9,5.2c10.4-6.2,15.6,6.2,22.9,1
			s14.6,6.2,21.8-2.1c7.3-8.3,7.3-50.9-9.4-76.9C2066.6,1107.2,2030.2,1133.2,2030.2,1133.2z"/>
		<path fill="#1E3244" d="M2016.7,1105.1c-6.9,9.2-1,28.1,7.3,32.2c8.3,4.2,57.2,5.2,64.5,0s11.4-30.2,4.2-36.4
			C2085.3,1094.7,2019.8,1100.9,2016.7,1105.1z"/>
		<path fill="#93541D" d="M2001.1,1234c0-3.1-5.2-53,15.6-57.2c10.4-2.1,16.6,7.3,9.4,15.6c-7.3,8.3-11.4,35.4-8.3,43.7
			C2020.8,1244.4,2001.1,1234,2001.1,1234z"/>
		<path fill="#E89641" d="M1949.2,1330c0,0-1,92.5,9.4,105c10.4,12.5,203.8,5.2,213.2-1s12.5-98.8,4.2-115.4
			c-8.3-16.6-93.6-30.2-93.6-30.2l-83.2,11.4L1949.2,1330z"/>
		<path fill="#C5722F" d="M1947,1229.9c0,0,203.8-4.2,222.5,4.2c18.7,8.3,16.6,95.7,12.5,107.1c-4.2,11.4-219.4,8.3-231.9,3.1
			C1937.7,1339,1940.8,1237.1,1947,1229.9z"/>
		<path fill="#FBAB18" d="M2054.1,1328.6c-2.3,10.4-2.1,39.5,6.2,40.6s29.1,7.3,35.4,0c6.2-7.3,4.2-37.4,2.1-44.7
			C2095.7,1317.2,2056.2,1319.3,2054.1,1328.6z"/>
		<path fill="#925736" d="M1702.6,347.1c-22.4,15.5-29.5,46.2-29.8,73.4c-0.3,27.2,7,53.9,14.2,80.1c2.1,7.7,8.3,16.3,17.2,12.3
			c9.8-4.3,6.1-15.1,5.1-22.9c-4.5-32.5,2.2-67.2,16.7-96.4c63,35.3,139,45.7,209.6,30.3c8.4-1.8,18.1-3.8,25,1.4
			c4.9,3.7,6.9,10,8.3,16c3.1,13.3,4.4,27.1,4,40.7c-0.2,5.3,0.8,12.4,6.1,13c4.6,0.6,7.6-4.6,9-8.9c16.6-48.8,7.9-105.5-22.6-147.2
			s-81.8-64.2-133.4-66.2C1766.1,270.2,1717.2,310.7,1702.6,347.1z"/>
		<path fill="#A96742" d="M1942.7,385c-30.3,6.2-61,10.3-91.9,6.1c-31.4-4.2-61.5-15.8-87.7-33.6c-3.9-2.7-7.3,3.5-3.7,6.3
			c26.5,19.8,57.5,32.8,90.1,38.6c32.4,5.8,66.6,5,97.1-8C1952.3,392,1948.1,383.8,1942.7,385z"/>
		<path fill="#A96742" d="M1911.1,343.5c-37,4-73.9-0.8-106.3-19.9c-4.2-2.5-7.8,3.8-3.8,6.5c32.2,21.3,73.4,31.4,111.2,22
			C1916.9,350.8,1916,343,1911.1,343.5z"/>
		<path fill="#E89641" d="M1950.5,1240.6c-0.3,1.4-0.9,2.9-1,4.4c-0.1,1.5-0.2,3-0.3,4.4c-0.1,2.3,3.2,2.5,3.8,0.5
			c0.5-1.4,0.9-2.9,1.4-4.3c0.4-1.3,0.4-3.1,0.6-4.5C1955.4,1238.6,1951.1,1238.1,1950.5,1240.6z"/>
		<path fill="#E89641" d="M1948.9,1263c-0.6,2.2-1,4.5-1.3,6.8c-0.4,2.6-0.3,4.6,0.3,7.2c0.5,2,3.3,1.8,3.9,0
			c1.3-4.1,1.5-8.3,2.4-12.5C1954.9,1261,1949.7,1259.6,1948.9,1263z"/>
		<path fill="#E89641" d="M1952.2,1286.9c-0.2-2.9-4.7-2.9-4.5,0c0.3,4.5,0.6,8.8,1.4,13.2c0.4,2.1,3.4,1.5,3.5-0.5
			C1952.8,1295.3,1952.5,1291.2,1952.2,1286.9z"/>
		<path fill="#E89641" d="M1948.5,1315.4c-0.3,3.2-0.8,6.3-0.2,9.6c0.4,2.3,3.5,1.8,4.2,0c1.1-3,1.1-6.3,1.4-9.6
			C1954.2,1311.9,1948.9,1312,1948.5,1315.4z"/>
		<path fill="#E89641" d="M1961.7,1335.1c-2.2-1.9-4.8-2.8-7.7-3.3c-1.5-0.3-3.3,1.8-1.7,3c2.4,1.9,4.9,3.3,8,3.7
			C1962,1338.8,1962.9,1336.2,1961.7,1335.1z"/>
		<path fill="#E89641" d="M1983.3,1337c-3-0.9-6.3-0.9-9.4-1.1c-2.1-0.1-2.6,3.4-0.5,3.7c3.1,0.4,6.3,1.2,9.5,0.8
			C1984.8,1340.3,1985.3,1337.6,1983.3,1337z"/>
		<path fill="#E89641" d="M2012.8,1336.7c-5.3-0.7-10.4-0.7-15.7-0.5c-3,0.1-3,4.5,0,4.6c5.4,0.2,10.4,0.2,15.7-0.5
			C2015.2,1340.1,2015.2,1337.1,2012.8,1336.7z"/>
		<path fill="#E89641" d="M2034.3,1336.9c-1-0.2-2-0.5-3.1-0.7c-1.1-0.2-2.3-0.1-3.5-0.1c-1.3,0-2.5,1.1-2.5,2.5
			c0,1.5,1.1,2.3,2.5,2.5c0.9,0.1,1.8,0.2,2.8,0.3c1,0.1,2.2-0.2,3.2-0.3c0.9-0.1,1.8-0.6,2-1.5
			C2036.1,1338.4,2035.4,1337.1,2034.3,1336.9z"/>
		<path fill="#E89641" d="M2121,1335.7c-3.9-0.9-7.6-1.1-11.6-1.3c-2.4-0.1-2.2,3.3,0,3.6c3.8,0.5,7.4,0.8,11.2,0.6
			C2122.2,1338.6,2122.7,1336.1,2121,1335.7z"/>
		<path fill="#E89641" d="M2147.4,1335.8c-2.9-0.7-5.8-0.6-8.8-0.5c-3.3,0.1-3.3,5.1,0,5.2c3,0.1,5.9,0.2,8.8-0.5
			C2149.5,1339.4,2149.5,1336.3,2147.4,1335.8z"/>
		<path fill="#E89641" d="M2169.2,1331.5c-3.1-0.5-5.8,1-8.7,2.1c-2.7,1.1-1.7,5.1,1.2,4.5c2.9-0.7,6.1-0.9,8.4-3
			C2171.2,1334,2170.7,1331.7,2169.2,1331.5z"/>
		<path fill="#E89641" d="M2180.3,1318.4c-0.3-2.4-4.1-2.7-5.1-0.7c-0.5,1.1-1.1,2.1-1.5,3.3c-0.4,0.9-0.6,1.7-1.1,2.6
			c-0.7,1.2-0.5,2.7,0.5,3.7c1.1,1.1,3.2,1.3,4.3,0c1-1.2,2.1-2.6,2.6-4.1C2180.6,1321.5,2180.5,1320.1,2180.3,1318.4z"/>
		<path fill="#E89641" d="M2176.4,1297c-1.5,2.7-1.8,5.5-1.2,8.5c0.5,2.8,4.9,2.1,4.9-0.7c-0.1-2.2,0.1-4.5,0.4-6.7
			C2180.7,1295.9,2177.4,1295.3,2176.4,1297z"/>
		<path fill="#E89641" d="M2181.1,1273.6c-0.5-2.1-3.7-2.1-4.2,0c-0.6,2.9-0.5,5.8-0.5,8.8c0,3.3,5.2,3.3,5.2,0
			C2181.6,1279.4,2181.8,1276.5,2181.1,1273.6z"/>
		<path fill="#E89641" d="M2178.9,1261.4c-0.2-1.4-0.5-2.7-0.7-4.1c-0.2-1.3-1.1-2.6-1.7-3.7c-1-2-3.7-0.8-3.8,1
			c-0.1,1.4-0.4,2.9,0,4.2c0.3,1.3,0.6,2.7,0.9,4c0.3,1.5,2,2.3,3.4,1.9C2178.5,1264.4,2179.2,1262.9,2178.9,1261.4z"/>
		<path fill="#E89641" d="M2174,1244.3c-0.7-1.9-1.4-3.7-2.3-5.6c-0.8-1.7-3.9-0.9-3.6,1c0.2,2,0.6,3.9,1,5.9
			C2169.8,1248.9,2175.1,1247.4,2174,1244.3z"/>
		<path fill="#FFE049" d="M2076.9,1332.7c-6.7,0-12.2,5.6-12.2,12.2c0,6.7,5.6,12.2,12.2,12.2c6.7,0,12.2-5.6,12.2-12.2
			C2089.1,1338.2,2083.5,1332.7,2076.9,1332.7z"/>
		<path fill="#1E3244" d="M1842.2,1008.2c-2.3-2.3-5.4-3.6-8.6-3.6c-2.2,0-4.2,0.6-6.1,1.7c-1.8,1.1-3.3,2.5-4.3,4.3l-0.1,0.2
			c-1.1,1.9-1.6,3.9-1.6,6.1c0,3.2,1.3,6.3,3.5,8.5c1.5,1.5,3.3,2.5,5.3,3.1c1.1,0.1,2.1,0.3,3.2,0.4c2.2,0,4.2-0.6,6.1-1.6
			c0.1,0,0.1-0.1,0.2-0.1c2.7-1.4,4.8-4.3,5.6-7.2C1846.5,1015.8,1845.3,1011.2,1842.2,1008.2z"/>
		<path fill="#1E3244" d="M1842.2,1084.5c-2.3-2.3-5.4-3.6-8.6-3.6c-2.2,0-4.2,0.6-6.1,1.7c-1.8,1.1-3.3,2.5-4.3,4.3l-0.1,0.2
			c-1.1,1.9-1.6,3.9-1.6,6.1c0,3.2,1.3,6.3,3.5,8.5c1.5,1.5,3.3,2.5,5.3,3.1c1.1,0.1,2.1,0.3,3.2,0.4c2.2,0,4.2-0.6,6.1-1.6
			c0.1,0,0.1-0.1,0.2-0.1c2.7-1.4,4.8-4.3,5.6-7.2C1846.5,1092.2,1845.3,1087.6,1842.2,1084.5z"/>
		<path fill="#925736" d="M1776.1,471.2c-9.5,0-19.1,6.9-21.1,16.3c-0.4,1.9-0.2,4.4,1.5,5.6c0.7,0.6,1.3,1.1,2.2,1.4
			c4.3,1.5,8.6-3.5,12.3-5.1c5.8-2.6,10.1,1.5,15.3,3.2c5.5,1.8,10.4-3,10.7-8.1C1797.6,474.7,1783.5,471.2,1776.1,471.2z"/>
		<path fill="#925736" d="M1924.4,479.1c-4.7-8.5-15.8-12.3-25.1-11.6c-8.6,0.7-19.9,7.3-19.9,17c0,3.5,3.1,5.1,6.2,4.7
			c4.8-0.7,8.7-3,13.7-3.3c5.1-0.3,8.4,3.6,12.3,6C1919.9,496.8,1928.9,487.2,1924.4,479.1z"/>
		<path fill="#FAAA6A" d="M1856.2,555.8c-2.9-7.8-12-11-18.7-5.8c-3.4,2.7,0.9,7.5,4.4,5.7c4.2-2.2,5.7,3.2,4.4,6.2
			c-1.7,3.8-5,7.2-7.4,10.6c-3,4.3,2.6,8.6,6.6,6.6C1854.3,575,1859.8,565.5,1856.2,555.8z"/>
		<path fill="#724225" d="M1806.2,529c-2.3-10.2-15.8-16.5-25.5-15.4c-9.5,1-19.6,11.3-19.4,21c0,3.4,4,4.8,6.4,2.6
			c4.7-4.2,7.8-11.6,14.9-12c7.1-0.4,11.4,7.9,18.1,9.3C1804.1,535.3,1807,532.5,1806.2,529z"/>
		<path fill="#724225" d="M1920.7,515.3c-4.3-4.6-9.5-6.8-15.8-7.4c-11.1-1.1-25.4,8.9-26,20.5c-0.2,4,4.3,5.9,7.4,4.3
			c6.1-3.1,9.2-9.3,16.8-9.5c7.1-0.1,8.7,8.1,14,11.2c3.2,1.8,6.8,0,8-3.2C1926.9,525.9,1924.3,519.2,1920.7,515.3z"/>
		<path fill="#FFFFFF" d="M1789.6,595.4c3.2-7.4,27,6.7,57.7,2.2c30.7-4.5,47.2-8.2,55.4-1.5c8.2,6.7-17.2,39.7-54.7,43.4
			C1810.6,643.3,1782.9,611.1,1789.6,595.4z"/>
		<path fill="#BBCED9" d="M1863.4,609.6c-8.8,1.4-17.3,3.2-26.2,3.2c-8.9,0-17.6-1.9-26.2-4c-1.9-0.5-3.2,2.3-1.4,3.3
			c16,8.3,38.7,10.8,55.6,3.8C1869,614.3,1867.6,608.9,1863.4,609.6z"/>
		<path fill="#BBCED9" d="M1882.1,604.7c-1,0.2-1.9,0.5-2.9,0.7c-1.2,0.3-2.4,1-3.5,1.5c-3.2,1.4-0.9,6.9,2.4,5.7
			c1.1-0.4,2.2-0.7,3.2-1.2c1-0.5,2-1.1,3-1.7C1887,608.1,1885.1,604,1882.1,604.7z"/>
	</g>
	<g>
		<path fill="#412314" d="M373.6,1613.5c0,0-78.3,21.6-65.9,55.1c2.3,6.2,114.4,4.2,120.2-3.1c5.8-7.3,3.5-44.7-3.5-50.9
			C417.5,1608.3,373.6,1613.5,373.6,1613.5z"/>
		<path fill="#412314" d="M617.7,1613.5c0,0,78.3,21.6,65.9,55.1c-2.3,6.2-114.4,4.2-120.2-3.1c-5.8-7.3-3.5-44.7,3.5-50.9
			C573.8,1608.3,617.7,1613.5,617.7,1613.5z"/>
		<path fill="#1E3244" d="M333.6,1124.8c0,0,25,479.3,30.2,489.7s62.4,14.6,67.6,11.4c5.2-3.1,7.3-405.5,14.6-424.2
			c7.3-18.7,39.5-11.4,47.8-1c8.3,10.4,53,400.3,59.3,411.7c6.2,11.4,69.7,7.3,74.9-3.1s-29.1-466.9-37.4-489.7
			c-8.3-22.9-125.8-27-125.8-27L333.6,1124.8z"/>
		<path fill="#344C61" d="M381.1,711c0,0-50.6,11.1-56.8,15.9c-6.2,4.9-2.1,394.4,2.8,404.8c4.9,10.4,252.8,14.4,270.3-1.4
			c6.9-6.2,0-397.9-2.1-405.5c-2.1-7.6-73.5-16.6-73.5-16.6l-67.2,7.6L381.1,711z"/>
		<path fill="#FFFFFF" d="M457.3,720.5l-62.6,5.9l19.9,136.8L458.2,984l34.3-90l14-88.2c0,0,19.1-81.2,17.7-81.2
			C522.8,724.7,457.3,720.5,457.3,720.5z"/>
		<path fill="#344C61" d="M189.4,449.3c0,0,75.9,264.1,185.1,320.2L326.7,859c0,0-186.1-194.4-191.3-404.5L189.4,449.3z"/>
		<ellipse fill="#FAAA6A" cx="331.5" cy="531.1" rx="34.3" ry="38.5"/>
		<ellipse fill="#FAAA6A" cx="601.9" cy="531.1" rx="34.3" ry="38.5"/>
		<polygon fill="#FAAA6A" points="419.9,660.1 417.8,712.1 475,731.8 506.2,718.3 494.8,654.9 		"/>
		<path fill="#FECB8B" d="M323.2,504.1c0,0,10.4,171.6,136.2,175.7c129.1,4.3,151.8-146.6,146.6-209s-81.1-123.7-81.1-123.7
			l-137.2,15.6l-56.1,27l-22.9,67.6L323.2,504.1z"/>
		<polygon fill="#00A8E2" points="451.1,745.7 417.2,894.7 438.6,943.9 457.7,986.6 506.6,886.4 471.9,739.4 		"/>
		<path fill="#008BBA" d="M437.9,740.1c0,0,8.3,14.6,22.9,13.9s27-17.3,27-17.3l-11.8-25l-30.5-2.8L437.9,740.1z"/>
		<path fill="#D8E2EA" d="M406.1,701.3c0,0,2.1-6.9,4.2-9c2.1-2.1,42.3,13.2,46.4,15.9c4.2,2.8-13.9,31.2-18.7,36.7
			c-4.9,5.5-32.6-10.4-32.6-10.4L406.1,701.3z"/>
		<path fill="#1E3244" d="M406.1,701.3c0,0,34,242.6,52,285.6c0,0-61.7-66.5-74.9-125.5l14.6-27l-31.2-13.9c0,0-3.6-87.9,7.6-110.2
			C379,700.6,398.4,700.6,406.1,701.3z"/>
		<path fill="#D8E2EA" d="M512.3,701.3c0,0-2.1-6.9-4.2-9s-42.3,13.2-46.4,15.9c-4.2,2.8,13.9,31.2,18.7,36.7
			c4.9,5.5,32.6-10.4,32.6-10.4L512.3,701.3z"/>
		<path fill="#1E3244" d="M512.3,701.3c0,0-36.2,242.6-54.2,285.6c0,0,63.9-66.5,77.1-125.5l-14.6-27l31.2-13.9
			c0,0,3.6-87.9-7.6-110.2C539.3,700.6,519.9,700.6,512.3,701.3z"/>
		<path fill="#925736" d="M328.4,347.1c-22.4,15.5-29.5,46.2-29.8,73.4c-0.3,27.2,7,53.9,14.2,80.1c2.1,7.7,8.3,16.3,17.2,12.3
			c9.8-4.3,6.1-15.1,5.1-22.9c-4.5-32.5,2.2-67.2,16.7-96.4c63,35.3,139,45.7,209.6,30.3c8.4-1.8,18.1-3.8,25,1.4
			c4.9,3.7,6.9,10,8.3,16c3.1,13.3,4.4,27.1,4,40.7c-0.2,5.3,0.8,12.4,6.1,13c4.6,0.6,7.6-4.6,9-8.9c16.6-48.8,7.9-105.5-22.6-147.2
			c-30.4-41.6-81.8-64.2-133.4-66.2C391.9,270.2,343,310.7,328.4,347.1z"/>
		<path fill="#FFFFFF" d="M595.3,938.4c-9.1,2.1-106.7,135.2-109.5,144.9c-2.8,9.7,153.2,126.2,164.3,126.2
			c11.1,0,113-137.2,110.9-146.3C758.9,1054.1,604.3,936.3,595.3,938.4z"/>
		<path fill="#FECB8B" d="M620.9,1094.3c0,0-62.4,41.6-65.9,52.7s15.2,22.2,22.2,20.1c0,0,2.8,13.9,15.9,11.1
			c0,0,9.7,19.4,25.6,13.2c15.9-6.2,40.2-36.7,39.5-68.6L620.9,1094.3z"/>
		<path fill="#344C61" d="M756.8,944.6c-5.5-56.1-106.1-203.1-161.5-219.7c0.7,2.6,2,49.4,3.1,110.4c23.7,25.3,69.9,76.9,78,104.5
			c11.1,37.4-54.1,145.6-54.1,145.6l49.9,29.1C672.2,1114.4,762.4,1000.8,756.8,944.6z"/>
		<path fill="#FECB8B" d="M183.2,435.8c0,0,6.2-32.2,22.9-49.9c16.6-17.7,22.9-39.5,8.3-35.4s-26,19.8-26,19.8s-3.1-50.9-17.7-61.3
			c-14.6-10.4-54.1-10.4-61.3,23.9s5.2,110.2,26,121.7L183.2,435.8z"/>
		<path fill="#1E3244" d="M127.1,438.9c-11.4,8.1,3.1,29.1,7.3,30.2c4.2,1,46.8-5.2,56.1-11.4c9.4-6.2,7.3-21.8-2.1-27
			C179,425.4,141.6,428.5,127.1,438.9z"/>
		<path fill="#1E3244" d="M625.1,1077c-8.5,3.2-15.9,13.2-11.1,18.7s40.9,36,51.3,33.3c10.4-2.8,15.9-16.6,11.1-23.6
			C671.5,1098.5,636.2,1072.9,625.1,1077z"/>
		<path fill="#A96742" d="M547.3,399.4c-15-0.2-29.9,0.6-44.9,0.2c-15.7-0.4-31.3-2.3-46.8-5.1c-30.4-5.6-59.8-16-87-30.8
			c-3.8-2.1-7.1,3.5-3.4,5.8c27,16.6,56.5,28.7,87.3,36.2c30.6,7.5,65.3,11.8,96.3,4.8C555.2,409.1,553.6,399.5,547.3,399.4z"/>
		<path fill="#A96742" d="M543.9,350.5c-23.3-0.4-46.6,1.3-69.8-2.4c-20.6-3.2-40.6-10.4-57.8-22.5c-2.8-2-6.4,2.7-3.7,4.8
			c36.1,28.1,86.8,35.4,131.3,29.5C549.8,359.3,550.2,350.7,543.9,350.5z"/>
		<path fill="#1E3244" d="M460,1006.4c-6.4,0-11.8,5.4-11.8,11.8s5.4,11.8,11.8,11.8c6.4,0,11.8-5.4,11.8-11.8
			S466.4,1006.4,460,1006.4z"/>
		<path fill="#1E3244" d="M473,1082.5c-0.3-1.4-0.9-2.6-1.7-3.8c-1-1.8-2.4-3.1-4.2-4.2c-1.8-1.1-3.8-1.6-5.9-1.6
			c-2.1,0-4.1,0.5-5.9,1.6c-1.8,1-3.1,2.4-4.2,4.2c-0.8,1.1-1.4,2-1.7,3.6c-0.5,2.5-0.7,4.2,0,6.7c0.6,2.2,1.7,3.9,3.3,5.5
			c4.6,4.7,12.5,4.7,17.1,0c0.8-0.8,1.5-1.6,2-2.6c0.4-1,0.8-1.9,1.2-2.9C473.5,1086.8,473.5,1084.7,473,1082.5z"/>
		<path fill="#B3BCC4" d="M601.9,985.8c-7,4-12.3,11.5-17.5,17.5c-5.7,6.6-11.3,13.2-16.9,19.8c-10.7,12.7-22.4,25.8-31.2,39.8
			c-1.2,2,1.5,4,3.1,2.4c11.9-11.3,22.5-24.6,33.6-36.8c5.8-6.4,11.7-12.8,17.7-19.1c5.4-5.8,12.5-11.7,16-18.9
			C608.1,987.6,605.1,984,601.9,985.8z"/>
		<path fill="#B3BCC4" d="M635.3,1012.2c-27.3,27.2-51.1,58-74.1,88.8c-2.4,3.2,2.9,6.1,5.3,3.1c23.2-30.2,48.5-58.6,72.6-88
			C641.2,1013.4,637.8,1009.7,635.3,1012.2z"/>
		<path fill="#925736" d="M398.1,471.1c-9.5,0-19.1,6.9-21.1,16.3c-0.4,1.9-0.2,4.4,1.5,5.6c0.7,0.6,1.3,1.1,2.2,1.4
			c4.3,1.5,8.6-3.5,12.3-5.1c5.8-2.6,10.1,1.5,15.3,3.2c5.5,1.8,10.4-3,10.7-8.1C419.6,474.6,405.5,471.1,398.1,471.1z"/>
		<path fill="#925736" d="M546.5,479c-4.7-8.5-15.8-12.3-25.1-11.6c-8.6,0.7-19.9,7.3-19.9,17c0,3.5,3.1,5.1,6.2,4.7
			c4.8-0.7,8.7-3,13.7-3.3c5.1-0.3,8.4,3.6,12.3,6C541.9,496.8,550.9,487.1,546.5,479z"/>
		<path fill="#FAAA6A" d="M478.2,555.8c-2.9-7.8-12-11-18.7-5.8c-3.4,2.7,0.9,7.5,4.4,5.7c4.2-2.2,5.7,3.2,4.4,6.2
			c-1.7,3.8-5,7.2-7.4,10.6c-3,4.3,2.6,8.6,6.6,6.6C476.4,574.9,481.9,565.5,478.2,555.8z"/>
		<path fill="#FFFFFF" d="M426.6,600.7c2.4-5.5,19.9,5,42.5,1.7c22.7-3.3,34.8-6.1,40.9-1.1s-12.7,29.3-40.3,32
			C442.1,636.1,421.6,612.3,426.6,600.7z"/>
		<path fill="#BBCED9" d="M481,611.2c-6.5,1-12.7,2.3-19.3,2.3c-6.6,0-13-1.4-19.4-2.9c-1.4-0.3-2.4,1.7-1,2.4
			c11.8,6.1,28.5,8,41,2.8C485.2,614.7,484.1,610.7,481,611.2z"/>
		<path fill="#BBCED9" d="M494.8,607.6c-0.7,0.2-1.4,0.3-2.2,0.5c-0.9,0.2-1.8,0.7-2.6,1.1c-2.4,1.1-0.7,5.1,1.8,4.2
			c0.8-0.3,1.6-0.5,2.4-0.9c0.7-0.4,1.5-0.8,2.2-1.2C498.4,610.1,497,607.1,494.8,607.6z"/>
		<path fill="#724225" d="M539.3,520.1c-0.4-5.8-4-12.2-10.5-12.4c-13.6-0.5-17,18.5-12.2,28.2c2.8,5.7,9.4,10.4,15.4,6
			C537.8,537.5,539.8,526.9,539.3,520.1z"/>
		<g>
			<path fill="#FFFFFF" d="M526.6,516.8c0,0,0,0.1,0,0.1c0,0,0,0,0,0C526.6,516.9,526.6,516.9,526.6,516.8z"/>
			<path fill="#FFFFFF" d="M526.7,517.4c0-0.1,0-0.3-0.1-0.4c0,0.2,0.1,0.5,0.1,0.7C526.7,517.6,526.7,517.5,526.7,517.4z"/>
			<path fill="#FFFFFF" d="M526.6,516.9c-0.2-0.9-0.6-1.8-1.5-2.3c-1-0.6-2.1-0.5-3.2,0c-0.9,0.4-1.7,1.1-2.2,2.1
				c-0.7,1.4-1,3.5,0,4.9c0.8,1,1.7,1.8,3.1,1.8c1.3,0,2.4-0.7,3.1-1.8c0.5-0.7,0.7-2,0.7-2.8C526.7,518.2,526.7,517.6,526.6,516.9z
				"/>
		</g>
		<path fill="#724225" d="M414,522.9c-0.4-5.8-4-12.2-10.5-12.4c-13.6-0.5-17,18.5-12.2,28.2c2.8,5.7,9.4,10.4,15.4,6
			C412.6,540.3,414.5,529.7,414,522.9z"/>
		<g>
			<path fill="#FFFFFF" d="M401.3,519.6c0,0,0,0.1,0,0.1c0,0,0,0,0,0C401.3,519.7,401.3,519.7,401.3,519.6z"/>
			<path fill="#FFFFFF" d="M401.4,520.2c0-0.1,0-0.3-0.1-0.4c0,0.2,0.1,0.5,0.1,0.7C401.4,520.4,401.4,520.3,401.4,520.2z"/>
			<path fill="#FFFFFF" d="M401.3,519.7c-0.2-0.9-0.6-1.8-1.5-2.3c-1-0.6-2.1-0.5-3.2,0c-0.9,0.4-1.7,1.1-2.2,2.1
				c-0.7,1.4-1,3.5,0,4.9c0.8,1,1.7,1.8,3.1,1.8c1.3,0,2.4-0.7,3.1-1.8c0.5-0.7,0.7-2,0.7-2.8C401.5,521,401.4,520.4,401.3,519.7z"
				/>
		</g>
	</g>
	<g>
		<path fill="#412314" d="M967.2,1613.5c0,0-78.3,21.6-65.9,55.1c2.3,6.2,114.4,4.2,120.2-3.1c5.8-7.3,3.5-44.7-3.5-50.9
			C1011.1,1608.3,967.2,1613.5,967.2,1613.5z"/>
		<path fill="#412314" d="M1211.2,1613.5c0,0,78.3,21.6,65.9,55.1c-2.3,6.2-114.4,4.2-120.2-3.1c-5.8-7.3-3.5-44.7,3.5-50.9
			C1167.3,1608.3,1211.2,1613.5,1211.2,1613.5z"/>
		<path fill="#1E3244" d="M927.2,1124.8c0,0,25,479.3,30.2,489.7c5.2,10.4,62.4,14.6,67.6,11.4c5.2-3.1,7.3-405.5,14.6-424.2
			c7.3-18.7,39.5-11.4,47.8-1c8.3,10.4,53,400.3,59.3,411.7s69.7,7.3,74.9-3.1c5.2-10.4-29.1-466.9-37.4-489.7
			c-8.3-22.9-125.8-27-125.8-27L927.2,1124.8z"/>
		<path fill="#344C61" d="M974.6,711c0,0-50.6,11.1-56.8,15.9c-6.2,4.9-2.1,394.4,2.8,404.8c4.9,10.4,252.8,14.4,270.3-1.4
			c6.9-6.2,0-397.9-2.1-405.5c-2.1-7.6-73.5-16.6-73.5-16.6l-67.2,7.6L974.6,711z"/>
		<path fill="#FFFFFF" d="M1050.8,721.1l-62.6,5.9l19.9,136.8l43.5,120.9l34.3-90l14-88.2c0,0,19.1-81.2,17.7-81.2
			C1116.2,725.4,1050.8,721.1,1050.8,721.1z"/>
		<path fill="#344C61" d="M1188.8,724.9c27.7,9.7,38.8,54.1,38.8,54.1l-49.9,5.5l-19.4-15.2L1188.8,724.9z"/>
		<ellipse fill="#FAAA6A" cx="925.1" cy="531.1" rx="34.3" ry="38.5"/>
		<ellipse fill="#FAAA6A" cx="1195.4" cy="531.1" rx="34.3" ry="38.5"/>
		<polygon fill="#FAAA6A" points="1013.5,660.1 1011.4,712.1 1068.6,731.8 1099.8,718.3 1088.3,654.9 		"/>
		<path fill="#FECB8B" d="M916.8,504.1c0,0,10.4,171.6,136.2,175.7c129.1,4.3,151.8-146.6,146.6-209s-81.1-123.7-81.1-123.7
			l-137.2,15.6l-56.1,27l-22.9,67.6L916.8,504.1z"/>
		<path fill="#344C61" d="M925.4,826.1c0,0-47.8,83.2-49.9,91.5c-2.1,8.3,18.7,20.1,18.7,20.1l-6.2,59.6c0,0-61.7-17.3-81.1-55.5
			c-19.4-38.1,72.8-204.5,110.9-214.9l25.6,20.8l9.7,56.8L925.4,826.1z"/>
		<polygon fill="#00A8E2" points="1044.7,745.7 1010.7,894.7 1032.2,943.9 1051.6,986.9 1100.1,886.4 1065.5,739.4 		"/>
		<path fill="#008BBA" d="M1031.5,740.1c0,0,8.3,14.6,22.9,13.9s27-17.3,27-17.3l-11.8-25l-30.5-2.8L1031.5,740.1z"/>
		<path fill="#D8E2EA" d="M999.6,701.3c0,0,2.1-6.9,4.2-9s42.3,13.2,46.4,15.9s-13.9,31.2-18.7,36.7c-4.9,5.5-32.6-10.4-32.6-10.4
			L999.6,701.3z"/>
		<path fill="#1E3244" d="M999.6,701.3c0,0,34,242.6,52,285.6c0,0-61.7-66.5-74.9-125.5l14.6-27l-31.2-13.9c0,0-3.6-87.9,7.6-110.2
			C972.6,700.6,992,700.6,999.6,701.3z"/>
		<path fill="#D8E2EA" d="M1105.8,701.3c0,0-2.1-6.9-4.2-9c-2.1-2.1-42.3,13.2-46.4,15.9s13.9,31.2,18.7,36.7
			c4.9,5.5,32.6-10.4,32.6-10.4L1105.8,701.3z"/>
		<path fill="#1E3244" d="M1105.8,701.3c0,0-36.2,242.6-54.2,285.6c0,0,63.9-66.5,77.1-125.5l-14.6-27l31.2-13.9
			c0,0,3.6-87.9-7.6-110.2C1132.8,700.6,1113.4,700.6,1105.8,701.3z"/>
		<path fill="#925736" d="M921.9,347.1c-22.4,15.5-29.5,46.2-29.8,73.4c-0.3,27.2,7,53.9,14.2,80.1c2.1,7.7,8.3,16.3,17.2,12.3
			c9.8-4.3,6.1-15.1,5.1-22.9c-4.5-32.5,2.2-67.2,16.7-96.4c63,35.3,139,45.7,209.6,30.3c8.4-1.8,18.1-3.8,25,1.4
			c4.9,3.7,6.9,10,8.3,16c3.1,13.3,4.4,27.1,4,40.7c-0.2,5.3,0.8,12.4,6.1,13c4.6,0.6,7.6-4.6,9-8.9c16.6-48.8,7.9-105.5-22.6-147.2
			c-30.4-41.6-81.8-64.2-133.4-66.2C985.4,270.2,936.5,310.7,921.9,347.1z"/>
		<path fill="#FECB8B" d="M914.1,941.3c0,0,76.9-8.2,98.1-9.4c21.2-1.2,17.7,20,3.5,24.1s-28.3,4.1-28.7,5.7
			c-0.4,1.6,7.5,13.1,1.3,17.9s-1.8,12.2-9.3,17.9c-7.5,5.7-0.9,10.2-14.1,13.1c-13.3,2.9-41.5-3.7-49-6.1
			C908.3,1002.1,907.4,947.9,914.1,941.3z"/>
		<path fill="#1E3244" d="M890.1,932.1c2.4-6.4,25,1.4,29.1,3.5s-11.1,43.7-3.5,70.7c0,0-25.6,8.3-33.3,0.7
			C874.8,999.4,883.1,950.9,890.1,932.1z"/>
		<path fill="#FFFFFF" d="M1066.1,750.5c-9,8.2-1,342.1,3.1,355.6c4.2,13.5,421.1,11.4,445,4.2c23.9-7.3,10.4-345.2,5.2-356.6
			C1514.3,742.2,1077.6,740.1,1066.1,750.5z"/>
		<path fill="#FECB8B" d="M1331.3,742.2c-1.2,15.6-4.2,47.8,5.2,53s14.6-1,22.9,10.4c8.3,11.4,17.7,4.2,23.9-1s9.4,5.2,19.8-5.2
			s17.7-55.1,5.2-68.6C1395.8,717.3,1333.4,714.1,1331.3,742.2z"/>
		<path fill="#F26666" d="M1101.5,956.4c-9.1,13.7-4.2,94.6-1,97.7c3.1,3.1,43.7,5.2,56.1-2.1c12.5-7.3,5.2-88.4,0-97.7
			C1151.4,945,1105.7,950.2,1101.5,956.4z"/>
		<path fill="#FBAE2E" d="M1189.8,928.5c-10.8,17.9-4.9,123.8-1.2,127.9c3.7,4.1,51.8,6.8,66.6-2.7s6.2-115.7,0-127.9
			C1249,913.5,1194.7,920.3,1189.8,928.5z"/>
		<path fill="#00B4B0" d="M1287.9,874.7c-11.5,24.5-5.3,169.5-1.3,175.1c3.9,5.6,55.2,9.3,70.9-3.7c15.8-13,6.6-158.3,0-175.1
			C1351,854.3,1293.2,863.6,1287.9,874.7z"/>
		<path fill="#1E7FC3" d="M1395.5,850.6c-12.4,27.9-5.6,193.2-1.4,199.6s59.2,10.6,76.1-4.2c16.9-14.9,7-180.5,0-199.6
			C1463.2,827.2,1401.2,837.8,1395.5,850.6z"/>
		<path fill="#B3BCC4" d="M1140.6,1075.9c-3.7-2.8-8.9-2-13.3-2c-4.5,0-9.2-0.4-13.6,0.7c-2.6,0.6-3.4,4.8-0.8,6
			c4.1,1.9,8.6,2.5,13,3.3c5.1,1,9.8,2.7,14.7,0.3C1144.1,1082.4,1143.2,1077.9,1140.6,1075.9z"/>
		<path fill="#B3BCC4" d="M1241.8,1073.1c-5.9-3.1-13.1,0.1-19.4,0.8c-6.5,0.8-14.8-0.6-20.7,2.5c-2.2,1.2-1.7,4,0,5.3
			c5.2,3.9,14.5,3.2,20.7,3.2c6.3,0,15.8,1,20.4-4C1244.8,1078.6,1244.8,1074.6,1241.8,1073.1z"/>
		<path fill="#B3BCC4" d="M1358.3,1075.1c-8-2.6-17-1.3-25.3-0.9c-9,0.5-18.3,0.4-27.1,2.3c-2.7,0.6-2.7,4.8,0,5.4
			c8.1,1.7,16.6,1.7,24.9,2.2c8.9,0.5,18.9,2.1,27.5-0.7C1362.4,1082,1362.4,1076.4,1358.3,1075.1z"/>
		<path fill="#B3BCC4" d="M1456,1076.6c-5-3.6-13.3-2-19.2-1.9c-7.8,0.1-15.6,0.6-23.4,1.4c-3.9,0.4-4.1,6.1,0,6.2
			c7.1,0.2,14.2,0.7,21.3,1.4c6.8,0.6,15.1,3.6,21.4,0.6C1459.3,1082.7,1458.4,1078.4,1456,1076.6z"/>
		<path fill="#B3BCC4" d="M1305.9,806.2c-4.6-2.7-11-3.5-16.1-4.9c-5.8-1.7-12.1-4.1-18.2-4.2c-3.4-0.1-5.7,4.7-2.9,7
			c4.4,3.6,9.8,6,15.2,8.3c-12,5.5-22.2,14.2-33.3,21.3c-12.1,7.8-24.7,14.8-37.4,21.5c-26.1,13.7-53.7,24.5-82.1,32.5
			c-7.1,2-4.1,12.7,3.1,11.1c28.7-6.6,56.6-16.1,83.5-28.2c13.8-6.1,27.1-13.2,40-20.9c12.5-7.4,27-15,36.1-26.6
			c0,1.3-0.1,2.5-0.1,3.8c-0.2,4.9,0.6,9.5,2.6,13.9c1.9,4.3,9.1,4.1,11.1,0c2.9-5.8,3-11.9,3.1-18.2
			C1310.5,817.2,1311.6,809.5,1305.9,806.2z"/>
		<path fill="#A96742" d="M1135,392.1c-28.3,2.5-56.9,3.6-85.1-0.5c-28.3-4.2-56.1-13.2-81.5-26.3c-2.7-1.4-5,2.5-2.4,4.1
			c49.3,30,113.2,45.8,170.1,31.3C1140.8,399.5,1140,391.6,1135,392.1z"/>
		<path fill="#A96742" d="M1151.7,344c-25.7,4.6-52.3,6.4-78.3,4.5c-26.5-2-52.7-8-78.3-14.9c-4.2-1.1-5.7,5-1.8,6.4
			c26,9.3,52.6,16.2,80,19.7c27.4,3.5,54.7,2.9,80.8-6.7C1159.9,351,1157.7,343,1151.7,344z"/>
		<path fill="#1E3244" d="M1050.2,1007.3c-6.2,0-11.4,5.2-11.4,11.4c0,6.2,5.2,11.4,11.4,11.4s11.4-5.2,11.4-11.4
			C1061.7,1012.5,1056.5,1007.3,1050.2,1007.3z"/>
		<path fill="#1E3244" d="M1051,1092.7c-6.2,0-11.4,5.2-11.4,11.4c0,6.2,5.2,11.4,11.4,11.4s11.4-5.2,11.4-11.4
			C1062.4,1097.9,1057.2,1092.7,1051,1092.7z"/>
		<path fill="#925736" d="M997.1,469c-9.5,0-19.1,6.9-21.1,16.3c-0.4,1.9-0.2,4.4,1.5,5.6c0.7,0.6,1.3,1.1,2.2,1.4
			c4.3,1.5,8.6-3.5,12.3-5.1c5.8-2.6,10.1,1.5,15.3,3.2c5.5,1.8,10.4-3,10.7-8.1C1018.6,472.5,1004.5,469,997.1,469z"/>
		<path fill="#925736" d="M1145.5,476.9c-4.7-8.5-15.8-12.3-25.1-11.6c-8.6,0.7-19.9,7.3-19.9,17c0,3.5,3.1,5.1,6.2,4.7
			c4.8-0.7,8.7-3,13.7-3.3c5.1-0.3,8.4,3.6,12.3,6C1140.9,494.7,1149.9,485,1145.5,476.9z"/>
		<path fill="#FAAA6A" d="M1076.1,555.4c-2.9-7.8-12-11-18.7-5.8c-3.4,2.7,0.9,7.5,4.4,5.7c4.2-2.2,5.7,3.2,4.4,6.2
			c-1.7,3.8-5,7.2-7.4,10.6c-3,4.3,2.6,8.6,6.6,6.6C1074.2,574.5,1079.8,565.1,1076.1,555.4z"/>
		<path fill="#724225" d="M1132.4,519.3c-0.4-5.8-4-12.2-10.5-12.4c-13.6-0.5-17,18.5-12.2,28.2c2.8,5.7,9.4,10.4,15.4,6
			C1130.9,536.7,1132.8,526.1,1132.4,519.3z"/>
		<g>
			<path fill="#FFFFFF" d="M1119.7,516c0,0,0,0.1,0,0.1c0,0,0,0,0,0C1119.7,516.1,1119.7,516.1,1119.7,516z"/>
			<path fill="#FFFFFF" d="M1119.7,516.6c0-0.1,0-0.3-0.1-0.4c0,0.2,0.1,0.5,0.1,0.7C1119.8,516.8,1119.7,516.7,1119.7,516.6z"/>
			<path fill="#FFFFFF" d="M1119.7,516.1c-0.2-0.9-0.6-1.8-1.5-2.3c-1-0.6-2.1-0.5-3.2,0c-0.9,0.4-1.7,1.1-2.2,2.1
				c-0.7,1.4-1,3.5,0,4.9c0.8,1,1.7,1.8,3.1,1.8c1.3,0,2.4-0.7,3.1-1.8c0.5-0.7,0.7-2,0.7-2.8
				C1119.8,517.4,1119.8,516.8,1119.7,516.1z"/>
		</g>
		<path fill="#724225" d="M1007.1,522.1c-0.4-5.8-4-12.2-10.5-12.4c-13.6-0.5-17,18.5-12.2,28.2c2.8,5.7,9.4,10.4,15.4,6
			C1005.6,539.5,1007.6,528.9,1007.1,522.1z"/>
		<g>
			<path fill="#FFFFFF" d="M994.4,518.8c0,0,0,0.1,0,0.1c0,0,0,0,0,0C994.4,518.9,994.4,518.9,994.4,518.8z"/>
			<path fill="#FFFFFF" d="M994.5,519.4c0-0.1,0-0.3-0.1-0.4c0,0.2,0.1,0.5,0.1,0.7C994.5,519.6,994.5,519.5,994.5,519.4z"/>
			<path fill="#FFFFFF" d="M994.4,518.9c-0.2-0.9-0.6-1.8-1.5-2.3c-1-0.6-2.1-0.5-3.2,0c-0.9,0.4-1.7,1.1-2.2,2.1
				c-0.7,1.4-1,3.5,0,4.9c0.8,1,1.7,1.8,3.1,1.8c1.3,0,2.4-0.7,3.1-1.8c0.5-0.7,0.7-2,0.7-2.8C994.6,520.2,994.5,519.6,994.4,518.9z
				"/>
		</g>
		<path fill="#EF4046" d="M1021.3,602.9c2.2-8.9,78.6-7.9,84.2-1.1c5.6,6.7-18.9,40.9-44.9,40.4
			C1027.5,641.7,1019.1,611.9,1021.3,602.9z"/>
		<path fill="#ED1B30" d="M1021.3,602.9c-1,4,0.1,12.1,4.6,20c11.8-9.4,26.9-14.7,42-14.4c11.4,0.3,22.6,3.7,32.3,9.6
			c5.1-7.2,7.4-13.8,5.3-16.4C1099.9,595.1,1023.5,594,1021.3,602.9z"/>
	</g>
</g>
</svg>
