<?xml version="1.0" encoding="utf-8"?>
<!-- Generator: Adobe Illustrator 16.0.0, SVG Export Plug-In . SVG Version: 6.00 Build 0)  -->
<!DOCTYPE svg PUBLIC "-//W3C//DTD SVG 1.1//EN" "http://www.w3.org/Graphics/SVG/1.1/DTD/svg11.dtd">
<svg version="1.1" id="Layer_2" xmlns="http://www.w3.org/2000/svg" xmlns:xlink="http://www.w3.org/1999/xlink" x="0px" y="0px"
	 width="1400px" height="980px" viewBox="0 0 1400 980" enable-background="new 0 0 1400 980" xml:space="preserve">
<rect fill="#E6E6E6" width="1400" height="980"/>
<g>
	<g>
		<path fill="#F2F2F2" d="M516.9,562.5c-9.9-2.5-10.5,0.5-11.6-4.5c-1.1-5-7.7-5-13.8-5c-6.1,0-8.3-0.5-13.2-4.5
			c-5-4-15.4-4.5-18.7-5.5c-3.3-1-1.7-9.5-8.3-17.4c-6.6-8-20.4-9.5-29.2-13.9c-8.8-4.5-6.1-21.9-18.7-20.4
			c-12.7,1.5-13.8,6-25.3,0.5c-11.6-5.5-19.3-9-25.3-5c-6.1,4-13.8,11.5-17.6,13.5c-3.9,2-10.5-1.5-14.3-1c-3.9,0.5-8.3-3.5-11-7
			c-2.8-3.5,5-20.9-2.2-20.9c-7.2,0-16.5-3-16.5-5.5c0-2.5,14.9-17.4,10.5-19.9c-4.4-2.5-13.2-1-20.9,8.5c-7.7,9.5-14.9,9-18.7,5.5
			c-3.9-3.5-12.7-23.9-5.5-35.4c7.2-11.5,16.6-18.2,25.4-17.7c8.8,0.5,12.3-2,21.2-2.5c8.8-0.5,17.3,3.2,19.5,6.2
			c2.2,3-2.2,8,3.3,13.9c5.5,6,8.8,3.5,9.4,6c0.6,2.5-4.4,5-6.6,5c-2.2,0-20.4,4.5-13.2,7.5c7.2,3,19.8,0.5,22.6,4.5
			c2.8,4-8.8,12.5,7.7,13c16.5,0.5,27.5,2.5,36.9,3c9.4,0.5,16,1,17.1,3c1.1,2,7.7-7.5-7.7-7.5c-15.4,0-27.5-8-35.8-9.5
			c-8.3-1.5-13.8-6.5-14.3-12.5c-0.5-6,0.6-10.5-2.8-15.4c-3.3-5-11.6-16.9-3.9-21.9c7.7-5,23.1-14.4,27-20.9c3.9-6.5,3.9-8,12.7-13
			c8.8-5,19.3-11.5,24.2-15.9c5-4.5,13.2-11.5,14.9-8c1.7,3.5,9.4,4.5,18.7,1.5c9.4-3,20.9-10.5,11-10.5c-9.9,0-16-2.5-13.2-6
			c2.8-3.5-6.6-5-9.4-4.5c-2.8,0.5-2.8-5,6.6-6.5c9.4-1.5,1.8,7.6,9.5,7.1c7.7-0.5,12.5-7.6,18-8.6c5.5-1,7.7,3.5,0.5,8
			c-7.2,4.5-9.4,3,0,5c9.4,2,12.1,6.5,17.6,2c5.5-4.5-1.1-6-1.7-12c-0.6-6,3.9-17.9-2.1-21.9c-6.1-4-8.9-8-8.9-12
			c0-4,1.1-12.5-5-8.5c-6.1,4-11,6.5-13.2,4.5c-2.2-2,1.1-6-3.9-9c-5-3-5.5-7.5-11.6-7c-6.1,0.5-12.1-4-15.4,2.5
			c-3.3,6.5-6.6,12-7.7,13.9c-1.1,2,3.9,9-0.5,12.5c-4.4,3.5-16.5,8.5-18.2,12c-1.6,3.5-8.3,12.5-9.9,6.5c-1.7-6,5.5-14.9-4.4-17.4
			c-9.9-2.5-17.6-0.5-19.3-6c-1.7-5.5-6.1-10.5,3.9-14.9c9.9-4.5,19.8-12.5,29.2-13.4c9.4-1,2.8,6,10.5,5.5c7.7-0.5-1.1-4,8.3-5.5
			c9.4-1.5,7.7-1.5,5-4.5c-2.8-3-1.1-3.5,6.1-6.5c7.2-3,1.7-5,8.8-7.5c7.2-2.5,8.8-5,12.7-5c3.9,0,3.3,1.5,1.1,6
			c-2.2,4.5-3.9,7.5,2.7,4.5c6.6-3,9.9-5,5-0.5c-5,4.5-8.3,4.5-15.4,5.5c-7.2,1-5,2-1.6,5.5c3.3,3.5,11.6,4,14.3,6
			c2.7,2,6.1,9,12.7,5.5c6.6-3.5,1.7-4,10.5-7.5c8.8-3.5,21.5-5.5,20.4-10c-1.1-4.5-9.9-7-11-12.5c-1.1-5.5,12.1-8.5-5-11
			c-17.1-2.5-7.2-4.5-15.4-4.5c-8.3,0-23.7,0-29.2,2.5c-5.5,2.5-8.8-1.5-11.6,2.5c-2.8,4,0.5,9.5-2.2,9.5c-2.8,0-7.7,4-9.9,0
			c-2.2-4-7.2-8-0.6-9.5c6.6-1.5,7.7-0.5,8.8-5c1.1-4.5-9.4-4-3.3-5c6.1-1,8.8,0.5,17.1,0.5c8.3,0,27,3,29.8-1.5
			c2.8-4.5-4.4-4.5-12.7-5c-8.3-0.5-22.6-3-28.6-0.5c-6.1,2.5-13.8,6.5-16.5,10.5c-2.8,4-2.8-1-8.3,0c-5.5,1-14.9,6.5-9.9,9.5
			c5,3,5,6.5-0.6,6.5c-5.5,0-7.2,5-11,5c-3.9,0-14.3-0.5-9.4-3c5-2.5,10.5-2.5,9.9-8.5c-0.5-6,5.5-8,5.5-10c0-2-13.2,4.5-23.7,1.5
			c-10.5-3-14.9-7.5-25.3-7c-10.5,0.5-24.2,13-17.6,13.9c6.6,1,11.6-1,12.7,2c1.1,3-1.1,5.5,2.8,7c3.9,1.5,11,5.5,1.7,3.5
			c-9.4-2-5-5.5-19.3-6c-14.3-0.5-23.1-4.5-38-1c-14.9,3.5-12.7,6.5-22.6,3.5c-9.9-3-33.9-14.2-50.4-11.2
			c-16.5,3-33.9,12.2-38.8,15.2c-5,3-7.7-4.6-16.5-4.1c-8.8,0.5-30-2.4-25.6,2.6c4.4,5,9.9,5.5,3.3,6.5c-6.6,1-15.4,1.5-18.7,6
			c-3.3,4.5-15.4,7-7.7,9c7.7,2,20.4,6.5,14.9,7c-5.5,0.5-33.6,10.5-45.7,12.9c-12.1,2.5-11.5,30.8-1,27.3
			c13.3-4.4,38.5-30.8,45.1-33.3c6.6-2.5,9.4-0.5,8.8,3c-0.5,3.5,7.7-1.5,14.3-6c6.6-4.5,8.4-15.1,13.9-12.1c5.5,3,7,1.6,11.4,0.6
			c4.4-1,26.1,6,30,8c3.9,2,9.3,7.5,12.1,9.5c2.8,2,3.9,6.5,1.1,7c-2.8,0.5-3.3,3-2.8,7c0.6,4,2.8,7.5-2.8,8.5c-5.5,1-4.4,7-1.1,6.5
			c3.3-0.5,5.5-2,6.1-5c0.6-3,7.7-8.5,6.6-4.5c-1.1,4-3.9,8-3.9,11c0,3-3.9,2.5-4.4,5.5c-0.6,3,0.5,3,3.3,5.5c2.8,2.5,1.1,4,0.6,9.5
			c-0.6,5.5-17.1,20.4-19.3,25.4c-2.2,5-1.1,12-1.1,17.4s-2.2,12.5,3.9,14.4c6.1,2,6.6,3,6.6,8c0,5,0,11,3.3,14.4
			c3.3,3.5,1.7,3,1.7,8.5c0,5.5,3.9,2.5,4.4,7c0.6,4.5-2.8,6.5,2.8,10c5.5,3.5,11.6,6,8.8,0.5c-2.8-5.5-4.4-10-7.2-17.9
			c-2.8-8-4.4-22.4-1.1-17.9c3.3,4.5,7.7,17.9,12.7,27.4c5,9.5,11,8.5,11,15.4c0,7-6.1,13.5,6.1,17.9c12.1,4.5,20.9,13.9,28.1,13
			c7.2-1,11.6-5,14.3-0.5c2.8,4.5,8.8,10.5,15.4,10.5c6.6,0,8.8,4,9.9,10c1.1,6,5.5,7,12.1,9c6.6,2,8.3,8.5,13.2,8
			c5-0.5,11.6-2.5,11.6,2c0,4.5,2.2,15.4-6.1,22.4c-8.3,7-12.1,12-7.7,16.4c4.4,4.5,0.6,9-1.7,12.5c-2.2,3.5,1.7,6.5,6.1,12
			c4.4,5.5,10.5,12,14.3,22.9c3.9,11,9.4,14.9,18.7,18.4c9.4,3.5,16.5,9.5,16.5,17.9c0,8.5-0.5,37.4-0.5,45.8c0,8.5,5,16.9,3.3,23.4
			c-1.7,6.5,0,12,2.2,14.4c2.2,2.5,1.7,8,2.2,13.5c0.5,5.5,7.2,1.5,7.2,6.5c0,5-2.7,12.5,0.6,14.9c3.3,2.5-3.9,11.5,11,19.9
			c14.9,8.5,16,9,17.1,10.5c1.1,1.5,6.1-3,6.1-0.5c0,2.5-8.3,17.1,7.2,17.1c15.4,0,24.8-5.2,15.4-11.7c-9.4-6.5-14.9-3.5-16.5-10
			c-1.6-6.5-3.9-5.5-5-10c-1.1-4.5,3.9-6.5,2.2-11c-1.7-4.5-9.6-4.9-9-9.4c0.5-4.5,5.7-8.5,6.8-10.5c1.1-2,1.1-4-1.7-6
			c-2.8-2-2.2-2.5,1.7-3.5c3.9-1,4.4,0.5,6.1-4.5c1.6-5,6.6-4.5,8.8-6c2.2-1.5,9.9-3.5,7.2-10c-2.8-6.5-10.1-10.2-4-10.2
			c6.1,0,13.9,0.3,17.8-6.7c3.9-7,2.2-8.5,6.6-13.9c4.4-5.5,2.4-10.2,2.4-14.2c0-4,0.3-7.7,6.4-10.2c6.1-2.5,25.9-5.5,28.7-12.9
			c2.8-7.5,5.5-15.4,4.4-23.4c-1.1-8-1.7-12.9,4.4-19.4c6.1-6.5,13.8-12,13.8-17.9C524.1,573.4,526.9,564.9,516.9,562.5z"/>
		<path fill="#F2F2F2" d="M620,225.3c6.1-6,4.4-9,12.7-12c8.3-3,6.1-7,5-13c-1.1-6,3.4-3.6,6.7-5.6c3.3-2,4.9-3.4,12.6-3.9
			c7.7-0.5,0.6-3,0.6-6c0-3-5.5-2.5-13.2-1.5c-7.7,1-6.6,0-12.1-2c-5.5-2-38-2-46.3-2c-8.3,0-23.1,1.5-30.9,2c-7.7,0.5-7.2,0-22-1.5
			c-14.9-1.5-54-0.5-68.3,1c-14.3,1.5-22.5-2.3-31.9,3.2c-9.4,5.5-13.7,3.1-24.2,4.1c-10.5,1-17.7-1.5-22.7-1.5
			c-5,0-4.4-2.5-13.2,0.5c-8.8,3-6.1,5-9.4,1c-3.3-4-7.7,0-23.1,3.5c-15.4,3.5,7.6,15.6,12.6,17.1c0,0,10.5-0.5,16.5-2
			c6.1-1.5,8.8,2,12.7,1c3.9-1,5-4.5,27-9c22-4.5,37.5-1,46.3,2.5c8.8,3.5,8.8,1.5,16.5-3c7.7-4.5,20.9-8,34.7-10
			c13.8-2,5,2.5-3.9,5.5c-8.8,3-16.5,2-14.9,7c1.7,5,18.7,3.5,23.7,3.5c4.9,0,5.5,7,6.1,11c0.5,4-0.5,6,0.5,10
			c1.1,4,3.9,3.5-1.1,7.5c-5,4-7.7,3.5-7.7,10.5c0,7,3.3,14.4,11,19.4c7.7,5,12.1,5.5,16.5-2.5c4.4-8,14.9-13,20.4-15.4
			c5.5-2.5,13.2,0,20.4-6c7.2-6,16.5-3.5,27-6.5C615,229.3,613.9,231.3,620,225.3z"/>
		<path fill="#F2F2F2" d="M629.7,253.6c-16.5,2-32-3-29.2,5c2.8,8,4,23.1,12.8,20.6c15.1-4.3,28.8-9.6,24.9-16
			C634.3,256.7,646.2,251.6,629.7,253.6z"/>
		<path fill="#F2F2F2" d="M736.2,215.3c0.6,0.2,1.2,0.2,1.7,0.4c5.5,2,9.4-1,9.9-5c6.1-8,3.9,6.5,10.5,4c6.6-2.5,16-8.5,23.7-12
			c7.7-3.5-9.4-2-23.1-4c-13.8-2-33.1,1.5-38.6,5C715.1,207,728.2,213.3,736.2,215.3z"/>
		<path fill="#F2F2F2" d="M817.7,194.7c0,0-2.8,3.5,3.9,3.5c6.6,0,20.4-4,31.4-4c11,0,7.7-3.5,5.5-3.5c-2.2,0-8.3-5.5-17.1-5
			c-8.8,0.5-8.3,4-13.8,4c-5.5,0-4.4-1.5-16-1C800.1,189.2,811.7,193.7,817.7,194.7z"/>
		<path fill="#F2F2F2" d="M1336.1,223.2c-1.1-6-0.4-16.7-19-15.7c-33,1.7-41.4-0.9-47.4-0.9s-3-3.8,1.4-3.8c4.4,0,4.3-4.4-0.1-6.4
			c-4.4-2-10.6-0.5-12.2,4c-1.7,4.5,6.3,5.9-6.4,5.9c-12.7,0-29.9,16.8-44.7,14.3c-14.9-2.5-19.4-11.5-32.1-12
			c-12.7-0.5-23.3,11-36.5,11c-13.2,0-8.8-4.5-14.3-10c-5.5-5.5-8.3-4-24.8-4c-16.5,0-7.7,6-4.4,7c3.3,1,12.1,3.5,18.2,8.5
			c6.1,5-11,3-18.2,3.5c-7.2,0.5-6.6-3.5-14.9-8c-8.3-4.5-28.7-2-40.2-2.5c-11.6-0.5-12.1,0-16.5-7.5c-4.4-7.5-13.8-3.5-25.9-3.5
			c-12.1,0-18.7-5.5-24.8-9c-6.1-3.5-15.4-4-28.7-6c-13.2-2-6,7.5-1.1,8c0,0,5.5,2,11,2.5c5.5,0.5,17.1,1,23.1,7.5
			c6.1,6.5-18.7,4-29.7,9.5c-11,5.5-19.8,3-27.5,6c-7.7,3,3.9,8,6.6,14.5c2.8,6.5,0,6.5-5,8c-4.9,1.5,1.7-7-0.5-9.5
			c-2.2-2.5-10.5-15.4-17.1-19.4c-6.6-4-5.5,3.5-4.4,9c1.1,5.5,2.8,5.5,4.4,9.5c1.7,4-7.2,0-11.6-3c-4.4-3-18.7,4-25.3,1
			c-6.6-3,2.2-2,2.2-5c0-3-7.7-0.5-9.9-5c-2.2-4.5,13.8-10,23.7-11.4c9.9-1.5,8.8-1.5,8.8-6c0-4.5-17.6-3-32.5,3.5
			c-14.9,6.5-11,11-13.2,15.4c-2.2,4.5,5,5,8.3,7.5c3.3,2.5-3.9,3.5-10.4,5.5c-6.6,2-8.3,0-16,2.5c-7.7,2.5-3.3,5.5-9.9,8
			c-6.6,2.5-6,2.5-11.6,4.5c-5.5,2,1.1-7.5,8.8-8.5c7.7-1,5.5-5,3.3-6.5c-2.2-1.5-16.5-5.5-31.9-9.5c-15.4-4-40.2,1.5-48.5,5
			c-8.3,3.5-7.7,6-8.8,11c-1.1,5-19.8,12.5-29.2,16.9c-9.4,4.5-1.1,10.5,1.6,14.5c2.8,4,8.8,2,16.5,0c7.7-2,6.6,6.5,7.7,9.5
			c1.1,3,5.5,3.5,12.7,0.5c7.2-3,5.5-9.9,5.5-13.9c0-4-1.7-6,3.3-11.5c5-5.5,9.4-9,13.8-11.4c4.4-2.5,3.9,2-2.8,7
			c-6.6,5-2.2,6.5,1.1,12.4c3.3,6,9.9,0,18.2-1c8.3-1-7.2,6.5-13.2,6.5c-6.1,0,0,6-3.9,6c-3.9,0-4.4,2.5-5,8.5c-0.6,6-2.8,4.5-7.2,6
			c-4.4,1.5-11,2-18.2,0.5c-7.2-1.5-6.6-7.5-11.6-11.5c-5-4-6.1,2-6.1,4.5c0,2.5-5,8-7.1,8c-2.2,0-8.8,6-12.7,11c-3.9,5-6.6,2-7.7,0
			c-1.1-2,2.7-5,0.5-10c-2.2-5-11-9-8.3-20.4c2.8-11.5-3.3-5.5-12.1-4.5c-8.8,1-11.6,4.5-12.1,7.5c-0.6,3-5.5,9-11,14.5
			c-5.5,5.5-1.6,10,1.1,15.9c2.7,6,9.9-2,12.1-7c2.2-5,5-7.5,8.3-5c3.3,2.5-5,7-6.1,13c-1.1,6,2.2,5.5,9.9,3.5c7.7-2,3.9-3.5,9.9-1
			c6.1,2.5-5.5,4.5-12.7,5c-7.2,0.5-4.4,5,1.7,9c6.1,4,3.3,10-0.6,10.5c-3.8,0.5-11,1.5-22,3.5c-11,2-1.1,10-3.3,14.4
			c-2.2,4.5-2.8,14.5,2.2,14.9c5,0.5,5,8,2.2,10.5c-2.8,2.5-3.3,5-9.9,9.5c-6.6,4.5-1.7,8.5-3.9,14.4c-2.2,6-7.7,2.5-14.3,9
			c-6.6,6.5-9.4,11.5-14.3,18.9c-5,7.5-5.5,8,0.6,16.9c6,9,0,11.5-5,19.4c-5,8,1.6,8.5,3.9,15.4c2.2,7,6.6,5.5,8.3,12.5
			c1.6,7,3.8,9,11.6,13.9c7.7,5,15.4,12,19.3,10.5c3.9-1.5,9.9-5.5,22.6-5c12.7,0.5,8.3-5,21.5-7c13.2-2,2,2.8,3.6,6.3
			c1.7,3.5,12.9,5.6,22.8,6.1c9.9,0.5,1.6,11.5,1.1,18.4c-0.6,7,0,7,5,13c5,6,11.6,19.4,13.2,26.4c1.6,7-1.6,14.9-6.1,21.4
			c-4.4,6.5-2.8,21.4,6.6,32.4c9.4,10.9,3.9,10.4,3.9,21.9c0,11.4,6.6,9.5,11.6,15.9c5,6.5,2.8,18.4,7.2,24.9
			c4.4,6.5,12.1,0.5,20.9-2.5c8.8-3,12.7-2,23.1-9c10.5-7,18.7-20.9,18.7-24.9c0-4,3.3-5.5,8.8-7.5c5.5-2,4.4-15,3.9-18.4
			c-0.5-3.5,1.1-6.5,3.3-8.5c2.2-2,16-13.9,20.9-18.9c4.9-5,0.5-12-0.5-19.9c-1.1-8-4.4-11-4.4-20.4c0-9.5-3.3-8.5,14.9-23.9
			c18.2-15.4,35.3-39.8,36.9-45.3c1.7-5.5,1.1-10,0-14c-1.1-4-24.8,4-30.3,4c-5.5,0-19.6-10.6-20.7-14.6c-1.1-4-5.2-8.3-12.4-14.3
			c-7.2-6-1.6-14.5-7.2-20.9c-5.5-6.5-8.3-15.9-9.4-21.4c-1.1-5.5,8.3,4,15.4,11.4c7.2,7.5,16.6,21.4,19.3,26.4
			c2.8,5,4.9,12.5,5.5,18.4c0.5,6,5,7,11.6,6.5c6.6-0.5,29.8-11.5,38-15c8.3-3.5,18.2-13.9,22-23.9c3.9-10-8.3-8.5-13.8-13.5
			c-5.5-5-5.5,0-12.1,1.5c-6.6,1.5-12.1-6.5-22.6-15.4c-10.5-9-3.9-6-1.6-8c2.2-2,12.7,4.5,18.7,11c6.1,6.5,7.1,4,14.3,4
			c7.2,0,8.8,3,18.2,5.5c9.4,2.5,14.3-1,22.3-0.2c8,0.8,6.9,4.2,12.4,12.2c5.5,8,3.3,5.5,15.4,6.5c12.1,1,3.3,0,3.3,7
			c0,7,1.1,9.5,8.3,17.9c7.1,8.5,9.9,24.4,12.1,32.4c2.2,8,6.6,0,13.8,0c7.2,0-2.1,7.6,6.1,13.4c9.4,6.8,8.8-2.9,8.8-5.9
			c0-3-2.8-10-6.1-12.5c-3.3-2.5-7.7-2-3.9-6c3.9-4-4.5-6.6-4.5-12c0-5.5,2.2-12.9,4.9-15.4c2.8-2.5,16.1-9.5,22.1-15.9
			c6.1-6.5,11-7.5,19.3-7c8.3,0.5,1.6,1.5,6.6,7.5c5,6,6.1,14.5,11.6,20.4c5.5,6,6.1-1,10.5-3c4.4-2,1.7,6,5,11.9
			c3.3,6,1.1,14,1.1,19.4c0,5.5,7.2,11,11.6,15.9c4.4,5,2.8,7.5,0,9.5c-2.8,2-8.3-5-12.7-9c-4.4-4-11-1.5-6.6,3
			c4.4,4.5,7.2,12.4,12.1,20.9c5,8.5,15.4,18.4,22.6,27.4c7.2,9,30.3,13,39.1,13c8.8,0,26.4,7,35.3,8c8.8,1,15.4,0,21.5-3
			c6.1-3,3.3-6.5,2.8-8c-0.5-1.5-5,1.5-11,2.5c-6.1,1-7.7,1-15.4,1.5c-7.7,0.5-2.8-2.5-11-3c-8.3-0.5-16.5-2-25.9-5
			c-9.4-3-14.3-5.5-20.9-7.5c-6.6-2-0.6-5.5-1.1-13.9c-0.5-8.5-6.6-5-11.6-8c-5-3-3.3-9.5-1.1-7.5c2.2,2,2.8,4.5,2.8-6
			c0-10.5-10.5-17.4-17.1-26.4c-6.6-9-5.5-13.9-5-18.4c0.5-4.5,12.1,4,18.2,10.5c6,6.5,6,6.5,9.4,5c3.3-1.5,13.2-6.5,15.4-14.5
			c2.2-8-17.6-23.9-20.4-31.4c-2.8-7.5,3.9-3,7.2-8c3.3-5,7.2,2,5,5.5c-2.2,3.5,0.6,5.5,2.8,9c2.2,3.5,2.2,0,4.4-4.5
			c2.2-4.5,0.5-6,4.4-9c3.9-3,18.7-7,22.6-10.5c3.9-3.5,6.6-7.5,11.6-19.9c5-12.5-0.5-11.9-2.8-16.4c-2.2-4.5-8.8-12-12.7-16.4
			c-3.9-4.5-0.5-3.5,2.2-5c2.8-1.5,0.5-5-6.1-7c-6.6-2-5.5,2-11.6,1c-6.1-1-2.8-5,3.9-12c6.6-7,3.3,1.5,7.7,4.5c4.4,3,5.5-2.5,8.8-1
			c3.3,1.5,9.9,4.5,14.9,10.5c5,6,4.9,14.6,9.9,14.1c5-0.5,5-4.2,7.2-8.7c2.2-4.5-5-9-8.9-12.5c-3.9-3.5-8.7-3-5.4-6
			c3.3-3,0.5-7.5,2.2-11c1.6-3.5,7.7-1.5,13.8-4c6.1-2.5,6.6-11,6.6-19.9c0-9-5-13-7.7-15.9c-2.8-3,3.3-1.5,8.3,2
			c5,3.5,12.7,22.4,14.3,29.9c1.7,7.5,0.5,7.5,7.2,13.9c6.6,6.5,4.4,5.5,2.2,13c-2.2,7.5-7.7,9.5-16,11.5c-8.3,2-5.5,3.5-10.5,11
			c-5,7.5,2.8,8,7.2,10c4.4,2,4.9-6.3,10.5-9.7c5.5-3.5,13.2-5.2,22.6-5.2c9.4,0-2.7-11.5-3.3-17.4c-0.6-6-1.1-9.9-3.3-14.4
			c-2.2-4.5,2.2-4.5,8.8-7.5c6.6-3,6.1-9,2.2-9c-3.9,0-7.2,2.5-16,2c-8.8-0.5-6.6-7-8.8-9.5c-2.2-2.5-5-8-5.5-12.4
			c-0.5-4.5-8.3-10.5-13.8-14.9c-5.5-4.5-8.8-7.5-8.8-5.5c0,2-3.3-0.5-11-1c-7.7-0.5-9.4,1-16,0.5c-6.6-0.5,0.5-10.5,3.3-17.4
			c2.8-7,10.5-3,16.5-3c6.1,0,27.4-23.8,36.2-21.8c8.8,2,5-5,6.6-10.5c1.6-5.5,5.5-2.5,10.5-0.5c4.9,2,6.6,2.5,6.6-2
			c0-4.5,4.4-5.5,8.3-1.5c1.9,2,1.6,5.3,0.7,8c-1.6,5.2-2.1,10.7-1.3,16.1c0.8,5.2,2.3,10.6,5.3,12c6.1,3,3.6,19.6,10.8,24
			c7.1,4.5,5-7.5,5-16c0-8.5-3.4-22.8-8.4-30.8c-5-8-1.7-4.5,7.7-4.5c9.4,0,9.9-3,12.1-5.5c2.2-2.5,3.9-3,12.1-3c8.3,0,3.3-3-0.5-7
			c-3.9-4-11.6-3-8.8-5.5c2.8-2.5,17.6,1.5,24.8,4C1338.9,231.2,1337.2,229.2,1336.1,223.2z M822.2,389c-3.3,6-4.9,10-9.9,8.5
			c-5-1.5-21.5-1-29.8-3.5c-8.3-2.5-20.4-7-22.6-1.5c-2.2,5.5,5.5,10-8.3,5.5c-13.8-4.5-28.6-10-30.3-13.9c-1.6-4,5.5-14.9-4.4-14.9
			c-9.9,0-23.7-0.5-28.1,2.5c-4.4,3-21.5,8.5-27,7c-5-1.3-12.7-3-3.9-6.5c8.8-3.5,19.3-1.5,20.4-6.5c1.1-5-7.7-6,1.1-10.4
			c8.8-4.5,5.5-8.5,11.6-11c6.1-2.5,14.3-2,18.7-3.5c4.4-1.5-1.6-3,7.2,1.5c8.8,4.5,14.3,13,18.7,13.5c4.4,0.5,7.2,3.5,4.4,5.5
			c-2.8,2-7.2,3.5-8.8,3.5c-1.6,0-2.8,4-1.1,4.5c1.6,0.5,5.5,7,8.3,5c2.8-2-1-5.2,4-6.7c5-1.5,10.9-3.2,8.7-6.2
			c-2.2-3-4.4-6.5,0-4.5c4.4,2,9.6,1.7,4.6-2.8c-4.9-4.5-7.9-5.1-14-9.1c-6.1-4-12.7-6-12.7-9c0-3-3.9-8.5,2.2-6.5
			c6.1,2,27,12.5,27,16.4c0,4,5.5,11,0.5,14.4c-5,3.5,5,4.5,7.2,6.5c2.2,2,1.1,7.5,7.2,6.5c6.1-1,10.5-0.5,7.2-6
			c-3.3-5.5-8.8-8-3.3-10c5.5-2,6.6-4.5,8.3,4c1.7,8.5-0.6,11.5,12.7,12c13.2,0.5,22-3,23.7,0.5C823.3,377,825.5,383,822.2,389z
			 M843.7,351.6c-8.8-0.5-21.9,0-29,0c-7.2,0-14.4,1.7-14.4,1.7c-6-1-17.8-1.3-10.6-9.7c7.2-8.5,2.8-19.4,11.6-16.4
			c8.8,3,9.2,13.6,14.7,6.6c5.5-7,11.7-14.1,13.4-8.6c1.7,5.5-7.7,10,3.9,14.4C844.8,344.1,852.5,352.1,843.7,351.6z M898,372.8
			c-8.3,0-19.4-4.2-19.4-8.2c0-4-0.9-9.1-0.9-9.1c-2.8-11.2-11.4-12.3-11.4-18.8c0-6.5,6.7-11.5,15.5-11.5c8.8,0,19.9,0.1,13.3,7.1
			c-6.6,7-19.4,6.4-10.6,17.3C893.4,360.6,906.2,372.8,898,372.8z"/>
		<path fill="#F2F2F2" d="M1198.6,442.5c4.3,1.1,5.6-15.1-2.5-12.9C1188.1,431.9,1193.5,441.2,1198.6,442.5z"/>
		<path fill="#F2F2F2" d="M1208.6,491.2c3.7,2.2,4.3,6.2,3.7,12.3c-0.6,6.2-6.8,5.6,3.7,9.5c10.5,3.9,22.9,10.6,19.8-1.7
			c-3.1-12.3-0.6-14-11.8-23.5c-11.1-9.5-11.8-3.4-13-11.2c-1.2-7.8-4.3-22.4-8.7-16.8c-3.8,4.9-6.8,6.7-2.5,15.1
			C1204.2,483.3,1204.9,488.9,1208.6,491.2z"/>
		<path fill="#F2F2F2" d="M1185.1,510.8c-3.7,4.4-11.2,14-16.1,17.3c-5,3.4-13.6-1.1-13,6.7c0.6,7.8,1.2,11.2,1.9,16.8
			c0.6,5.6,1.9,9,11.1,9s13.6,2.8,16.7,1.7c3.1-1.1,2.5-6.2,6.2-12.9c3.7-6.7,9.9-5,7.4-10.1c-2.5-5-2.5-3.9-2.5-9
			c0-5,3.1-1.7,1.2-10.1C1196.2,511.9,1189.4,505.7,1185.1,510.8z"/>
		<path fill="#F2F2F2" d="M1315.7,562.8c-8.1-7.8-21.7-13.4-27.2-12.9c-5.6,0.6-10.5,8.4-13.6,5.6c-3.1-2.8-12.4-16.2-17.3-12.3
			c-5,3.9,0.6,8.4-5.6,8.4s-8.1,6.7-9.3-2.2c-1.2-9-6.2-13.4-7.4-6.7c-1.2,6.7-1.9,11.2-4.9,6.2c-3.1-5-5-1.7-5-6.7
			s-12.4-10.6-17.3-5c-3.1,3.5-4.3,3.9-5.6,11.8c-1.2,7.8-4.3,20.2,2.5,16.8c6.8-3.4,8.1-0.6,11.1-4.5c3.1-3.9,6.8-6.2,12.4-3.9
			c5.6,2.2,3.1,2.2,13,1.1c9.9-1.1,14.9-1.1,21.7,2.8c6.8,3.9,20.4,1.7,20.4,5.6c0,3.9-14.2,6.7,0,10.6c14.2,3.9,17.3,12.9,21.7,8.4
			c4.3-4.5,10.5-10.6,14.9-6.2c4.3,4.5,21,16.8,18,10.1c-3.1-6.7-2.5-12.9,7.4-20.1c9.9-7.3,7.4-10.6,3.1-10.6
			c-4.3,0-4.3,5-14.2,6.2C1324.4,566.2,1323.7,570.6,1315.7,562.8z"/>
		<path fill="#F2F2F2" d="M1320,635c-5.6-12.9-5.6-22.9-8.7-28.5c-3.1-5.6-0.6-12.3-9.9-12.3c-3.8,0-3.7,2.2-6.8,9.5
			c-3.1,7.3,0.6,20.7-7.4,19c-8.1-1.7-11.8-5-13.6-12.3c-1.9-7.3,2.5-14-3.7-14c-6.2,0-23.5-3.9-27.9,2.2c-4.3,6.2,1.2,8.4-8,8.4
			c-9.3,0-13,0-18,5.6c-5,5.6-11.8,21.3-38.4,22.4c-26.6,1.1-13,14-13,28c0,14-14.2,22.4-8,27.4c6.2,5-1.9,11.8,11.1,7.8
			c13-3.9,24.8-5,45.2-7.8c20.4-2.8,29.7-3.9,30.3,5c0.6,9-2.5,2.8,5.6,4.5c8.1,1.7-0.6,13.4,8.7,14.6c9.3,1.1,1.6,9.1,9.6,9.1
			c8.1,0,5.9,5.9-0.9,5.9c-6.8,0-7,15.9,2.9,11.4c9.9-4.5,17.5-8.5,17.5-15.2c0-6.7-1.2-7.3,10.5-15.7c11.8-8.4,39-28.5,37.1-44.8
			C1332.4,649,1325.6,647.9,1320,635z"/>
	</g>
</g>
<g>
</g>
<g>
</g>
<g id="Airport">
</g>
<g>
	<defs>
		<rect id="SVGID_1_" width="1400" height="980"/>
	</defs>
	<clipPath id="SVGID_2_">
		<use xlink:href="#SVGID_1_"  overflow="visible"/>
	</clipPath>
	<g clip-path="url(#SVGID_2_)">
		<g>
			<g>
				<circle fill="#F7BD38" cx="491.5" cy="836.2" r="34.4"/>
				<circle fill="#FFD527" cx="487.7" cy="836.2" r="34.4"/>
				<path fill="#F7BD38" d="M487.7,803.6c-18,0-32.6,14.6-32.6,32.6s14.6,32.6,32.6,32.6s32.6-14.6,32.6-32.6
					S505.8,803.6,487.7,803.6z M487.7,867.7c-17.4,0-31.5-14.1-31.5-31.5c0-17.4,14.1-31.5,31.5-31.5c17.4,0,31.5,14.1,31.5,31.5
					C519.2,853.6,505.1,867.7,487.7,867.7z"/>
				<path opacity="0.11" fill="#FFFFFF" d="M457.6,819.6c-2.7,4.9-4.3,10.6-4.3,16.6c0,19,15.4,34.4,34.4,34.4
					c8.9,0,17-3.4,23.1-8.9L457.6,819.6z"/>
				<circle fill="#F7BD38" cx="487.7" cy="836.2" r="23.5"/>
				<path fill="#FFD527" d="M485.9,848.5c-2.7-0.1-5.4-0.7-7.9-1.8v-6.2c1.4,0.7,3,1.3,4.7,1.8c1.7,0.5,3.2,0.7,4.5,0.7
					c1.1,0,1.8-0.1,2.3-0.4s0.7-0.7,0.7-1.3c0-0.4-0.2-0.8-0.5-1c-0.4-0.3-0.9-0.6-1.8-1c-0.8-0.4-2-0.8-3.4-1.3
					c-1.6-0.6-2.9-1.2-3.8-2c-1-0.7-1.7-1.5-2.1-2.5c-0.4-0.9-0.7-2-0.7-3.4c0-2.1,0.7-3.7,2-4.8c1.3-1.2,3.3-1.9,6-2.2v-4.2h3.9
					v4.1c2.5,0.1,5,0.7,7.5,1.8l-2.2,5.3c-2.6-1.2-5-1.8-7.1-1.8c-1,0-1.7,0.1-2.1,0.4c-0.4,0.2-0.6,0.6-0.6,1.1
					c0,0.4,0.1,0.8,0.4,1c0.3,0.3,0.8,0.6,1.5,0.9c0.7,0.3,1.7,0.7,3,1.2c2.6,0.9,4.5,2,5.6,3.2c1.1,1.2,1.7,2.7,1.7,4.6
					c0,2.1-0.7,3.8-2,5.1c-1.3,1.3-3.3,2.1-5.8,2.4v5h-3.9V848.5z"/>
			</g>
			<g>
				<circle fill="#F7BD38" cx="527.9" cy="836.2" r="34.4"/>
				<circle fill="#FFD527" cx="524.1" cy="836.2" r="34.4"/>
				<path fill="#F7BD38" d="M524.1,803.6c-18,0-32.6,14.6-32.6,32.6s14.6,32.6,32.6,32.6s32.6-14.6,32.6-32.6
					S542.1,803.6,524.1,803.6z M524.1,867.7c-17.4,0-31.5-14.1-31.5-31.5c0-17.4,14.1-31.5,31.5-31.5c17.4,0,31.5,14.1,31.5,31.5
					C555.5,853.6,541.4,867.7,524.1,867.7z"/>
				<path opacity="0.11" fill="#FFFFFF" d="M493.9,819.6c-2.7,4.9-4.3,10.6-4.3,16.6c0,19,15.4,34.4,34.4,34.4
					c8.9,0,17-3.4,23.1-8.9L493.9,819.6z"/>
				<circle fill="#F7BD38" cx="524.1" cy="836.2" r="23.5"/>
				<path fill="#FFD527" d="M522.2,848.5c-2.7-0.1-5.4-0.7-7.9-1.8v-6.2c1.4,0.7,3,1.3,4.7,1.8c1.7,0.5,3.2,0.7,4.5,0.7
					c1.1,0,1.8-0.1,2.3-0.4c0.5-0.3,0.7-0.7,0.7-1.3c0-0.4-0.2-0.8-0.5-1c-0.4-0.3-0.9-0.6-1.8-1c-0.8-0.4-2-0.8-3.4-1.3
					c-1.6-0.6-2.9-1.2-3.8-2c-1-0.7-1.7-1.5-2.1-2.5c-0.4-0.9-0.7-2-0.7-3.4c0-2.1,0.7-3.7,2-4.8c1.3-1.2,3.3-1.9,6-2.2v-4.2h3.9
					v4.1c2.5,0.1,5,0.7,7.5,1.8l-2.2,5.3c-2.6-1.2-5-1.8-7.1-1.8c-1,0-1.7,0.1-2.1,0.4c-0.4,0.2-0.6,0.6-0.6,1.1
					c0,0.4,0.1,0.8,0.4,1c0.3,0.3,0.8,0.6,1.5,0.9c0.7,0.3,1.7,0.7,3,1.2c2.6,0.9,4.5,2,5.6,3.2c1.1,1.2,1.7,2.7,1.7,4.6
					c0,2.1-0.7,3.8-2,5.1c-1.3,1.3-3.3,2.1-5.8,2.4v5h-3.9V848.5z"/>
			</g>
			<g>
				<circle fill="#F7BD38" cx="562.9" cy="836.2" r="34.4"/>
				<circle fill="#FFD527" cx="559.1" cy="836.2" r="34.4"/>
				<path fill="#F7BD38" d="M559.1,803.6c-18,0-32.6,14.6-32.6,32.6s14.6,32.6,32.6,32.6s32.6-14.6,32.6-32.6
					S577.1,803.6,559.1,803.6z M559.1,867.7c-17.4,0-31.5-14.1-31.5-31.5c0-17.4,14.1-31.5,31.5-31.5c17.4,0,31.5,14.1,31.5,31.5
					C590.5,853.6,576.4,867.7,559.1,867.7z"/>
				<path opacity="0.11" fill="#FFFFFF" d="M528.9,819.6c-2.7,4.9-4.3,10.6-4.3,16.6c0,19,15.4,34.4,34.4,34.4
					c8.9,0,17-3.4,23.1-8.9L528.9,819.6z"/>
				<circle fill="#F7BD38" cx="559.1" cy="836.2" r="23.5"/>
				<path fill="#FFD527" d="M557.2,848.5c-2.7-0.1-5.4-0.7-7.9-1.8v-6.2c1.4,0.7,3,1.3,4.7,1.8c1.7,0.5,3.2,0.7,4.5,0.7
					c1.1,0,1.8-0.1,2.3-0.4c0.5-0.3,0.7-0.7,0.7-1.3c0-0.4-0.2-0.8-0.5-1c-0.4-0.3-0.9-0.6-1.8-1c-0.8-0.4-2-0.8-3.4-1.3
					c-1.6-0.6-2.9-1.2-3.8-2c-1-0.7-1.7-1.5-2.1-2.5c-0.4-0.9-0.7-2-0.7-3.4c0-2.1,0.7-3.7,2-4.8c1.3-1.2,3.3-1.9,6-2.2v-4.2h3.9
					v4.1c2.5,0.1,5,0.7,7.5,1.8l-2.2,5.3c-2.6-1.2-5-1.8-7.1-1.8c-1,0-1.7,0.1-2.1,0.4c-0.4,0.2-0.6,0.6-0.6,1.1
					c0,0.4,0.1,0.8,0.4,1c0.3,0.3,0.8,0.6,1.5,0.9c0.7,0.3,1.7,0.7,3,1.2c2.6,0.9,4.5,2,5.6,3.2c1.1,1.2,1.7,2.7,1.7,4.6
					c0,2.1-0.7,3.8-2,5.1c-1.3,1.3-3.3,2.1-5.8,2.4v5h-3.9V848.5z"/>
			</g>
			<g>
				<circle fill="#F7BD38" cx="491.5" cy="907.3" r="34.4"/>
				<circle fill="#FFD527" cx="487.7" cy="907.3" r="34.4"/>
				<path fill="#F7BD38" d="M487.7,874.7c-18,0-32.6,14.6-32.6,32.6s14.6,32.6,32.6,32.6s32.6-14.6,32.6-32.6
					S505.8,874.7,487.7,874.7z M487.7,938.8c-17.4,0-31.5-14.1-31.5-31.5c0-17.4,14.1-31.5,31.5-31.5c17.4,0,31.5,14.1,31.5,31.5
					C519.2,924.7,505.1,938.8,487.7,938.8z"/>
				<path opacity="0.11" fill="#FFFFFF" d="M457.6,890.7c-2.7,4.9-4.3,10.6-4.3,16.6c0,19,15.4,34.4,34.4,34.4
					c8.9,0,17-3.4,23.1-8.9L457.6,890.7z"/>
				<circle fill="#F7BD38" cx="487.7" cy="907.3" r="23.5"/>
				<path fill="#FFD527" d="M485.9,919.6c-2.7-0.1-5.4-0.7-7.9-1.8v-6.2c1.4,0.7,3,1.3,4.7,1.8c1.7,0.5,3.2,0.7,4.5,0.7
					c1.1,0,1.8-0.1,2.3-0.4s0.7-0.7,0.7-1.3c0-0.4-0.2-0.8-0.5-1c-0.4-0.3-0.9-0.6-1.8-1c-0.8-0.4-2-0.8-3.4-1.3
					c-1.6-0.6-2.9-1.2-3.8-2c-1-0.7-1.7-1.5-2.1-2.5c-0.4-0.9-0.7-2-0.7-3.4c0-2.1,0.7-3.7,2-4.8c1.3-1.2,3.3-1.9,6-2.2v-4.2h3.9
					v4.1c2.5,0.1,5,0.7,7.5,1.8l-2.2,5.3c-2.6-1.2-5-1.8-7.1-1.8c-1,0-1.7,0.1-2.1,0.4c-0.4,0.2-0.6,0.6-0.6,1.1
					c0,0.4,0.1,0.8,0.4,1c0.3,0.3,0.8,0.6,1.5,0.9c0.7,0.3,1.7,0.7,3,1.2c2.6,0.9,4.5,2,5.6,3.2c1.1,1.2,1.7,2.7,1.7,4.6
					c0,2.1-0.7,3.8-2,5.1c-1.3,1.3-3.3,2.1-5.8,2.4v5h-3.9V919.6z"/>
			</g>
			<g>
				<circle fill="#F7BD38" cx="527.9" cy="907.3" r="34.4"/>
				<circle fill="#FFD527" cx="524.1" cy="907.3" r="34.4"/>
				<path fill="#F7BD38" d="M524.1,874.7c-18,0-32.6,14.6-32.6,32.6s14.6,32.6,32.6,32.6s32.6-14.6,32.6-32.6
					S542.1,874.7,524.1,874.7z M524.1,938.8c-17.4,0-31.5-14.1-31.5-31.5c0-17.4,14.1-31.5,31.5-31.5c17.4,0,31.5,14.1,31.5,31.5
					C555.5,924.7,541.4,938.8,524.1,938.8z"/>
				<path opacity="0.11" fill="#FFFFFF" d="M493.9,890.7c-2.7,4.9-4.3,10.6-4.3,16.6c0,19,15.4,34.4,34.4,34.4
					c8.9,0,17-3.4,23.1-8.9L493.9,890.7z"/>
				<circle fill="#F7BD38" cx="524.1" cy="907.3" r="23.5"/>
				<path fill="#FFD527" d="M522.2,919.6c-2.7-0.1-5.4-0.7-7.9-1.8v-6.2c1.4,0.7,3,1.3,4.7,1.8c1.7,0.5,3.2,0.7,4.5,0.7
					c1.1,0,1.8-0.1,2.3-0.4c0.5-0.3,0.7-0.7,0.7-1.3c0-0.4-0.2-0.8-0.5-1c-0.4-0.3-0.9-0.6-1.8-1c-0.8-0.4-2-0.8-3.4-1.3
					c-1.6-0.6-2.9-1.2-3.8-2c-1-0.7-1.7-1.5-2.1-2.5c-0.4-0.9-0.7-2-0.7-3.4c0-2.1,0.7-3.7,2-4.8c1.3-1.2,3.3-1.9,6-2.2v-4.2h3.9
					v4.1c2.5,0.1,5,0.7,7.5,1.8l-2.2,5.3c-2.6-1.2-5-1.8-7.1-1.8c-1,0-1.7,0.1-2.1,0.4c-0.4,0.2-0.6,0.6-0.6,1.1
					c0,0.4,0.1,0.8,0.4,1c0.3,0.3,0.8,0.6,1.5,0.9c0.7,0.3,1.7,0.7,3,1.2c2.6,0.9,4.5,2,5.6,3.2c1.1,1.2,1.7,2.7,1.7,4.6
					c0,2.1-0.7,3.8-2,5.1c-1.3,1.3-3.3,2.1-5.8,2.4v5h-3.9V919.6z"/>
			</g>
			<g>
				<circle fill="#F7BD38" cx="562.9" cy="907.3" r="34.4"/>
				<circle fill="#FFD527" cx="559.1" cy="907.3" r="34.4"/>
				<path fill="#F7BD38" d="M559.1,874.7c-18,0-32.6,14.6-32.6,32.6s14.6,32.6,32.6,32.6s32.6-14.6,32.6-32.6
					S577.1,874.7,559.1,874.7z M559.1,938.8c-17.4,0-31.5-14.1-31.5-31.5c0-17.4,14.1-31.5,31.5-31.5c17.4,0,31.5,14.1,31.5,31.5
					C590.5,924.7,576.4,938.8,559.1,938.8z"/>
				<path opacity="0.11" fill="#FFFFFF" d="M528.9,890.7c-2.7,4.9-4.3,10.6-4.3,16.6c0,19,15.4,34.4,34.4,34.4
					c8.9,0,17-3.4,23.1-8.9L528.9,890.7z"/>
				<circle fill="#F7BD38" cx="559.1" cy="907.3" r="23.5"/>
				<path fill="#FFD527" d="M557.2,919.6c-2.7-0.1-5.4-0.7-7.9-1.8v-6.2c1.4,0.7,3,1.3,4.7,1.8c1.7,0.5,3.2,0.7,4.5,0.7
					c1.1,0,1.8-0.1,2.3-0.4c0.5-0.3,0.7-0.7,0.7-1.3c0-0.4-0.2-0.8-0.5-1c-0.4-0.3-0.9-0.6-1.8-1c-0.8-0.4-2-0.8-3.4-1.3
					c-1.6-0.6-2.9-1.2-3.8-2c-1-0.7-1.7-1.5-2.1-2.5c-0.4-0.9-0.7-2-0.7-3.4c0-2.1,0.7-3.7,2-4.8c1.3-1.2,3.3-1.9,6-2.2v-4.2h3.9
					v4.1c2.5,0.1,5,0.7,7.5,1.8l-2.2,5.3c-2.6-1.2-5-1.8-7.1-1.8c-1,0-1.7,0.1-2.1,0.4c-0.4,0.2-0.6,0.6-0.6,1.1
					c0,0.4,0.1,0.8,0.4,1c0.3,0.3,0.8,0.6,1.5,0.9c0.7,0.3,1.7,0.7,3,1.2c2.6,0.9,4.5,2,5.6,3.2c1.1,1.2,1.7,2.7,1.7,4.6
					c0,2.1-0.7,3.8-2,5.1c-1.3,1.3-3.3,2.1-5.8,2.4v5h-3.9V919.6z"/>
			</g>
		</g>
		<g>
			<g>
				<path fill="#39B54A" d="M1210.9,819.4l0,58.4c0,0.2,0,0.3,0,0.5c-0.2,3.1-2.8,5.5-6,5.5l-127.1,0c-3.1,0-5.7-2.4-6-5.5
					c0-0.2,0-0.3,0-0.5l0-58.4c0-0.1,0-0.1,0-0.2c0.1-3.2,2.7-5.8,6-5.8l127.1,0c3.2,0,5.9,2.6,6,5.8
					C1210.9,819.3,1210.9,819.4,1210.9,819.4z"/>
				<path fill="#8CC63F" d="M1210.9,819.2c-0.1-3.2-2.7-5.8-6-5.8l-19.5,0l-88.1,0l-19.5,0c-3.2,0-5.9,2.6-6,5.8c0,0.1,0,0.1,0,0.2
					l0,16l0,26.4l0,0l0,16c0,0.1,0,0.1,0,0.2c0,0,0,0,0,0c0,0.1,0,0.2,0,0.3c0,0,0,0,0,0c0,0,0,0,0,0c0,0.1,0,0.2,0,0.2
					c0,0,0,0.1,0,0.1c0,0.1,0,0.1,0,0.2c0,0,0,0.1,0,0.1c0,0.1,0,0.1,0,0.2c0,0,0,0.1,0,0.1c0,0.1,0,0.1,0,0.2c0,0,0,0.1,0,0.1
					c0,0.1,0,0.1,0,0.2c0,0,0,0.1,0,0.1c0,0,0,0.1,0.1,0.1c0,0,0,0.1,0,0.1c0,0,0,0.1,0.1,0.1c0,0,0,0.1,0.1,0.1c0,0,0,0.1,0.1,0.1
					c0,0,0,0.1,0.1,0.1c0,0,0,0.1,0.1,0.1c0,0,0,0.1,0.1,0.1c0,0,0,0.1,0.1,0.1c0,0,0.1,0.1,0.1,0.1c0,0,0,0.1,0.1,0.1
					c0,0,0.1,0.1,0.1,0.1c0,0,0.1,0.1,0.1,0.1c0,0,0.1,0.1,0.1,0.1c0,0,0.1,0.1,0.1,0.1c0,0,0.1,0.1,0.1,0.1c0,0,0.1,0.1,0.1,0.1
					c0,0,0.1,0.1,0.1,0.1c0,0,0.1,0.1,0.1,0.1c0,0,0.1,0.1,0.1,0.1c0,0,0.1,0.1,0.1,0.1c0,0,0.1,0.1,0.1,0.1c0,0,0.1,0.1,0.1,0.1
					c0,0,0.1,0.1,0.1,0.1c0,0,0.1,0.1,0.1,0.1c0,0,0.1,0.1,0.1,0.1c0,0,0.1,0.1,0.1,0.1c0,0,0.1,0.1,0.1,0.1c0,0,0.1,0,0.1,0.1
					c0,0,0.1,0,0.1,0.1c0,0,0.1,0,0.1,0.1c0,0,0.1,0,0.1,0.1c0,0,0.1,0,0.1,0.1s0.1,0,0.1,0.1c0,0,0.1,0,0.1,0.1c0,0,0.1,0,0.1,0.1
					c0,0,0.1,0,0.1,0.1c0,0,0.1,0,0.1,0c0,0,0.1,0,0.1,0c0,0,0.1,0,0.1,0c0,0,0.1,0,0.1,0c0,0,0.1,0,0.1,0c0,0,0.1,0,0.2,0
					c0,0,0.1,0,0.1,0c0.1,0,0.1,0,0.2,0c0,0,0.1,0,0.1,0c0.1,0,0.1,0,0.2,0c0,0,0.1,0,0.1,0c0.1,0,0.1,0,0.2,0c0,0,0.1,0,0.1,0
					c0.1,0,0.2,0,0.3,0h0l0,0l19.5,0l88.1,0l19.5,0c0.1,0,0.2,0,0.3,0c0,0,0.1,0,0.1,0c0.1,0,0.1,0,0.2,0c0,0,0.1,0,0.1,0
					c0.1,0,0.1,0,0.2,0c0,0,0.1,0,0.1,0c0.1,0,0.1,0,0.2,0c0,0,0.1,0,0.1,0c0.1,0,0.1,0,0.2,0c0,0,0.1,0,0.1,0c0,0,0.1,0,0.2,0
					c0,0,0.1,0,0.1,0c0,0,0.1,0,0.1,0c0,0,0.1,0,0.1,0c0,0,0.1,0,0.1-0.1c0,0,0.1,0,0.1-0.1c0,0,0.1,0,0.1-0.1c0,0,0.1,0,0.1-0.1
					c0,0,0.1,0,0.1-0.1c0,0,0.1,0,0.1-0.1c0,0,0.1,0,0.1-0.1c0,0,0.1,0,0.1-0.1c0,0,0.1,0,0.1-0.1c0,0,0.1-0.1,0.1-0.1
					c0,0,0.1-0.1,0.1-0.1c0,0,0.1-0.1,0.1-0.1c0,0,0.1-0.1,0.1-0.1c0,0,0.1-0.1,0.1-0.1c0,0,0.1-0.1,0.1-0.1c0,0,0.1-0.1,0.1-0.1
					c0,0,0.1-0.1,0.1-0.1c0,0,0.1-0.1,0.1-0.1c0,0,0.1-0.1,0.1-0.1c0,0,0.1-0.1,0.1-0.1c0,0,0.1-0.1,0.1-0.1s0.1-0.1,0.1-0.1
					c0,0,0.1-0.1,0.1-0.1c0,0,0.1-0.1,0.1-0.1c0,0,0.1-0.1,0.1-0.1c0,0,0.1-0.1,0.1-0.1c0,0,0.1-0.1,0.1-0.1c0,0,0-0.1,0.1-0.1
					c0,0,0-0.1,0.1-0.1c0,0,0-0.1,0.1-0.1c0,0,0-0.1,0.1-0.1c0,0,0-0.1,0.1-0.1c0,0,0-0.1,0.1-0.1c0,0,0-0.1,0.1-0.1
					c0,0,0-0.1,0.1-0.1c0,0,0-0.1,0-0.1c0,0,0-0.1,0.1-0.1c0,0,0-0.1,0-0.1c0-0.1,0-0.1,0-0.2c0,0,0-0.1,0-0.1c0-0.1,0-0.1,0-0.2
					c0,0,0-0.1,0-0.1c0-0.1,0-0.1,0-0.2c0,0,0-0.1,0-0.1c0-0.1,0-0.1,0-0.2c0,0,0,0,0-0.1c0-0.1,0-0.2,0-0.2c0,0,0,0,0,0
					c0,0,0,0,0,0c0-0.1,0-0.2,0-0.3c0,0,0,0,0,0c0-0.1,0-0.1,0-0.2l0,0l0-16l0-26.4l0-16C1210.9,819.4,1210.9,819.3,1210.9,819.2z
					 M1204.7,863.3c-2.4,0.8-4.7,2-6.9,3.4c-4.6,3.1-8.1,7.1-10.3,11.3l-92.2,0c-2.1-4.3-5.7-8.3-10.3-11.3
					c-2.7-1.8-5.5-3.1-8.3-3.9l0-28.3c2.8-0.8,5.7-2.1,8.4-3.9c4.6-3.1,8.2-7.1,10.3-11.4l92.1,0c2.1,4.3,5.7,8.3,10.3,11.4
					c2.2,1.5,4.6,2.6,6.9,3.4L1204.7,863.3z"/>
				<path fill="#8CC63F" d="M1124.1,867.4c-0.7-0.5-1.3-1.1-1.9-1.7c-5-5-7.7-11.6-7.7-18.6c0-14.5,11.8-26.3,26.3-26.3
					c14.5,0,26.3,11.8,26.3,26.3c0,7-2.7,13.6-7.7,18.6c-5,5-11.6,7.7-18.6,7.7C1134.6,873.4,1128.8,871.3,1124.1,867.4z
					 M1157,827.3c-4.4-3.6-10.1-5.8-16.2-5.8c-6.8,0-13.2,2.7-18.1,7.5c-4.8,4.8-7.5,11.2-7.5,18.1c0,6.8,2.7,13.2,7.5,18.1
					c4.8,4.8,11.2,7.5,18.1,7.5c6.8,0,13.2-2.7,18.1-7.5s7.5-11.2,7.5-18.1l0,0C1166.3,839.1,1162.7,832,1157,827.3z"/>
				<circle fill="#8CC63F" cx="1140.8" cy="847" r="22.7"/>
				<path fill="#39B54A" d="M1138.3,861.5c-3.2-0.1-6.3-0.9-9.3-2.2l0-7.3c1.7,0.9,3.6,1.6,5.6,2.2c2,0.6,3.8,0.9,5.3,0.9
					c1.3,0,2.2-0.2,2.8-0.5c0.6-0.3,0.9-0.8,0.9-1.5c0-0.5-0.2-0.9-0.6-1.2c-0.4-0.3-1.1-0.7-2.1-1.2c-1-0.4-2.3-0.9-4-1.5
					c-1.9-0.7-3.4-1.5-4.5-2.3c-1.2-0.9-2-1.8-2.5-2.9c-0.5-1.1-0.8-2.4-0.8-4c0-2.4,0.8-4.3,2.3-5.7c1.6-1.4,3.9-2.2,7-2.5l0-4.9
					h4.6l0,4.9c2.9,0.2,5.9,0.9,8.9,2.2l-2.6,6.3c-3.1-1.4-5.9-2.1-8.3-2.1c-1.2,0-2,0.1-2.5,0.4c-0.5,0.3-0.7,0.7-0.7,1.3
					c0,0.5,0.2,0.9,0.5,1.2c0.3,0.3,0.9,0.7,1.8,1.1s2,0.8,3.6,1.4c3.1,1.1,5.3,2.3,6.6,3.7s2,3.2,2,5.4c0,2.5-0.8,4.5-2.4,6
					c-1.6,1.5-3.9,2.5-6.9,2.9l0,5.9l-4.6,0V861.5z"/>
			</g>
			<g>
				<path fill="#39B54A" d="M1228.9,844.2l0,58.4c0,0.2,0,0.3,0,0.5c-0.2,3.1-2.8,5.5-6,5.5l-127.1,0c-3.1,0-5.7-2.4-6-5.5
					c0-0.2,0-0.3,0-0.5l0-58.4c0-0.1,0-0.1,0-0.2c0.1-3.2,2.7-5.8,6-5.8l127.1,0c3.2,0,5.9,2.6,6,5.8
					C1228.9,844,1228.9,844.1,1228.9,844.2z"/>
				<path fill="#8CC63F" d="M1228.9,844c-0.1-3.2-2.7-5.8-6-5.8l-19.5,0l-88.1,0l-19.5,0c-3.2,0-5.9,2.6-6,5.8c0,0.1,0,0.1,0,0.2
					l0,16l0,26.4l0,0l0,16c0,0.1,0,0.1,0,0.2c0,0,0,0,0,0c0,0.1,0,0.2,0,0.3c0,0,0,0,0,0c0,0,0,0,0,0c0,0.1,0,0.2,0,0.2
					c0,0,0,0.1,0,0.1c0,0.1,0,0.1,0,0.2c0,0,0,0.1,0,0.1c0,0.1,0,0.1,0,0.2c0,0,0,0.1,0,0.1c0,0.1,0,0.1,0,0.2c0,0,0,0.1,0,0.1
					c0,0.1,0,0.1,0,0.2c0,0,0,0.1,0,0.1c0,0,0,0.1,0.1,0.1c0,0,0,0.1,0.1,0.1c0,0,0,0.1,0.1,0.1c0,0,0,0.1,0.1,0.1s0,0.1,0.1,0.1
					c0,0,0,0.1,0.1,0.1c0,0,0,0.1,0.1,0.1c0,0,0,0.1,0.1,0.1c0,0,0,0.1,0.1,0.1c0,0,0.1,0.1,0.1,0.1c0,0,0,0.1,0.1,0.1
					c0,0,0.1,0.1,0.1,0.1c0,0,0.1,0.1,0.1,0.1c0,0,0.1,0.1,0.1,0.1c0,0,0.1,0.1,0.1,0.1c0,0,0.1,0.1,0.1,0.1c0,0,0.1,0.1,0.1,0.1
					c0,0,0.1,0.1,0.1,0.1c0,0,0.1,0.1,0.1,0.1c0,0,0.1,0.1,0.1,0.1c0,0,0.1,0.1,0.1,0.1c0,0,0.1,0.1,0.1,0.1c0,0,0.1,0.1,0.1,0.1
					c0,0,0.1,0.1,0.1,0.1c0,0,0.1,0.1,0.1,0.1c0,0,0.1,0.1,0.1,0.1c0,0,0.1,0.1,0.1,0.1c0,0,0.1,0.1,0.1,0.1c0,0,0.1,0,0.1,0.1
					c0,0,0.1,0,0.1,0.1c0,0,0.1,0,0.1,0.1c0,0,0.1,0,0.1,0.1c0,0,0.1,0,0.1,0.1s0.1,0,0.1,0.1c0,0,0.1,0,0.1,0.1c0,0,0.1,0,0.1,0.1
					c0,0,0.1,0,0.1,0.1c0,0,0.1,0,0.1,0c0,0,0.1,0,0.1,0c0,0,0.1,0,0.1,0c0,0,0.1,0,0.1,0c0,0,0.1,0,0.1,0c0.1,0,0.1,0,0.2,0
					c0,0,0.1,0,0.1,0c0.1,0,0.1,0,0.2,0c0,0,0.1,0,0.1,0c0.1,0,0.1,0,0.2,0c0,0,0.1,0,0.1,0c0.1,0,0.1,0,0.2,0c0,0,0.1,0,0.1,0
					c0.1,0,0.2,0,0.3,0h0l0,0l19.5,0l88.1,0l19.5,0c0.1,0,0.2,0,0.3,0c0,0,0.1,0,0.1,0c0.1,0,0.1,0,0.2,0c0,0,0.1,0,0.1,0
					c0.1,0,0.1,0,0.2,0c0,0,0.1,0,0.1,0c0.1,0,0.1,0,0.2,0c0,0,0.1,0,0.1,0c0.1,0,0.1,0,0.2,0c0,0,0.1,0,0.1,0c0.1,0,0.1,0,0.2,0
					c0,0,0.1,0,0.1,0c0,0,0.1,0,0.1,0c0,0,0.1,0,0.1,0c0,0,0.1,0,0.1-0.1c0,0,0.1,0,0.1-0.1c0,0,0.1,0,0.1-0.1c0,0,0.1,0,0.1-0.1
					c0,0,0.1,0,0.1-0.1c0,0,0.1,0,0.1-0.1c0,0,0.1,0,0.1-0.1c0,0,0.1,0,0.1-0.1c0,0,0.1,0,0.1-0.1s0.1-0.1,0.1-0.1
					c0,0,0.1-0.1,0.1-0.1c0,0,0.1-0.1,0.1-0.1c0,0,0.1-0.1,0.1-0.1c0,0,0.1-0.1,0.1-0.1c0,0,0.1-0.1,0.1-0.1c0,0,0.1-0.1,0.1-0.1
					c0,0,0.1-0.1,0.1-0.1c0,0,0.1-0.1,0.1-0.1c0,0,0.1-0.1,0.1-0.1c0,0,0.1-0.1,0.1-0.1s0.1-0.1,0.1-0.1c0,0,0.1-0.1,0.1-0.1
					c0,0,0.1-0.1,0.1-0.1c0,0,0.1-0.1,0.1-0.1c0,0,0.1-0.1,0.1-0.1c0,0,0.1-0.1,0.1-0.1c0,0,0.1-0.1,0.1-0.1c0,0,0-0.1,0.1-0.1
					c0,0,0-0.1,0.1-0.1s0-0.1,0.1-0.1c0,0,0-0.1,0.1-0.1c0,0,0-0.1,0.1-0.1c0,0,0-0.1,0.1-0.1c0,0,0-0.1,0.1-0.1c0,0,0-0.1,0.1-0.1
					c0,0,0-0.1,0-0.1c0,0,0-0.1,0.1-0.1c0,0,0-0.1,0-0.1c0-0.1,0-0.1,0-0.2c0,0,0-0.1,0-0.1c0-0.1,0-0.1,0-0.2c0,0,0-0.1,0-0.1
					c0-0.1,0-0.1,0-0.2c0,0,0-0.1,0-0.1c0-0.1,0-0.1,0-0.2c0,0,0,0,0-0.1c0-0.1,0-0.2,0-0.2c0,0,0,0,0,0c0,0,0,0,0,0
					c0-0.1,0-0.2,0-0.3c0,0,0,0,0,0c0-0.1,0-0.1,0-0.2l0,0l0-16l0-26.4l0-16C1228.9,844.1,1228.9,844,1228.9,844z M1222.6,888
					c-2.4,0.8-4.7,2-6.9,3.4c-4.6,3.1-8.1,7.1-10.3,11.3l-92.2,0c-2.1-4.3-5.7-8.3-10.3-11.3c-2.7-1.8-5.5-3.1-8.3-3.9l0-28.3
					c2.8-0.8,5.7-2.1,8.4-3.9c4.6-3.1,8.2-7.1,10.3-11.4l92.1,0c2.1,4.3,5.7,8.3,10.3,11.4c2.2,1.5,4.6,2.6,6.9,3.4L1222.6,888z"/>
				<path fill="#8CC63F" d="M1142,892.1c-0.7-0.5-1.3-1.1-1.9-1.7c-5-5-7.7-11.6-7.7-18.6c0-14.5,11.8-26.3,26.3-26.3
					c14.5,0,26.3,11.8,26.3,26.3c0,7-2.7,13.6-7.7,18.6c-5,5-11.6,7.7-18.6,7.7C1152.5,898.1,1146.7,896,1142,892.1z M1175,852.1
					c-4.4-3.6-10.1-5.8-16.2-5.8c-6.8,0-13.2,2.7-18.1,7.5c-4.8,4.8-7.5,11.2-7.5,18.1c0,6.8,2.7,13.2,7.5,18.1
					c4.8,4.8,11.2,7.5,18.1,7.5c6.8,0,13.2-2.7,18.1-7.5c4.8-4.8,7.5-11.2,7.5-18.1l0,0C1184.3,863.8,1180.6,856.7,1175,852.1z"/>
				<circle fill="#8CC63F" cx="1158.7" cy="871.8" r="22.7"/>
				<path fill="#39B54A" d="M1156.3,886.2c-3.2-0.1-6.3-0.9-9.3-2.2l0-7.3c1.7,0.9,3.6,1.6,5.6,2.2s3.8,0.9,5.3,0.9
					c1.3,0,2.2-0.2,2.8-0.5s0.9-0.8,0.9-1.5c0-0.5-0.2-0.9-0.6-1.2c-0.4-0.3-1.1-0.7-2.1-1.2c-1-0.4-2.3-0.9-4-1.5
					c-1.9-0.7-3.4-1.5-4.5-2.3s-2-1.8-2.5-2.9c-0.5-1.1-0.8-2.4-0.8-4c0-2.4,0.8-4.3,2.3-5.7c1.6-1.4,3.9-2.2,7-2.5l0-4.9h4.6l0,4.9
					c2.9,0.2,5.9,0.9,8.9,2.2l-2.6,6.3c-3.1-1.4-5.9-2.1-8.3-2.1c-1.2,0-2,0.1-2.5,0.4c-0.5,0.3-0.7,0.7-0.7,1.3
					c0,0.5,0.2,0.9,0.5,1.2c0.3,0.3,0.9,0.7,1.8,1.1s2,0.8,3.6,1.4c3.1,1.1,5.3,2.3,6.6,3.7c1.3,1.4,2,3.2,2,5.4
					c0,2.5-0.8,4.5-2.4,6c-1.6,1.5-3.9,2.5-6.9,2.9l0,5.9h-4.6V886.2z"/>
			</g>
			<g>
				<path fill="#39B54A" d="M1251,875.7l0,58.4c0,0.2,0,0.3,0,0.5c-0.2,3.1-2.8,5.5-6,5.5l-127.1,0c-3.1,0-5.7-2.4-6-5.5
					c0-0.2,0-0.3,0-0.5l0-58.4c0-0.1,0-0.1,0-0.2c0.1-3.2,2.7-5.8,6-5.8l127.1,0c3.2,0,5.9,2.6,6,5.8
					C1251,875.6,1251,875.7,1251,875.7z"/>
				<path fill="#8CC63F" d="M1251,875.5c-0.1-3.2-2.7-5.8-6-5.8l-19.5,0l-88.1,0l-19.5,0c-3.2,0-5.9,2.6-6,5.8c0,0.1,0,0.1,0,0.2
					l0,16l0,26.4l0,0l0,16c0,0.1,0,0.1,0,0.2c0,0,0,0,0,0c0,0.1,0,0.2,0,0.3c0,0,0,0,0,0c0,0,0,0,0,0c0,0.1,0,0.2,0,0.2
					c0,0,0,0.1,0,0.1c0,0.1,0,0.1,0,0.2c0,0,0,0.1,0,0.1c0,0.1,0,0.1,0,0.2c0,0,0,0.1,0,0.1c0,0.1,0,0.1,0,0.2c0,0,0,0.1,0,0.1
					c0,0.1,0,0.1,0,0.2c0,0,0,0.1,0,0.1c0,0,0,0.1,0.1,0.1c0,0,0,0.1,0.1,0.1c0,0,0,0.1,0.1,0.1c0,0,0,0.1,0.1,0.1
					c0,0,0,0.1,0.1,0.1c0,0,0,0.1,0.1,0.1c0,0,0,0.1,0.1,0.1c0,0,0,0.1,0.1,0.1c0,0,0,0.1,0.1,0.1c0,0,0.1,0.1,0.1,0.1
					c0,0,0,0.1,0.1,0.1c0,0,0.1,0.1,0.1,0.1c0,0,0.1,0.1,0.1,0.1c0,0,0.1,0.1,0.1,0.1c0,0,0.1,0.1,0.1,0.1c0,0,0.1,0.1,0.1,0.1
					c0,0,0.1,0.1,0.1,0.1c0,0,0.1,0.1,0.1,0.1c0,0,0.1,0.1,0.1,0.1c0,0,0.1,0.1,0.1,0.1c0,0,0.1,0.1,0.1,0.1c0,0,0.1,0.1,0.1,0.1
					c0,0,0.1,0.1,0.1,0.1c0,0,0.1,0.1,0.1,0.1c0,0,0.1,0.1,0.1,0.1c0,0,0.1,0.1,0.1,0.1c0,0,0.1,0.1,0.1,0.1c0,0,0.1,0.1,0.1,0.1
					c0,0,0.1,0,0.1,0.1c0,0,0.1,0,0.1,0.1c0,0,0.1,0,0.1,0.1c0,0,0.1,0,0.1,0.1c0,0,0.1,0,0.1,0.1c0,0,0.1,0,0.1,0.1
					c0,0,0.1,0,0.1,0.1c0,0,0.1,0,0.1,0.1c0,0,0.1,0,0.1,0.1c0,0,0.1,0,0.1,0c0,0,0.1,0,0.1,0c0,0,0.1,0,0.1,0c0,0,0.1,0,0.1,0
					c0,0,0.1,0,0.1,0c0,0,0.1,0,0.2,0c0,0,0.1,0,0.1,0c0.1,0,0.1,0,0.2,0c0,0,0.1,0,0.1,0c0.1,0,0.1,0,0.2,0c0,0,0.1,0,0.1,0
					c0.1,0,0.1,0,0.2,0c0,0,0.1,0,0.1,0c0.1,0,0.2,0,0.3,0h0l0,0l19.5,0l88.1,0l19.5,0c0.1,0,0.2,0,0.3,0c0,0,0.1,0,0.1,0
					c0.1,0,0.1,0,0.2,0c0,0,0.1,0,0.1,0c0.1,0,0.1,0,0.2,0c0,0,0.1,0,0.1,0c0.1,0,0.1,0,0.2,0c0,0,0.1,0,0.1,0c0.1,0,0.1,0,0.2,0
					c0,0,0.1,0,0.1,0c0,0,0.1,0,0.1,0c0,0,0.1,0,0.1,0c0,0,0.1,0,0.1,0c0,0,0.1,0,0.1,0c0,0,0.1,0,0.1-0.1c0,0,0.1,0,0.1-0.1
					c0,0,0.1,0,0.1-0.1c0,0,0.1,0,0.1-0.1c0,0,0.1,0,0.1-0.1c0,0,0.1,0,0.1-0.1c0,0,0.1,0,0.1-0.1c0,0,0.1,0,0.1-0.1
					c0,0,0.1,0,0.1-0.1c0,0,0.1-0.1,0.1-0.1c0,0,0.1-0.1,0.1-0.1c0,0,0.1-0.1,0.1-0.1c0,0,0.1-0.1,0.1-0.1c0,0,0.1-0.1,0.1-0.1
					c0,0,0.1-0.1,0.1-0.1s0.1-0.1,0.1-0.1c0,0,0.1-0.1,0.1-0.1c0,0,0.1-0.1,0.1-0.1c0,0,0.1-0.1,0.1-0.1c0,0,0.1-0.1,0.1-0.1
					c0,0,0.1-0.1,0.1-0.1c0,0,0.1-0.1,0.1-0.1c0,0,0.1-0.1,0.1-0.1c0,0,0.1-0.1,0.1-0.1s0.1-0.1,0.1-0.1c0,0,0.1-0.1,0.1-0.1
					s0.1-0.1,0.1-0.1c0,0,0-0.1,0.1-0.1c0,0,0-0.1,0.1-0.1c0,0,0-0.1,0.1-0.1c0,0,0-0.1,0.1-0.1c0,0,0-0.1,0.1-0.1
					c0,0,0-0.1,0.1-0.1c0,0,0-0.1,0.1-0.1c0,0,0-0.1,0.1-0.1c0,0,0-0.1,0-0.1c0,0,0-0.1,0.1-0.1c0,0,0-0.1,0-0.1c0-0.1,0-0.1,0-0.2
					c0,0,0-0.1,0-0.1c0-0.1,0-0.1,0-0.2c0,0,0-0.1,0-0.1c0-0.1,0-0.1,0-0.2c0,0,0-0.1,0-0.1c0-0.1,0-0.1,0-0.2c0,0,0,0,0-0.1
					c0-0.1,0-0.2,0-0.2c0,0,0,0,0,0c0,0,0,0,0,0c0-0.1,0-0.2,0-0.3c0,0,0,0,0,0c0-0.1,0-0.1,0-0.2l0,0l0-16l0-26.4l0-16
					C1251,875.7,1251,875.6,1251,875.5z M1244.7,919.6c-2.4,0.8-4.7,2-6.9,3.4c-4.6,3.1-8.1,7.1-10.3,11.3l-92.2,0
					c-2.1-4.3-5.6-8.3-10.3-11.3c-2.7-1.8-5.5-3.1-8.3-3.9l0-28.3c2.8-0.8,5.7-2.1,8.4-3.9c4.6-3.1,8.2-7.1,10.3-11.4l92.1,0
					c2.1,4.3,5.7,8.3,10.3,11.4c2.2,1.5,4.6,2.6,6.9,3.4L1244.7,919.6z"/>
				<path fill="#8CC63F" d="M1164.1,923.7c-0.7-0.5-1.3-1.1-1.9-1.7c-5-5-7.7-11.6-7.7-18.6c0-14.5,11.8-26.3,26.3-26.3
					c14.5,0,26.3,11.8,26.3,26.3c0,7-2.7,13.6-7.7,18.6c-5,5-11.6,7.7-18.6,7.7C1174.6,929.7,1168.8,927.6,1164.1,923.7z
					 M1197,883.6c-4.4-3.6-10.1-5.8-16.2-5.8c-6.8,0-13.2,2.7-18.1,7.5s-7.5,11.2-7.5,18.1c0,6.8,2.7,13.2,7.5,18.1
					c4.8,4.8,11.2,7.5,18.1,7.5c6.8,0,13.2-2.7,18.1-7.5s7.5-11.2,7.5-18.1l0,0C1206.4,895.4,1202.7,888.3,1197,883.6z"/>
				<circle fill="#8CC63F" cx="1180.8" cy="903.3" r="22.7"/>
				<path fill="#39B54A" d="M1178.4,917.8c-3.2-0.1-6.3-0.9-9.3-2.2l0-7.3c1.7,0.9,3.6,1.6,5.6,2.2c2,0.6,3.8,0.9,5.3,0.9
					c1.3,0,2.2-0.2,2.8-0.5c0.6-0.3,0.9-0.8,0.9-1.5c0-0.5-0.2-0.9-0.6-1.2c-0.4-0.3-1.1-0.7-2.1-1.2c-1-0.4-2.3-0.9-4-1.5
					c-1.9-0.7-3.4-1.5-4.5-2.3c-1.2-0.9-2-1.8-2.5-2.9c-0.5-1.1-0.8-2.4-0.8-4c0-2.4,0.8-4.3,2.3-5.7c1.6-1.4,3.9-2.2,7-2.5v-4.9
					l4.6,0l0,4.9c2.9,0.2,5.9,0.9,8.9,2.2l-2.6,6.3c-3.1-1.4-5.9-2.1-8.3-2.1c-1.2,0-2,0.1-2.5,0.4c-0.5,0.3-0.7,0.7-0.7,1.3
					c0,0.5,0.2,0.9,0.5,1.2c0.3,0.3,0.9,0.7,1.8,1.1c0.9,0.4,2,0.8,3.6,1.4c3.1,1.1,5.3,2.3,6.6,3.7s2,3.2,2,5.4
					c0,2.5-0.8,4.5-2.4,6c-1.6,1.5-3.9,2.5-6.9,2.9v5.9l-4.6,0V917.8z"/>
			</g>
		</g>
		<g>
			<circle fill="#8CC63F" cx="317.4" cy="831.3" r="108.8"/>
			<circle fill="#F7BD38" cx="317.4" cy="831.3" r="76.5"/>
			<circle fill="#8CC63F" cx="317.4" cy="831.3" r="54"/>
			<circle fill="#F7BD38" cx="317.4" cy="831.3" r="25.7"/>
			<path fill="#333742" d="M150.4,768.1l14-9.6c-0.4-1.7-0.2-3.5,0.6-5.2c0.6-1.3,1.6-2.3,2.7-3l-1.6-17.3c-0.2-2.4,1.4-3.5,3.5-2.5
				l36.5,16.6c2.2,1,4.3,3.7,4.8,6l3.5,18.2l98.8,54c3.7,1.9,7.4,2.2,5.5,5.9c-1.9,3.7-4.3,1-8-0.9L209.9,783l-13.9,8.2
				c-2,1.2-5.5,1.3-7.6,0.3l-37.7-19C148.6,771.5,148.5,769.5,150.4,768.1z"/>
		</g>
		<g>
			<path fill="#333742" d="M831.1,722.7H695.7c-40.2,0-73,32.9-73,73v101.1c0,23.8,19.5,43.3,43.3,43.3h194.7
				c23.8,0,43.3-19.5,43.3-43.3V795.7C904.1,755.5,871.2,722.7,831.1,722.7z"/>
			<path fill="#FBC527" d="M742,716h-20.9c0.6-5.9,5-9.4,10.4-9.4C737,706.6,741.4,710.1,742,716z"/>
			<path fill="#FBC527" d="M806.3,716h-20.8c0.6-5.9,5.1-9.2,10.4-9.2C801.3,706.8,805.7,710.1,806.3,716z"/>
			<path fill="#FBC527" d="M732.2,713h-1.3c-1.2,0-2.3-1-2.3-2.3v-9c0-1.2,1-2.3,2.3-2.3h1.3c1.2,0,2.3,1,2.3,2.3v9
				C734.4,712,733.4,713,732.2,713z"/>
			<path fill="#FBC527" d="M796.5,713h-1.3c-1.2,0-2.3-1-2.3-2.3v-9c0-1.2,1-2.3,2.3-2.3h1.3c1.2,0,2.3,1,2.3,2.3v9
				C798.8,712,797.8,713,796.5,713z"/>
			<path fill="#4D515A" d="M911.5,750.8v57.4c0,19.6-16,36.1-35.6,36.1H647.8c-19.6,0-35.3-16.5-35.3-36.1v-57.4
				c0-19.6,15.7-36.1,35.3-36.1h228.1C895.5,714.7,911.5,731.2,911.5,750.8z"/>
			<path fill="#333742" d="M763.4,674.8c-20.5,0-37.1,4.3-37.1,26.3c0,0,0,0,0,0c0,0.6,0.4,1,0.8,1h8.2c0,0,0,0,0,0h0
				c0.1,0,0.2,0,0.3-0.1c0,0,0,0,0,0c0.1,0,0.1-0.1,0.2-0.2c0,0,0.1,0,0.1-0.1c0,0,0-0.1,0-0.1c0.1-0.2,0.2-0.4,0.2-0.6c0,0,0,0,0,0
				c0-0.3,0-0.5,0-0.8c0.3-8.7,4.5-12.9,10.5-14.9c0.1,0,0.2-0.1,0.4-0.1c0.1,0,0.3-0.1,0.4-0.1c4.6-1.3,10.2-1.5,16.3-1.5
				c5.1,0,9.7,0.2,13.7,1c3.4,0.7,6.4,1.9,8.6,3.9c0.1,0.1,0.3,0.3,0.4,0.4c0.1,0.1,0.2,0.1,0.2,0.2c2.4,2.5,3.8,6.1,3.9,11.3
				c0,0.1,0,0.3,0,0.4c0,0.1,0,0.4,0.1,0.6c0,0,0,0,0,0.1c0.1,0.2,0.2,0.4,0.4,0.5c0,0,0.1,0,0.2,0.1c0,0,0.1,0,0.1,0h0.1
				c0,0,0,0,0,0h8.2c0.5,0,0.8-0.5,0.8-1c0,0,0,0,0,0C800.5,679.2,783.9,674.8,763.4,674.8z"/>
			<path fill="#F6F4F4" d="M697.5,851.1v37c0,7.3-5.7,13.4-13.1,13.4c-7.3,0-13.1-6-13.1-13.4v-36.7c0.7,1,2.5,2,4.1,2h17.8
				C695.1,853.4,696.9,852.3,697.5,851.1z"/>
			<path fill="#333742" d="M697.5,715.1v136c-0.8,1.1-2.4,2-4.2,2h-17.8c-1.6,0-2.8-0.8-4.4-1.8V715.1H697.5z"/>
			<path fill="#F6F4F4" d="M857.2,850.8v37.3c0,7.3-6.1,13.4-13.4,13.4c-7.3,0-13.4-6-13.4-13.4v-36.5c1.3,0.8,2.7,1.8,4.2,1.8h17.8
				C854.3,853.4,855.9,852.2,857.2,850.8z"/>
			<path fill="#333742" d="M857.4,715.1v135.7c-1.6,1.3-3.1,2.3-5,2.3h-17.8c-1.5,0-2.8-0.7-4-1.6V715.1H857.4z"/>
			<ellipse fill="#FBC527" cx="684.6" cy="814" rx="4.2" ry="3.6"/>
			<ellipse fill="#FBC527" cx="684.6" cy="793.5" rx="4.2" ry="3.6"/>
			<ellipse fill="#FBC527" cx="843.9" cy="814" rx="4.2" ry="3.6"/>
			<ellipse fill="#FBC527" cx="843.9" cy="793.7" rx="4.2" ry="3.6"/>
			<path fill="#FBC527" d="M697.8,833.3c-1.2-1.1-2.8-1.9-4.6-1.9h-17.8c-1.6,0-3.1,0.7-4.3,1.7c-1.4,1.2-2.3,3.1-2.3,5.1v11.4
				c0,2,0.9,3.9,2.3,5.1c1.2,1,2.6,1.6,4.3,1.6h17.8c1.8,0,3.4-0.8,4.6-1.9c1.3-1.2,2.1-3,2.1-4.8v-11.4
				C699.9,836.3,699.1,834.5,697.8,833.3z M695.2,847.8c0,1.3-0.5,2.5-1.3,3.3c-0.8,0.8-1.9,1.3-3.1,1.3h-12.3c-1.1,0-2.2-0.4-3-1.1
				c-1-0.8-1.7-2.1-1.7-3.5V840c0-1.4,0.7-2.7,1.7-3.5c0.8-0.7,1.9-1.2,3-1.2h12.3c1.2,0,2.3,0.5,3.1,1.3c0.9,0.8,1.3,2.1,1.3,3.4
				V847.8z"/>
			<path fill="#FBC527" d="M857.4,831.5c-1.2-1.1-2.7-2-4.5-2H835c-1.6,0-3.2,0.8-4.4,1.8c-1.4,1.2-2.4,3.2-2.4,5.2v11.4
				c0,2,1,3.8,2.4,5c1.2,1,2.8,1.5,4.4,1.5h17.8c1.8,0,3.3-0.7,4.5-1.8c1.3-1.2,1.9-2.9,1.9-4.7v-11.4
				C859.3,834.6,858.6,832.7,857.4,831.5z M854.6,846c0,1.3-0.4,2.4-1.2,3.2c-0.8,0.8-1.7,1.2-3,1.2h-12.3c-1.1,0-2.3-0.3-3.1-1
				c-1-0.8-1.8-2-1.8-3.4v-7.8c0-1.4,0.8-2.8,1.8-3.6c0.8-0.7,2-1.3,3.1-1.3h12.3c1.2,0,2.2,0.6,3,1.4c0.9,0.8,1.2,2.2,1.2,3.5V846z
				"/>
		</g>
		<g>
			<path fill="#F7BD38" d="M1047.4,823c0-29.6-24-53.6-53.6-53.6s-53.6,24-53.6,53.6c0,21,12,39.1,29.6,47.9v12.2
				c0,2.9,2.3,5.3,5.1,5.3h39.6c2.8,0,5.1-2.4,5.1-5.3V870C1036.1,860.9,1047.4,843.2,1047.4,823z"/>
			<rect x="969.7" y="875.5" fill="#2E5A77" width="49.6" height="48.6"/>
			<path fill="#0E303F" d="M967.2,922.4c2,10,13.4,17.7,27.2,17.7c13.8,0,25.2-7.7,27.2-17.7H967.2z"/>
			<path fill="#0E303F" d="M1028.2,880c0,2.5-2.7,4.4-6.1,4.4h-54.9c-3.4,0-6.1-2-6.1-4.4l0,0c0-2.5,2.7-4.4,6.1-4.4h54.9
				C1025.5,875.5,1028.2,877.5,1028.2,880L1028.2,880z"/>
			<path fill="#0E303F" d="M1028,894.9c0,2.5-2.7,4.4-6.1,4.4H967c-3.4,0-6.1-2-6.1-4.4l0,0c0-2.5,2.7-4.4,6.1-4.4h54.9
				C1025.3,890.4,1028,892.4,1028,894.9L1028,894.9z"/>
			<path fill="#0E303F" d="M1028.6,910.7c0,2.5-2.7,4.4-6.1,4.4h-54.9c-3.4,0-6.1-2-6.1-4.4l0,0c0-2.5,2.8-4.4,6.1-4.4h54.9
				C1025.8,906.2,1028.6,908.2,1028.6,910.7L1028.6,910.7z"/>
			<path fill="#0E303F" d="M1012.6,820.5c0.1-0.2,0.2-0.3,0.2-0.5c0-0.5-0.4-0.9-0.9-0.9c-1.6,0-2.3,1.3-2.9,2.3
				c-0.5,0.9-0.8,1.4-1.3,1.4c-0.5,0-0.8-0.5-1.3-1.4c-0.6-1-1.3-2.3-2.9-2.3l0,0c-1.6,0-2.3,1.3-2.9,2.3c-0.5,0.9-0.8,1.4-1.3,1.4
				c-0.5,0-0.8-0.5-1.3-1.4c-0.6-1-1.3-2.3-2.9-2.3c-1.6,0-2.3,1.3-2.9,2.3c-0.5,0.9-0.8,1.4-1.3,1.4c-0.5,0-0.8-0.5-1.3-1.4
				c-0.6-1-1.3-2.3-2.9-2.3c-1.6,0-2.3,1.3-2.9,2.3c-0.5,0.9-0.8,1.4-1.3,1.4c-0.5,0-0.8-0.9-1.3-1.8c-0.6-1-1.3-2.7-2.9-2.7h0h0h0
				c-0.5,0-0.9,0.8-0.9,1.2c0,0.2,0.1,0.6,0.2,0.7c0.9,2.1,7.2,17.9,8.9,34.1c1.3,12-0.6,27.6-0.6,27.8c0,0.2,0,0.5,0.2,0.6
				c0.1,0.2,0.3,0.3,0.6,0.4l0,0.1h0.1c0.4,0,0.8-0.4,0.8-0.8c0-0.2,2-15.9,0.7-28.1c-1.3-12.2-5.2-24.2-7.5-30.4
				c0.4,0.4,1,0.7,1.7,0.7c1.6,0,2.3-1.3,2.9-2.3c0.5-0.9,0.8-1.4,1.3-1.4c0.5,0,0.8,0.5,1.3,1.4c0.6,1,1.3,2.3,2.9,2.3
				c1.6,0,2.3-1.3,2.9-2.3c0.5-0.9,0.8-1.4,1.3-1.4c0.5,0,0.8,0.5,1.3,1.4c0.6,1,1.3,2.3,2.9,2.3c1.6,0,2.3-1.3,2.9-2.3
				c0.5-0.9,0.8-1.4,1.3-1.4c0.5,0,0.8,0.5,1.3,1.4c0.6,1,1.3,2.3,2.9,2.3c0.8,0,1.4-0.3,1.8-0.8c-2.3,6.1-6.3,18.1-7.7,30.3
				c-1.5,13.1-0.3,27.9-0.3,28.1c0,0.4,0.4,0.8,0.8,0.8h0l0,0c0.2,0,0.4-0.1,0.6-0.3c0.1-0.2,0.2-0.4,0.2-0.6
				c0-0.1-1.2-14.9,0.3-27.7C1005.3,838.2,1011.7,822.5,1012.6,820.5z M1011.1,821.4L1011.1,821.4c0,0.1-0.1,0.1-0.1,0.2
				C1011,821.5,1011.1,821.5,1011.1,821.4z M1011,820L1011,820c-0.6,0.4-1,1-1.4,1.7c0,0.1-0.1,0.1-0.1,0.2c0-0.1,0.1-0.1,0.1-0.2
				C1010,821,1010.4,820.3,1011,820z M1010.5,821.1c0,0-0.1,0.1-0.1,0.1C1010.4,821.2,1010.4,821.2,1010.5,821.1z M1010.3,821.4
				c-0.1,0.2-0.2,0.3-0.3,0.5C1010.1,821.8,1010.2,821.6,1010.3,821.4z M1009.7,822.4c0,0.1-0.1,0.1-0.1,0.2
				C1009.6,822.6,1009.7,822.5,1009.7,822.4z M1007.7,823.4L1007.7,823.4L1007.7,823.4c-0.2,0-0.4-0.1-0.6-0.2
				C1007.3,823.3,1007.5,823.4,1007.7,823.4z M1000.4,822.8c-0.3,0.3-0.6,0.5-1.1,0.5l0,0C999.8,823.3,1000.1,823.1,1000.4,822.8z
				 M999.3,823.4C999.3,823.4,999.3,823.4,999.3,823.4C999.3,823.4,999.3,823.4,999.3,823.4c-0.6,0-1-0.3-1.3-0.8
				C998.3,823,998.7,823.4,999.3,823.4z M994.3,819.7c-0.2,0.1-0.4,0.3-0.6,0.4C993.9,820,994.1,819.8,994.3,819.7z M991.5,823.1
				c-0.2,0.1-0.4,0.1-0.6,0.1l0,0C991.2,823.2,991.4,823.2,991.5,823.1z M990.3,823.1c-0.3-0.1-0.5-0.4-0.7-0.7
				C989.8,822.7,990,822.9,990.3,823.1z M988.1,820.1c-0.4-0.4-0.8-0.6-1.4-0.6c0,0,0,0,0,0c0,0,0,0,0,0
				C987.4,819.5,987.8,819.7,988.1,820.1z M986.7,819.5L986.7,819.5c-0.3,0-0.6,0.1-0.8,0.2C986.2,819.5,986.4,819.5,986.7,819.5z
				 M980.7,820.8c0.5,0.9,0.2,1.8,1.1,1.8c0,0,0.8-0.7,0.8-0.7c0,0,0,0,0,0C981.6,821.9,981.2,821.7,980.7,820.8 M984,837
				c-0.5-1.9-1-3.7-1.5-5.3C983,833.4,983.5,835.2,984,837c1.4,5.2,2.7,11.1,3.3,17.1c0.4,3.8,0.5,7.9,0.4,11.8c0,0.8,0,1.5-0.1,2.3
				c0-0.8,0-1.5,0.1-2.3c0.1-3.9,0-8-0.4-11.8C986.6,848.1,985.4,842.2,984,837z M986.8,882.2L986.8,882.2c0,0,0.1,0,0.1,0
				C986.9,882.2,986.9,882.2,986.8,882.2C986.8,882.2,986.8,882.2,986.8,882.2z M987,882c0,0.1,0,0.1-0.1,0.1
				C987,882.1,987,882.1,987,882c0,0,0.1-0.4,0.1-1.1C987.1,881.6,987,882,987,882z M987.2,880.4c0-0.3,0.1-0.7,0.1-1.1
				C987.3,879.7,987.2,880.1,987.2,880.4z M979.8,820.9c0,0,0,0.1,0.1,0.1C979.8,820.9,979.8,820.9,979.8,820.9L979.8,820.9z
				 M982.5,823.6c-0.4,0-0.8-0.1-1.1-0.4C981.7,823.5,982.1,823.6,982.5,823.6C982.5,823.6,982.5,823.6,982.5,823.6L982.5,823.6
				C982.5,823.6,982.5,823.6,982.5,823.6z M985.4,820.7c-0.1,0.2-0.3,0.4-0.4,0.6c-0.1,0.1-0.1,0.2-0.2,0.3
				c-0.1,0.2-0.3,0.5-0.4,0.7c0.2-0.2,0.3-0.5,0.4-0.7c0.1-0.1,0.1-0.2,0.2-0.3C985.2,821.1,985.3,820.9,985.4,820.7
				c0.1-0.2,0.3-0.3,0.4-0.5C985.7,820.4,985.6,820.6,985.4,820.7z M986.7,820L986.7,820c-0.1,0-0.2,0-0.3,0
				C986.5,820,986.6,820,986.7,820z M987.8,820.5c-0.1-0.2-0.3-0.3-0.5-0.4C987.5,820.2,987.7,820.3,987.8,820.5
				c0.3,0.3,0.5,0.8,0.8,1.2C988.4,821.3,988.1,820.8,987.8,820.5z M990.9,823.7c-0.1,0-0.3,0-0.4-0.1
				C990.6,823.7,990.8,823.7,990.9,823.7C990.9,823.7,990.9,823.7,990.9,823.7L990.9,823.7C990.9,823.7,990.9,823.7,990.9,823.7z
				 M991.7,823.6c0.2-0.1,0.4-0.3,0.6-0.5C992.1,823.3,991.9,823.4,991.7,823.6z M992.6,822.8c0.2-0.2,0.3-0.4,0.5-0.7
				C992.9,822.4,992.7,822.6,992.6,822.8z M997,821.7c-0.5-0.9-1-1.8-1.9-1.8c0,0,0,0,0,0c0,0,0,0,0,0
				C996,819.9,996.5,820.8,997,821.7c0.2,0.4,0.4,0.7,0.6,1.1C997.4,822.5,997.2,822.1,997,821.7z M999.3,823.8
				C999.3,823.8,999.3,823.8,999.3,823.8L999.3,823.8C999.3,823.8,999.3,823.8,999.3,823.8z M1003.5,819.9
				C1003.5,819.9,1003.5,819.9,1003.5,819.9c-0.4,0-0.7,0.2-1,0.4C1002.8,820.1,1003.1,819.9,1003.5,819.9
				C1003.5,819.9,1003.5,819.9,1003.5,819.9c0.8,0,1.2,0.7,1.7,1.4C1004.8,820.6,1004.3,819.9,1003.5,819.9z M1007.7,823.4
				c-0.4,0-0.8,0.1-1.1-0.1c0.3,0.2,0.7,0.5,1.1,0.5c0.1,0,0.2-0.2,0.2-0.2C1007.8,823.5,1007.8,823.4,1007.7,823.4
				C1007.7,823.4,1007.7,823.4,1007.7,823.4z M1008.6,823.6c-0.1,0-0.1,0.1-0.2,0.1C1008.5,823.7,1008.6,823.6,1008.6,823.6z
				 M1008.3,823.8c-0.1,0-0.1,0.1-0.2,0.1C1008.2,823.8,1008.2,823.8,1008.3,823.8z M1008.8,823.5c0.1,0,0.1-0.1,0.2-0.1
				C1008.9,823.4,1008.8,823.5,1008.8,823.5z M1009.1,823.3c0.1-0.1,0.1-0.1,0.2-0.2C1009.2,823.1,1009.1,823.2,1009.1,823.3z
				 M1009.5,822.8c0,0.1-0.1,0.1-0.1,0.2C1009.4,822.9,1009.4,822.8,1009.5,822.8z M1010.2,823.6c-0.3,0.8-0.6,1.7-1,2.6
				C1009.6,825.2,1009.9,824.4,1010.2,823.6z M1008.9,827.2c-0.4,1-0.7,2.2-1.1,3.4C1008.2,829.4,1008.6,828.3,1008.9,827.2z
				 M1002.1,882.2c0,0.1,0,0.1,0.1,0.1C1002.1,882.3,1002.1,882.2,1002.1,882.2z M1002.3,882.3
				C1002.2,882.3,1002.2,882.3,1002.3,882.3C1002.2,882.3,1002.3,882.3,1002.3,882.3L1002.3,882.3
				C1002.3,882.3,1002.3,882.3,1002.3,882.3z"/>
		</g>
	</g>
	<g clip-path="url(#SVGID_2_)">
		<path fill="#2A404E" d="M474.9,347.8c0,0-358.6-96-461.3-347.8H-241c0,0,75.7,409.4,629.1,568.3l76.4-73L474.9,347.8z"/>
		<path fill="#DD894D" d="M521.7,409.5l81,18.1c0,0,103.8-9.8,147.6-9.1C794,419.3,937,633.8,937,633.8l2.6,56.1l11.8,14.5
			c0,0,0,45-72.5,40.6l-11.1-16.2c0,0-15.1,30.5-41.1,29.4c-27.2-1.2-31.3-19.6-31.3-19.6s-17,48.4-58.8,19.6
			c0,0-24.5,32.9-67.3-5.6L505.4,646.8L449.2,561L521.7,409.5z"/>
		<path fill="#513C2B" d="M1018.1,376.2c0,0,1.6-0.7,4.7-2.2c36-17.4,269.7-137.4,365.4-374H1641c0,0-77.1,385.1-550.9,614.7
			l-49.8-99.8l-20.6-139.5"/>
		<polygon fill="#F2F2F2" points="958.2,414.8 953.8,398.3 1025.9,373.5 1092.4,623.2 1031.8,646.8 1025.9,628.7 		"/>
		<path fill="#FEAC74" d="M800.7,513.2l138.9,176.7l86.4-61.1l-67.8-213.9l-57.1,14c0,0-73.7-35.2-108.9-29.9
			c-35.2,5.3-65.8,19.3-127.6,67.1c0,0-23.9,59.9-29.2,78.1c-5.3,18.2,2.4,24.8,16.6,28.2c7.7,1.8,29.9,1.3,29.9,1.3l37.1-46.6
			L800.7,513.2z"/>
		<circle fill="#FF5E4C" cx="1004.4" cy="427.6" r="13.7"/>
		<polygon fill="#F2F2F2" points="477.6,341 545.6,379.2 442.6,614.6 383.4,580.3 		"/>
		<circle fill="#49B5F3" cx="493.9" cy="397.5" r="16.4"/>
		<path fill="#FEAC74" d="M542.4,647.7c-17.4,28-33.9,33.1-47,25.4c-13.1-7.7-18.4-26.7-0.5-53.4c18.5-27.6,33.9-33.1,47-25.4
			C555,602.1,560,619.5,542.4,647.7z"/>
		<path fill="#FEAC74" d="M638.2,714.8c-13.2,27.5-27.8,34-40.6,28.2c-12.9-5.8-19.7-22.7-6-49.1c14.2-27.3,27.8-34,40.6-28.2
			S651.4,687,638.2,714.8z"/>
		<path fill="#FEAC74" d="M683.8,746.4c-10.3,21.2-23.8,25.1-36.7,19.3c-12.9-5.8-20.9-20-9.9-40.2c11.3-20.9,23.8-25.1,36.7-19.3
			S694.2,725.1,683.8,746.4z"/>
		<path fill="#FEAC74" d="M596.6,672.2c-20.3,36.6-36.3,46.9-50,40.3c-13.7-6.6-20.7-29.3,0.4-64.3c25.5-42.3,36.3-47,50.1-40.3
			C610.7,614.5,619.3,631.1,596.6,672.2z"/>
	</g>
</g>
</svg>
